<?xml version="1.0" encoding="utf-8"?>
<!-- Generator: Adobe Illustrator 26.0.3, SVG Export Plug-In . SVG Version: 6.00 Build 0)  -->
<svg version="1.1" xmlns="http://www.w3.org/2000/svg" xmlns:xlink="http://www.w3.org/1999/xlink" x="0px" y="0px"
	 viewBox="0 0 234.4 235" style="enable-background:new 0 0 234.4 235;" xml:space="preserve">
<style type="text/css">
	.st0{display:none;}
	.st1{display:inline;}
	.st2{fill:#FFFFFF;}
</style>
<g id="Layer_1" class="st0">
	<g class="st1">
		<path class="st2" d="M0.1,202.1V32.9C0.1,15,14.7,0.3,32.6,0.3h169.3c17.9,0,32.5,14.6,32.5,32.5v169.3
			c0,17.9-14.6,32.5-32.5,32.5H32.6C14.7,234.6,0.1,220,0.1,202.1z"/>
		<circle cx="117.2" cy="117.5" r="29.8"/>
	</g>
</g>
<g id="Layer_2" class="st0">
	<g class="st1">
		<path class="st2" d="M0.1,202.1V32.9C0.1,15,14.7,0.3,32.6,0.3h169.3c17.9,0,32.5,14.6,32.5,32.5v169.3
			c0,17.9-14.6,32.5-32.5,32.5H32.6C14.7,234.6,0.1,220,0.1,202.1z"/>
		<circle cx="73.2" cy="162.7" r="29.8"/>
		<circle cx="163.6" cy="72.3" r="29.8"/>
	</g>
</g>
<g id="Layer_3" class="st0">
	<g class="st1">
		<path class="st2" d="M0.1,202.1V32.9C0.1,15,14.7,0.3,32.6,0.3h169.3c17.9,0,32.5,14.6,32.5,32.5v169.3
			c0,17.9-14.6,32.5-32.5,32.5H32.6C14.7,234.6,0.1,220,0.1,202.1z"/>
		<circle cx="57.2" cy="178.9" r="29.8"/>
		<circle cx="180.1" cy="56.1" r="29.8"/>
		<circle cx="118.5" cy="117.7" r="29.8"/>
	</g>
</g>
<g id="Layer_4">
	<g>
		<path class="st2" d="M0.1,202.1V32.9C0.1,15,14.7,0.3,32.6,0.3h169.3c17.9,0,32.5,14.6,32.5,32.5v169.3
			c0,17.9-14.6,32.5-32.5,32.5H32.6C14.7,234.6,0.1,220,0.1,202.1z"/>
		<circle cx="70.8" cy="162.5" r="29.8"/>
		<circle cx="162.4" cy="72.1" r="29.8"/>
		<circle cx="162.5" cy="162.5" r="29.8"/>
		<circle cx="70.7" cy="72.1" r="29.8"/>
	</g>
</g>
<g id="Layer_5" class="st0">
	<g class="st1">
		<path class="st2" d="M0.1,202.1V32.9C0.1,15,14.7,0.3,32.6,0.3h169.3c17.9,0,32.5,14.6,32.5,32.5v169.3
			c0,17.9-14.6,32.5-32.5,32.5H32.6C14.7,234.6,0.1,220,0.1,202.1z"/>
		<circle cx="60.5" cy="174.2" r="29.8"/>
		<circle cx="175.1" cy="60.8" r="29.8"/>
		<circle cx="175.3" cy="174.2" r="29.8"/>
		<circle cx="60.4" cy="60.8" r="29.8"/>
		<circle cx="117.5" cy="117" r="29.8"/>
	</g>
</g>
<g id="Layer_6" class="st0">
	<g class="st1">
		<path class="st2" d="M0.1,202.1V32.9C0.1,15,14.7,0.3,32.6,0.3h169.3c17.9,0,32.5,14.6,32.5,32.5v169.3
			c0,17.9-14.6,32.5-32.5,32.5H32.6C14.7,234.6,0.1,220,0.1,202.1z"/>
		<circle cx="68.7" cy="190.5" r="29.8"/>
		<circle cx="168.5" cy="44.5" r="29.8"/>
		<circle cx="168.3" cy="117.7" r="29.8"/>
		<circle cx="68.7" cy="117.8" r="29.8"/>
		<circle cx="68.8" cy="44.5" r="29.8"/>
		<circle cx="168" cy="190.5" r="29.8"/>
	</g>
</g>
</svg>
