<svg id="Layer_7" data-name="Layer 7" xmlns="http://www.w3.org/2000/svg" viewBox="0 0 234.41 234.99"><defs><style>.cls-1{fill:#fff;}</style></defs><path class="cls-1" d="M201.84.35h-17v8h17v-8Zm-34,0h-17v8h17v-8Zm-34,0h-17v8h17v-8Zm-34,0h-17v8h17v-8Zm-34,0h-17v8h17v-8Zm-34,0h-2l-.3,0h0l-.21,0h0a32.3,32.3,0,0,0-10.71,3h0l-.07,0h0l-.07,0h0l-.06,0h0l-.08,0h0l-.06,0h0l-.08,0h0l-.07,0h0l-.06,0h0l0,0h-.05l-.06,0h0l0,0h0l0,0h-.15l0,0h-.42l0,0h-.06l0,0h-.32l0,0h-.06l0,0h-.06l0,0h-.06l0,0h0l0,0h0l-.06,0h0l0,0h0l-.05,0h0l0,0h0l-.05,0h0l0,0h0l0,0h0l0,0h0l-.08,0h0l0,0h0l4.17,6.82A24.48,24.48,0,0,1,32,8.35l-.18-8ZM4.09,17.24c-.4.72-.77,1.45-1.11,2.2H3l0,.08h0v0h0l0,.09h0v0h0l0,0h0v0h0v0h0v0h0v0h0v0h0v0h0v0h0v0h0v0h0v0h0v0h0v0h0v0h0v0h0v0h0v0h0v0h0l0,.07h0v0h0l0,.08h0v0h0l0,.07h0v0h0A32.43,32.43,0,0,0,.32,28.74h0v.1h0v0h0V29h0v0h0v.1h0v0h0v.07h0v0h0v0h0v.07h0v0h0v0h0v.07h0v0h0v0h0v.05h0v0h0v.07h0v0h0v0h0v.07h0v0h0v0h0v0h0v0h0v0h0v0h0v0h0v0h0v0h0v0h0v0h0v0h0v0h0v.06h0v0h0v0h0v0h0v0h0v0h0v.05h0v0h0v0h0v0h0v0h0v0h0v.05h0v0h0v0h0v0h0v0h0v0h0v0h0v0h0v0h0v0h0v.06h0v0h0v0h0v0h0v0h0v0h0v0h0v0h0v0h0v0h0v0h0v0h0v0h0v0h0v0h0v0h0v0h0v0h0v0h0v0h0v0h0v0h0v0h0v0h0v0h0v0h0v0h0v0h0v0h0v0h0v0h0v.06h0v0h0v0h0v0h0v0h0v0h0v0h0v0h0v0h0v0h0v0h0v0h0v0h0v0h0v0h0v0h0v0h0v0h0v0h0v.69h8v-.69a24.4,24.4,0,0,1,3-11.76l-7-3.87Zm4,33.32h-8v17h8v-17Zm0,34h-8v17h8v-17Zm0,34h-8v17h8v-17Zm0,34h-8v17h8v-17Zm0,34h-8v15.56h0v0h0v0h0v0h0v0h0v0h0v0h0v0h0v0h0v.06h0v0h0v0h0l0,1,8-.35c0-.36,0-.72,0-1.09V186.56Zm3.85,28.7-6.73,4.31a32.88,32.88,0,0,0,11.29,10.77h0l.08,0h0l.08.05h0l.06,0h0l.06,0h0l.06,0h0l0,0h0l0,0h0l.06,0h0l.05,0h0l0,0h.24l0,0h0l3.72-7.08a25,25,0,0,1-9.37-8.6ZM51,226.64H34v8H51v-8Zm34,0H68v8H85v-8Zm34,0H102v8h17v-8Zm34,0H136v8h17v-8Zm34,0H170v8h17v-8Zm28.45-4.14a24.34,24.34,0,0,1-12,4.09l.52,8h2.66l.07,0h.23a32.29,32.29,0,0,0,13-5.1l-4.46-6.64ZM234.35,200h-8v2.08A24,24,0,0,1,223.81,213l7.16,3.57a32.71,32.71,0,0,0,1.43-3.33h0v0h0l0-.1h0v0h0v0h0l.05-.13h0v0h0v0h0l0-.08h0v0h0v0h0v0h0v0h0l0-.08h0v0h0v0h0v0h0l0-.08h0v0h0v0h0v0h0v0h0l0-.08h0v0h0v0h0v0h0v0h0V212h0v0h0v0h0v0h0v0h0v0h0v0h0v0h0v0h0v0h0v0h0v-.05h0v0h0v0h0v0h0v0h0v0h0v0h0v0h0v0h0v0h0v0h0v0h0v0h0v0h0v0h0v0h0v0h0v0h0v0h0v0h0v0h0v0h0v0h0v0h0v0h0v0h0v0h0v0h0l0-.05h0v0h0v0h0v0h0v0h0v0h0v0h0v0h0v0h0v0h0v0h0v0h0v0h0v0h0v0h0v0h0v0h0v0h0v0h0l0-.07h0v0h0v0h0v0h0v0h0l0-.09h0v0h0v0h0v0h0v0h0v-.07h0v0h0v0h0v0h0l0-.09h0v0h0v0h0v0h0v0h0l0-.07h0v0h0v0h0v0h0l0-.09h0v0h0v0h0v0h0v0h0l0-.07h0v0h0v0h0v0h0l0-.09h0v0h0v0h0v0h0v0h0v-.07h0v0h0v0h0v0h0v0h0l0-.09h0v0h0v0h0V208h0v0h0v0h0v0h0v0h0l0-.1h0v0h0v0h0v0h0l0-.09h0v0h0v0h0v0h0v0h0v-.07h0v0h0v0h0v0h0v0h0v-.1h0v0h0v0h0v0h0v0h0v-.06h0v0h0v0h0v0h0v0h0v-.08h0v0h0v0h0v0h0v0h0v-.07h0v0h0v0h0v0h0v0h0l0-.09h0v0h0v0h0v0h0v-.07h0v0h0v0h0v0h0v0h0v0h0v0h0v0h0v0h0V206h0v0h0v0h0v0h0v0h0v-.09h0v0h0v0h0v0h0v-.06h0v0h0v0h0v0h0v-.05h0v0h0v0h0v0h0v-.06h0v0h0v0h0v0h0v0h0V205h0v0h0v0h0v0h0v0h0v0h0v0h0v0h0v0h0v0h0v-.06h0v0h0v0h0v0h0v-.06h0v0h0v0h0v0h0v0h0v0h0v0h0v0h0v0h0v0h0v0h0v0h0v0h0v0h0v0h0v0h0v0h0v0h0v0h0v0h0v0h0v0h0v0h0v0h0v0h0v0h0v0h0v0h0v0h0v0h0v0h0v0h0v0h0v0h0v0h0v0h0v0h0v0h0v0h0v0h0v0h0v0h0v0h0v-.05h0v0h0v0h0v0h0v0h0v0h0v0h0v0h0v0h0v0h0v0h0v0h0v0h0v0h0v0h0v0h0v0h0v0h0v0h0v0h0v0h0v0h0v0h0v0h0v0h0V200Zm0-34h-8v17h8V166Zm0-34h-8v17h8V132Zm0-34h-8v17h8V98Zm0-34h-8V81h8V64Zm-.12-34-8,.69c.06.7.09,1.42.09,2.13V47h8V32.84h0v0h0v0h0v0h0v0h0v0h0v0h0v0h0v0h0v0h0v0h0v0h0v0h0v0h0v0h0v0h0v0h0v0h0v0h0v0h0v0h0v0h0v0h0v-.05h0v0h0v-.08h0v0h0v0h0V31.5h0v0h0v0h0c0-.47,0-.94-.09-1.4ZM215.61,3.43l-3.41,7.24a24.78,24.78,0,0,1,9.72,8.19l6.55-4.6h0v0h0l0,0h0l0,0h0l0,0h0l0,0h0l0,0h0v0h0l0,0h0v0h0v0h0v0h0v0h0v0h0l0,0h0v0h0l0-.05h0l0,0h0l0-.05h0l0,0h0l0,0h0l0,0h0l0,0h0l0,0h0l0,0h0l0,0h0l0,0h0l0,0h0l0,0h0l0,0h0l-.06-.08h0l-.06-.08h0l-.06-.08h0l-.06-.08h0l0-.05h0l-.12-.16h0c-.06-.07-.11-.14-.17-.2h0a32.84,32.84,0,0,0-11.58-9.14Z"/></svg>