<svg xmlns="http://www.w3.org/2000/svg" viewBox="0 0 816 1110"><defs><style>.cls-1{fill:#fff;}.cls-2{font-size:161.53px;font-family:TimesNewRomanPSMT, Times New Roman;}.cls-2,.cls-3,.cls-4{fill:#231f20;}.cls-3{font-size:196.46px;}.cls-3,.cls-4{font-family:TimesNewRomanPS-ItalicMT, Times New Roman;font-style:italic;}.cls-4{font-size:78.58px;}</style></defs><g id="Card_Corners" data-name="Card Corners"><path class="cls-1" d="M740.89,1110H75.32a75.06,75.06,0,0,1-75.07-75L0,75.09A75.07,75.07,0,0,1,75.07,0L740.92.23a75.06,75.06,0,0,1,75,75.06v959.62A75.06,75.06,0,0,1,740.89,1110Z"/></g><g id="Black_s" data-name="Black #s"><text class="cls-2" transform="translate(85.8 189.52)">J</text><text class="cls-2" transform="translate(730.63 920.53) rotate(180)">J</text></g><g id="Spades"><path d="M121.2,297.34a5.09,5.09,0,0,0-.34,1.17c-.18,6.76,1.51,12.94,5.85,18.23a46.44,46.44,0,0,0,3.62,3.53,3.19,3.19,0,0,1,.68.75c.17.34.39.86.24,1.09s-.7.42-1.1.56a1.87,1.87,0,0,1-.67,0c-8,0-16,0-24,0a5.06,5.06,0,0,1-1.56-.53c.23-.55.31-1.25.71-1.62a30.09,30.09,0,0,0,6.65-8,28.42,28.42,0,0,0,3-13.93,5.2,5.2,0,0,0-.1-.78,3.45,3.45,0,0,0-.26-.5,5.27,5.27,0,0,0-.68,1,17.91,17.91,0,0,1-7.26,9,19.71,19.71,0,0,1-27.6-7.45,22.45,22.45,0,0,1-3-13.4,32.54,32.54,0,0,1,5-14.17,71.85,71.85,0,0,1,14.83-16.66,132.62,132.62,0,0,0,21.61-23.3,7.47,7.47,0,0,1,.62-.71,2.24,2.24,0,0,1,.54.41c7.13,10.1,16,18.58,25.22,26.69,6.13,5.36,11.26,11.64,14.34,19.25,3.37,8.34,3.3,16.61-2.38,24.12-3.95,5.23-9.25,8.31-15.92,8.1-8-.26-14-3.78-17.16-11.43-.16-.38-.34-.75-.52-1.12C121.6,297.59,121.51,297.56,121.2,297.34Z"/><path d="M694.8,812.66a5.09,5.09,0,0,0,.34-1.17c.18-6.76-1.51-12.94-5.85-18.23a46.44,46.44,0,0,0-3.62-3.53A3.19,3.19,0,0,1,685,789c-.17-.34-.39-.86-.24-1.09s.7-.42,1.1-.56a1.87,1.87,0,0,1,.67,0c8,0,16,0,24,0a5.06,5.06,0,0,1,1.56.53c-.23.55-.31,1.25-.71,1.62a30,30,0,0,0-6.65,8,28.36,28.36,0,0,0-3,13.92,5.2,5.2,0,0,0,.1.78,3.45,3.45,0,0,0,.26.5,5.27,5.27,0,0,0,.68-1,17.91,17.91,0,0,1,7.26-9,19.71,19.71,0,0,1,27.6,7.45,22.45,22.45,0,0,1,3,13.4,32.54,32.54,0,0,1-5,14.17,71.85,71.85,0,0,1-14.83,16.66,132.62,132.62,0,0,0-21.61,23.3,7.47,7.47,0,0,1-.62.71A2.24,2.24,0,0,1,698,878c-7.13-10.1-16-18.58-25.22-26.69-6.13-5.36-11.26-11.64-14.34-19.25-3.37-8.34-3.3-16.61,2.38-24.12,4-5.23,9.25-8.31,15.92-8.1,8,.26,14,3.78,17.16,11.43.16.38.34.75.52,1.12C694.4,812.41,694.49,812.44,694.8,812.66Z"/></g><g id="Black_Center" data-name="Black Center"><text class="cls-3" transform="translate(297.73 802.45)">18</text><text class="cls-4" transform="translate(380.64 575.48)">to</text><text class="cls-3" transform="translate(302.1 436.56)">10</text></g></svg>