<svg xmlns="http://www.w3.org/2000/svg" viewBox="0 0 816 1110"><defs><style>.cls-1{fill:#fff;}.cls-2{font-size:161.53px;font-family:TimesNewRomanPSMT, Times New Roman;}.cls-2,.cls-3,.cls-4{fill:#231f20;}.cls-3{font-size:196.46px;}.cls-3,.cls-4{font-family:TimesNewRomanPS-ItalicMT, Times New Roman;font-style:italic;}.cls-4{font-size:78.58px;}</style></defs><g id="Card_Corners" data-name="Card Corners"><path class="cls-1" d="M740.2,1110H74.63A75.06,75.06,0,0,1-.43,1035L-.71,75.11A75.07,75.07,0,0,1,74.39,0L740.23.25a75.07,75.07,0,0,1,75,75.07v959.61A75.07,75.07,0,0,1,740.2,1110Z"/></g><g id="Black_s" data-name="Black #s"><text class="cls-2" transform="translate(82.79 189.52)">K</text><text class="cls-2" transform="translate(733.63 920.53) rotate(180)">K</text></g><g id="Spades"><path d="M141.22,297.34a4.63,4.63,0,0,0-.34,1.17c-.19,6.76,1.5,12.94,5.85,18.23a44.74,44.74,0,0,0,3.62,3.53,3.14,3.14,0,0,1,.67.75c.17.34.39.86.25,1.09s-.71.42-1.1.56a1.87,1.87,0,0,1-.67,0c-8,0-16,0-24,0a5,5,0,0,1-1.55-.53c.23-.55.31-1.25.71-1.62a30.47,30.47,0,0,0,6.65-8,28.3,28.3,0,0,0,3-13.93,4.17,4.17,0,0,0-.1-.78c0-.1-.09-.19-.26-.5a5.69,5.69,0,0,0-.67,1,17.93,17.93,0,0,1-7.27,9,19.72,19.72,0,0,1-27.6-7.45,22.44,22.44,0,0,1-3-13.4,32.52,32.52,0,0,1,5-14.17,71.89,71.89,0,0,1,14.84-16.66,133.38,133.38,0,0,0,21.61-23.3,9,9,0,0,1,.61-.71,2.54,2.54,0,0,1,.55.41c7.13,10.1,16,18.58,25.22,26.69,6.13,5.36,11.26,11.64,14.33,19.25,3.38,8.34,3.31,16.61-2.37,24.12-4,5.23-9.26,8.31-15.92,8.1-8-.26-14-3.78-17.16-11.43-.16-.38-.34-.75-.52-1.12C141.62,297.59,141.53,297.56,141.22,297.34Z"/><path d="M674.78,812.66a4.63,4.63,0,0,0,.34-1.17c.19-6.76-1.5-12.94-5.85-18.23a44.74,44.74,0,0,0-3.62-3.53A3.14,3.14,0,0,1,665,789c-.17-.34-.39-.86-.25-1.09s.71-.42,1.1-.56a1.87,1.87,0,0,1,.67,0c8,0,16,0,24,0a5,5,0,0,1,1.55.53c-.23.55-.31,1.25-.71,1.62a30.36,30.36,0,0,0-6.65,8,28.24,28.24,0,0,0-3,13.92,4.17,4.17,0,0,0,.1.78c0,.1.09.19.26.5a5.69,5.69,0,0,0,.67-1,17.93,17.93,0,0,1,7.27-9,19.72,19.72,0,0,1,27.6,7.45,22.44,22.44,0,0,1,3,13.4,32.52,32.52,0,0,1-5,14.17,71.89,71.89,0,0,1-14.84,16.66,133.38,133.38,0,0,0-21.61,23.3,9,9,0,0,1-.61.71,2.54,2.54,0,0,1-.55-.41c-7.13-10.1-16-18.58-25.22-26.69-6.13-5.36-11.26-11.64-14.33-19.25-3.38-8.34-3.31-16.61,2.37-24.12,4-5.23,9.26-8.31,15.92-8.1,8,.26,14,3.78,17.16,11.43.16.38.34.75.52,1.12C674.38,812.41,674.47,812.44,674.78,812.66Z"/></g><g id="Black_Center" data-name="Black Center"><text class="cls-3" transform="translate(297.73 802.45)">18</text><text class="cls-4" transform="translate(380.64 575.48)">to</text><text class="cls-3" transform="translate(302.1 436.56)">10</text></g></svg>