<svg xmlns="http://www.w3.org/2000/svg" viewBox="0 0 816 1110"><defs><style>.cls-1{fill:#fff;}.cls-2{font-size:161.53px;font-family:TimesNewRomanPSMT, Times New Roman;}.cls-2,.cls-3,.cls-4{fill:#231f20;}.cls-3{font-size:196.46px;}.cls-3,.cls-4{font-family:TimesNewRomanPS-ItalicMT, Times New Roman;font-style:italic;}.cls-4{font-size:78.58px;}</style></defs><g id="Card_Corners" data-name="Card Corners"><path class="cls-1" d="M740.89,1110H75.32A75.07,75.07,0,0,1,.25,1035L0,75.11A75.06,75.06,0,0,1,75.07,0L740.92.25a75.08,75.08,0,0,1,75,75.07v959.61A75.07,75.07,0,0,1,740.89,1110Z"/></g><g id="Black_s" data-name="Black #s"><text class="cls-2" transform="translate(740.64 920.53) rotate(180)">Q</text><text class="cls-2" transform="translate(75.79 189.52)">Q</text></g><g id="Spades"><path d="M141.22,317.36a4.57,4.57,0,0,0-.34,1.16c-.19,6.76,1.5,13,5.85,18.23a44.85,44.85,0,0,0,3.62,3.54,2.92,2.92,0,0,1,.67.74c.17.34.39.87.25,1.1s-.71.42-1.1.56a2.14,2.14,0,0,1-.67,0c-8,0-16,0-24,0a5.28,5.28,0,0,1-1.55-.53c.23-.55.31-1.26.71-1.63a30.15,30.15,0,0,0,6.65-8,28.26,28.26,0,0,0,3-13.92,4.17,4.17,0,0,0-.1-.78c0-.11-.09-.2-.26-.51a6.11,6.11,0,0,0-.67,1,17.85,17.85,0,0,1-7.27,9,19.7,19.7,0,0,1-27.6-7.45,22.43,22.43,0,0,1-3-13.4,32.57,32.57,0,0,1,5-14.17,71.85,71.85,0,0,1,14.84-16.65,134.09,134.09,0,0,0,21.61-23.3c.17-.24.38-.45.61-.72a2.55,2.55,0,0,1,.55.42c7.13,10.1,16,18.58,25.22,26.68,6.13,5.37,11.26,11.64,14.33,19.25,3.38,8.35,3.31,16.61-2.37,24.12-4,5.24-9.26,8.32-15.92,8.1-8-.25-14-3.78-17.16-11.42-.16-.38-.34-.75-.52-1.12C141.62,317.61,141.53,317.58,141.22,317.36Z"/><path d="M674.78,792.64a4.57,4.57,0,0,0,.34-1.16c.19-6.76-1.5-13-5.85-18.23a44.85,44.85,0,0,0-3.62-3.54A2.92,2.92,0,0,1,665,769c-.17-.34-.39-.87-.25-1.1s.71-.42,1.1-.56a2.14,2.14,0,0,1,.67,0c8,0,16,0,24,0a5.28,5.28,0,0,1,1.55.53c-.23.55-.31,1.26-.71,1.63a30.15,30.15,0,0,0-6.65,8,28.26,28.26,0,0,0-3,13.92,4.17,4.17,0,0,0,.1.78c0,.11.09.2.26.51a6.11,6.11,0,0,0,.67-1,17.85,17.85,0,0,1,7.27-9,19.7,19.7,0,0,1,27.6,7.45,22.43,22.43,0,0,1,3,13.4,32.57,32.57,0,0,1-5,14.17,71.85,71.85,0,0,1-14.84,16.65,134.09,134.09,0,0,0-21.61,23.3c-.17.24-.38.45-.61.72a2.55,2.55,0,0,1-.55-.42c-7.13-10.1-16-18.58-25.22-26.68-6.13-5.37-11.26-11.64-14.33-19.25-3.38-8.35-3.31-16.61,2.37-24.12,4-5.24,9.26-8.32,15.92-8.1,8,.25,14,3.78,17.16,11.42.16.38.34.75.52,1.12C674.38,792.39,674.47,792.42,674.78,792.64Z"/></g><g id="Black_Center" data-name="Black Center"><text class="cls-3" transform="translate(297.73 802.45)">18</text><text class="cls-4" transform="translate(380.64 575.48)">to</text><text class="cls-3" transform="translate(302.1 436.56)">10</text></g></svg>