<svg xmlns="http://www.w3.org/2000/svg" viewBox="0 0 816 1110"><defs><style>.cls-1{fill:#fff;}.cls-2{font-size:161.53px;font-family:TimesNewRomanPSMT, Times New Roman;}.cls-2,.cls-3{fill:#ed1c24;}.cls-4,.cls-5,.cls-6,.cls-7{fill:none;stroke:#ed1c24;stroke-miterlimit:10;}.cls-4,.cls-7{stroke-width:1.26px;}.cls-4{stroke-dasharray:12.3 12.3;}.cls-5{stroke-width:0.39px;}.cls-6{stroke-width:1.25px;}</style></defs><g id="Card_Corners" data-name="Card Corners"><path class="cls-1" d="M740.89,1110H75.32A75.07,75.07,0,0,1,.25,1035L0,75.11A75.06,75.06,0,0,1,75.07,0L740.92.25a75.08,75.08,0,0,1,75,75.07v959.61A75.07,75.07,0,0,1,740.89,1110Z"/></g><g id="Red_s" data-name="Red #s"><text class="cls-2" transform="translate(79.78 189.49)">4</text><text class="cls-2" transform="translate(736.62 920.5) rotate(180)">4</text></g><g id="Diamonds"><polygon class="cls-3" points="112.38 235.16 145.9 284.12 112.38 333.08 79.88 284.12 112.38 235.16"/><polygon class="cls-3" points="704.63 876.57 671.11 827.61 704.63 778.65 737.12 827.61 704.63 876.57"/></g><g id="Red_Dashed_Dice" data-name="Red Dashed Dice"><rect class="cls-4" x="369.55" y="358.78" width="78.51" height="78.51" rx="10.9"/><rect class="cls-4" x="467.2" y="358.78" width="78.51" height="78.51" rx="10.9"/><rect class="cls-4" x="467.2" y="463.39" width="78.51" height="78.51" rx="10.9"/><rect class="cls-4" x="467.2" y="567.95" width="78.51" height="78.51" rx="10.9"/></g><g id="Red_Center" data-name="Red Center"><rect class="cls-5" x="272.28" y="358.93" width="78.31" height="78.31" rx="10.87"/><circle class="cls-3" cx="293.96" cy="417.9" r="9.96"/><circle class="cls-3" cx="293.96" cy="379.05" r="9.96"/><circle class="cls-3" cx="328.92" cy="417.9" r="9.96"/><circle class="cls-3" cx="328.92" cy="379.05" r="9.96"/><rect class="cls-6" x="272.28" y="358.93" width="78.31" height="78.31" rx="10.87"/><circle class="cls-3" cx="293.96" cy="417.9" r="9.96"/><circle class="cls-3" cx="293.96" cy="379.05" r="9.96"/><circle class="cls-3" cx="328.92" cy="417.9" r="9.96"/><circle class="cls-3" cx="328.92" cy="379.05" r="9.96"/><rect class="cls-7" x="369.65" y="567.95" width="78.51" height="78.51" rx="10.9"/><circle class="cls-3" cx="424.05" cy="621.96" r="9.98"/><circle class="cls-3" cx="393.76" cy="591.67" r="9.98"/><rect class="cls-7" x="272.28" y="567.95" width="78.51" height="78.51" rx="10.9" transform="translate(623.08 1214.41) rotate(180)"/><circle class="cls-3" cx="296.39" cy="592.45" r="9.98"/><circle class="cls-3" cx="326.69" cy="622.74" r="9.98"/><rect class="cls-7" x="369.55" y="463.34" width="78.51" height="78.51" rx="10.9"/><circle class="cls-3" cx="429.4" cy="522.7" r="9.98"/><circle class="cls-3" cx="388.22" cy="481.52" r="9.98"/><circle class="cls-3" cx="408.87" cy="502.18" r="9.98"/><rect class="cls-7" x="272.28" y="462.92" width="78.51" height="78.51" rx="10.9" transform="translate(623.08 1004.36) rotate(180)"/><circle class="cls-3" cx="311.54" cy="502.18" r="9.98"/><rect class="cls-7" x="272.18" y="672.56" width="78.51" height="78.51" rx="10.9" transform="translate(622.88 1423.64) rotate(180)"/><circle class="cls-3" cx="311.44" cy="711.82" r="9.98"/><rect class="cls-7" x="465.3" y="670.85" width="78.51" height="78.51" rx="10.9"/><circle class="cls-3" cx="519.71" cy="724.87" r="9.98"/><circle class="cls-3" cx="489.41" cy="694.57" r="9.98"/><rect class="cls-7" x="369.65" y="672.56" width="78.51" height="78.51" rx="10.9" transform="translate(817.81 1423.64) rotate(180)"/><circle class="cls-3" cx="408.91" cy="711.82" r="9.98"/></g></svg>