<svg xmlns="http://www.w3.org/2000/svg" viewBox="0 0 816 1110"><defs><style>.cls-1{fill:#fff;}.cls-2{font-size:161.53px;font-family:TimesNewRomanPSMT, Times New Roman;}.cls-2,.cls-3{fill:#ed1c24;}.cls-4,.cls-5,.cls-6,.cls-7{fill:none;stroke:#ed1c24;stroke-miterlimit:10;}.cls-4,.cls-5{stroke-width:1.26px;}.cls-4{stroke-dasharray:12.3 12.3;}.cls-6{stroke-width:1.25px;}.cls-7{stroke-width:0.39px;}</style></defs><g id="Card_Corners" data-name="Card Corners"><path class="cls-1" d="M740.93,1110H75.36A75.07,75.07,0,0,1,.29,1035L0,75.11A75.06,75.06,0,0,1,75.11,0L741,.25a75.07,75.07,0,0,1,75,75.07v959.61A75.07,75.07,0,0,1,740.93,1110Z"/></g><g id="Red_s" data-name="Red #s"><text class="cls-2" transform="translate(71.78 189.49)">9</text><text class="cls-2" transform="translate(744.63 920.5) rotate(180)">9</text></g><g id="Diamonds"><polygon class="cls-3" points="112.08 233.18 145.6 282.13 112.08 331.1 79.58 282.13 112.08 233.18"/><polygon class="cls-3" points="704.33 874.59 670.81 825.63 704.33 776.67 736.82 825.63 704.33 874.59"/></g><g id="Red_Dashed_Dice" data-name="Red Dashed Dice"><rect class="cls-4" x="466.11" y="148.35" width="78.51" height="78.51" rx="10.9"/><rect class="cls-4" x="466.11" y="252.24" width="78.51" height="78.51" rx="10.9"/></g><g id="Red_Center" data-name="Red Center"><rect class="cls-5" x="368.74" y="359.03" width="78.51" height="78.51" rx="10.9"/><circle class="cls-3" cx="423.15" cy="413.05" r="9.98"/><circle class="cls-3" cx="392.85" cy="382.75" r="9.98"/><rect class="cls-5" x="271.37" y="463.65" width="78.51" height="78.51" rx="10.9" transform="translate(621.26 1005.8) rotate(180)"/><circle class="cls-3" cx="310.63" cy="502.9" r="9.98"/><rect class="cls-5" x="271.37" y="672.45" width="78.51" height="78.51" rx="10.9" transform="translate(621.26 1423.42) rotate(180)"/><circle class="cls-3" cx="295.48" cy="696.95" r="9.98"/><circle class="cls-3" cx="325.78" cy="727.25" r="9.98"/><rect class="cls-5" x="466.11" y="881.68" width="78.51" height="78.51" rx="10.9"/><circle class="cls-3" cx="525.96" cy="941.04" r="9.98"/><circle class="cls-3" cx="484.78" cy="899.86" r="9.98"/><circle class="cls-3" cx="505.43" cy="920.52" r="9.98"/><rect class="cls-5" x="368.74" y="672.87" width="78.51" height="78.51" rx="10.9"/><circle class="cls-3" cx="423.15" cy="726.88" r="9.98"/><circle class="cls-3" cx="392.85" cy="696.59" r="9.98"/><rect class="cls-5" x="271.37" y="149.81" width="78.51" height="78.51" rx="10.9"/><circle class="cls-3" cx="331.22" cy="209.18" r="9.98"/><circle class="cls-3" cx="290.04" cy="168" r="9.98"/><circle class="cls-3" cx="310.7" cy="188.65" r="9.98"/><rect class="cls-6" x="368.84" y="150.01" width="78.31" height="78.31" rx="10.87"/><circle class="cls-3" cx="392.51" cy="164.26" r="9.96"/><circle class="cls-3" cx="392.51" cy="213.11" r="9.96"/><circle class="cls-3" cx="392.51" cy="188.63" r="9.96"/><circle class="cls-3" cx="423.59" cy="164.26" r="9.96"/><circle class="cls-3" cx="423.59" cy="213.11" r="9.96"/><circle class="cls-3" cx="423.59" cy="188.63" r="9.96"/><rect class="cls-7" x="271.54" y="254.52" width="78.31" height="78.31" rx="10.87"/><circle class="cls-3" cx="293.21" cy="313.49" r="9.96"/><circle class="cls-3" cx="293.21" cy="274.64" r="9.96"/><circle class="cls-3" cx="328.18" cy="313.49" r="9.96"/><circle class="cls-3" cx="328.18" cy="274.64" r="9.96"/><rect class="cls-6" x="271.54" y="254.52" width="78.31" height="78.31" rx="10.87"/><circle class="cls-3" cx="293.21" cy="313.49" r="9.96"/><circle class="cls-3" cx="293.21" cy="274.64" r="9.96"/><circle class="cls-3" cx="328.18" cy="313.49" r="9.96"/><circle class="cls-3" cx="328.18" cy="274.64" r="9.96"/><rect class="cls-6" x="368.84" y="254.52" width="78.31" height="78.31" rx="10.87"/><circle class="cls-3" cx="428.54" cy="313.74" r="9.96"/><circle class="cls-3" cx="387.46" cy="272.66" r="9.96"/><circle class="cls-3" cx="408.07" cy="293.26" r="9.96"/><circle class="cls-3" cx="387.46" cy="313.74" r="9.96"/><circle class="cls-3" cx="428.54" cy="272.66" r="9.96"/><rect class="cls-5" x="271.37" y="359.03" width="78.51" height="78.51" rx="10.9" transform="translate(621.26 796.58) rotate(180)"/><circle class="cls-3" cx="310.63" cy="398.29" r="9.98"/><rect class="cls-5" x="271.37" y="568.26" width="78.51" height="78.51" rx="10.9" transform="translate(621.26 1215.03) rotate(180)"/><circle class="cls-3" cx="310.63" cy="607.51" r="9.98"/><rect class="cls-6" x="466.21" y="359.23" width="78.31" height="78.31" rx="10.87"/><circle class="cls-3" cx="489.88" cy="373.49" r="9.96"/><circle class="cls-3" cx="489.88" cy="422.33" r="9.96"/><circle class="cls-3" cx="489.88" cy="397.86" r="9.96"/><circle class="cls-3" cx="520.96" cy="373.49" r="9.96"/><circle class="cls-3" cx="520.96" cy="422.33" r="9.96"/><circle class="cls-3" cx="520.96" cy="397.86" r="9.96"/><rect class="cls-5" x="368.74" y="463.65" width="78.51" height="78.51" rx="10.9"/><circle class="cls-3" cx="428.59" cy="523.01" r="9.98"/><circle class="cls-3" cx="387.41" cy="481.83" r="9.98"/><circle class="cls-3" cx="408.07" cy="502.49" r="9.98"/><rect class="cls-6" x="466.28" y="463.75" width="78.31" height="78.31" rx="10.87"/><circle class="cls-3" cx="525.97" cy="522.96" r="9.96"/><circle class="cls-3" cx="484.9" cy="481.88" r="9.96"/><circle class="cls-3" cx="505.5" cy="502.49" r="9.96"/><circle class="cls-3" cx="484.9" cy="522.96" r="9.96"/><circle class="cls-3" cx="525.97" cy="481.88" r="9.96"/><rect class="cls-7" x="368.91" y="568.36" width="78.31" height="78.31" rx="10.87"/><circle class="cls-3" cx="390.58" cy="627.33" r="9.96"/><circle class="cls-3" cx="390.58" cy="588.48" r="9.96"/><circle class="cls-3" cx="425.55" cy="627.33" r="9.96"/><circle class="cls-3" cx="425.55" cy="588.48" r="9.96"/><rect class="cls-6" x="368.91" y="568.36" width="78.31" height="78.31" rx="10.87"/><circle class="cls-3" cx="390.58" cy="627.33" r="9.96"/><circle class="cls-3" cx="390.58" cy="588.48" r="9.96"/><circle class="cls-3" cx="425.55" cy="627.33" r="9.96"/><circle class="cls-3" cx="425.55" cy="588.48" r="9.96"/><rect class="cls-7" x="466.21" y="568.31" width="78.31" height="78.31" rx="10.87"/><circle class="cls-3" cx="487.89" cy="627.28" r="9.96"/><circle class="cls-3" cx="487.89" cy="588.43" r="9.96"/><circle class="cls-3" cx="522.85" cy="627.28" r="9.96"/><circle class="cls-3" cx="522.85" cy="588.43" r="9.96"/><rect class="cls-6" x="466.21" y="568.31" width="78.31" height="78.31" rx="10.87"/><circle class="cls-3" cx="487.89" cy="627.28" r="9.96"/><circle class="cls-3" cx="487.89" cy="588.43" r="9.96"/><circle class="cls-3" cx="522.85" cy="627.28" r="9.96"/><circle class="cls-3" cx="522.85" cy="588.43" r="9.96"/><rect class="cls-6" x="466.23" y="672.95" width="78.31" height="78.31" rx="10.87"/><circle class="cls-3" cx="525.93" cy="732.16" r="9.96"/><circle class="cls-3" cx="484.85" cy="691.09" r="9.96"/><circle class="cls-3" cx="505.45" cy="711.69" r="9.96"/><circle class="cls-3" cx="484.85" cy="732.16" r="9.96"/><circle class="cls-3" cx="525.93" cy="691.09" r="9.96"/><rect class="cls-5" x="271.37" y="777.07" width="78.51" height="78.51" rx="10.9"/><circle class="cls-3" cx="325.78" cy="831.08" r="9.98"/><circle class="cls-3" cx="295.48" cy="800.78" r="9.98"/><rect class="cls-5" x="368.74" y="777.07" width="78.51" height="78.51" rx="10.9"/><circle class="cls-3" cx="428.59" cy="836.43" r="9.98"/><circle class="cls-3" cx="387.41" cy="795.25" r="9.98"/><circle class="cls-3" cx="408.07" cy="815.9" r="9.98"/><rect class="cls-7" x="466.21" y="776.75" width="78.31" height="78.31" rx="10.87"/><circle class="cls-3" cx="487.89" cy="835.72" r="9.96"/><circle class="cls-3" cx="487.89" cy="796.87" r="9.96"/><circle class="cls-3" cx="522.85" cy="835.72" r="9.96"/><circle class="cls-3" cx="522.85" cy="796.87" r="9.96"/><rect class="cls-6" x="466.21" y="776.75" width="78.31" height="78.31" rx="10.87"/><circle class="cls-3" cx="487.89" cy="835.72" r="9.96"/><circle class="cls-3" cx="487.89" cy="796.87" r="9.96"/><circle class="cls-3" cx="522.85" cy="835.72" r="9.96"/><circle class="cls-3" cx="522.85" cy="796.87" r="9.96"/><rect class="cls-5" x="368.81" y="881.68" width="78.51" height="78.51" rx="10.9"/><circle class="cls-3" cx="428.66" cy="941.04" r="9.98"/><circle class="cls-3" cx="387.48" cy="899.86" r="9.98"/><circle class="cls-3" cx="408.13" cy="920.52" r="9.98"/><rect class="cls-5" x="271.37" y="881.26" width="78.51" height="78.51" rx="10.9"/><circle class="cls-3" cx="331.22" cy="940.62" r="9.98"/><circle class="cls-3" cx="290.04" cy="899.44" r="9.98"/><circle class="cls-3" cx="310.7" cy="920.1" r="9.98"/></g></svg>