<svg xmlns="http://www.w3.org/2000/svg" viewBox="0 0 816 1110"><defs><style>.cls-1{fill:#fff;}.cls-2{font-size:161.53px;font-family:TimesNewRomanPSMT, Times New Roman;letter-spacing:-0.06em;}.cls-2,.cls-3,.cls-5,.cls-7{fill:#ed1c24;}.cls-4{fill:none;stroke:#ed1c24;stroke-miterlimit:10;stroke-width:1.26px;}.cls-5{font-size:196.46px;}.cls-5,.cls-7{font-family:TimesNewRomanPS-ItalicMT, Times New Roman;font-style:italic;}.cls-6{letter-spacing:-0.07em;}.cls-7{font-size:78.58px;}</style></defs><g id="Card_Corners" data-name="Card Corners"><path class="cls-1" d="M740.23,1110H74.65A75.06,75.06,0,0,1-.41,1035L-.69,75.11A75.07,75.07,0,0,1,74.41,0L740.25.25a75.07,75.07,0,0,1,75,75.07v959.61A75.07,75.07,0,0,1,740.23,1110Z"/></g><g id="Red_s" data-name="Red #s"><text class="cls-2" transform="translate(80.78 189.49)">A</text><text class="cls-2" transform="translate(736.62 920.51) rotate(180)">A</text></g><g id="Diamonds"><polygon class="cls-3" points="132.1 234.29 165.62 283.25 132.1 332.21 99.6 283.25 132.1 234.29"/><polygon class="cls-3" points="684.31 875.71 650.79 826.75 684.31 777.78 716.81 826.75 684.31 875.71"/></g><g id="Red_Center" data-name="Red Center"><rect class="cls-4" x="376.41" y="328.15" width="78.51" height="78.51" rx="10.9" transform="translate(831.33 734.82) rotate(180)"/><circle class="cls-3" cx="415.66" cy="367.41" r="9.98"/><text class="cls-5" transform="translate(308.9 724.45)"><tspan class="cls-6">1</tspan><tspan x="83.65" y="0">1</tspan></text><text class="cls-7" transform="translate(383.27 517.92)">or</text></g></svg>