<svg xmlns="http://www.w3.org/2000/svg" viewBox="0 0 816 1110"><defs><style>.cls-1{fill:#fff;}.cls-2{font-size:161.53px;font-family:TimesNewRomanPSMT, Times New Roman;}.cls-2,.cls-3,.cls-4,.cls-5{fill:#ed1c24;}.cls-4{font-size:196.46px;}.cls-4,.cls-5{font-family:TimesNewRomanPS-ItalicMT, Times New Roman;font-style:italic;}.cls-5{font-size:78.58px;}</style></defs><g id="Card_Corners" data-name="Card Corners"><path class="cls-1" d="M740.2,1110H74.63A75.06,75.06,0,0,1-.43,1035L-.71,75.11A75.07,75.07,0,0,1,74.39,0L740.23.25a75.07,75.07,0,0,1,75,75.07v959.61A75.07,75.07,0,0,1,740.2,1110Z"/></g><g id="Red_s" data-name="Red #s"><text class="cls-2" transform="translate(82.79 189.52)">K</text><text class="cls-2" transform="translate(733.63 920.53) rotate(180)">K</text></g><g id="Diamonds"><polygon class="cls-3" points="132.1 234.29 165.62 283.25 132.1 332.21 99.6 283.25 132.1 234.29"/><polygon class="cls-3" points="684.31 875.71 650.79 826.75 684.31 777.78 716.81 826.75 684.31 875.71"/></g><g id="Red_Center" data-name="Red Center"><text class="cls-4" transform="translate(297.73 802.45)">18</text><text class="cls-5" transform="translate(380.64 575.48)">to</text><text class="cls-4" transform="translate(302.1 436.56)">10</text></g></svg>