<svg xmlns="http://www.w3.org/2000/svg" viewBox="0 0 816 1110"><defs><style>.cls-1{fill:#fff;}.cls-2{font-size:161.53px;font-family:TimesNewRomanPSMT, Times New Roman;}.cls-2,.cls-3,.cls-4,.cls-5{fill:#ed1c24;}.cls-4{font-size:196.46px;}.cls-4,.cls-5{font-family:TimesNewRomanPS-ItalicMT, Times New Roman;font-style:italic;}.cls-5{font-size:78.58px;}</style></defs><g id="Card_Corners" data-name="Card Corners"><path class="cls-1" d="M740.89,1110H75.32A75.07,75.07,0,0,1,.25,1035L0,75.11A75.06,75.06,0,0,1,75.07,0L740.92.25a75.08,75.08,0,0,1,75,75.07v959.61A75.07,75.07,0,0,1,740.89,1110Z"/></g><g id="Red_s" data-name="Red #s"><text class="cls-2" transform="translate(740.64 920.53) rotate(180)">Q</text><text class="cls-2" transform="translate(75.79 189.52)">Q</text></g><g id="Diamonds"><polygon class="cls-3" points="132.4 255.18 165.91 304.14 132.4 353.1 99.9 304.14 132.4 255.18"/><polygon class="cls-3" points="684.61 856.55 651.09 807.59 684.61 758.63 717.11 807.59 684.61 856.55"/></g><g id="Red_Center" data-name="Red Center"><text class="cls-4" transform="translate(297.73 802.45)">18</text><text class="cls-5" transform="translate(380.64 575.48)">to</text><text class="cls-4" transform="translate(302.1 436.56)">10</text></g></svg>