<svg xmlns="http://www.w3.org/2000/svg" viewBox="0 0 816 1110"><defs><style>.cls-1{fill:#fff;}.cls-2{font-size:161.53px;font-family:TimesNewRomanPSMT, Times New Roman;}.cls-2,.cls-3{fill:#ed1c24;}.cls-4,.cls-5{fill:none;stroke:#ed1c24;stroke-miterlimit:10;stroke-width:1.26px;}.cls-4{stroke-dasharray:12.3 12.3;}</style></defs><g id="Card_Corners" data-name="Card Corners"><path class="cls-1" d="M740.89,1110H75.32a75.06,75.06,0,0,1-75.07-75L0,75.09A75.07,75.07,0,0,1,75.07,0L740.92.23a75.06,75.06,0,0,1,75,75.06v959.62A75.06,75.06,0,0,1,740.89,1110Z"/></g><g id="Red_s" data-name="Red #s"><text class="cls-2" transform="translate(79.78 189.49)">3</text><text class="cls-2" transform="translate(736.62 920.5) rotate(180)">3</text></g><g id="Hearts"><path class="cls-3" d="M152,250.83c-19.93-14.82-32.28,5-34.37,8.78-2.1-3.76-14.45-23.6-34.38-8.78-6.65,4.94-17.44,26.63,6.57,46.5,5.76,4.78,17.75,13.09,24,19.35a28.35,28.35,0,0,1,3.59,4.11c.08.1.14.21.22.32a3.53,3.53,0,0,1,.21-.32,28.5,28.5,0,0,1,3.6-4.12c6.26-6.25,18.23-14.57,24-19.34C169.41,277.46,158.62,255.77,152,250.83Z"/><path class="cls-3" d="M664,859.17c19.93,14.82,32.28-5,34.37-8.78,2.1,3.76,14.45,23.6,34.38,8.78,6.65-4.94,17.44-26.63-6.57-46.5-5.76-4.78-17.75-13.09-24-19.35a28.35,28.35,0,0,1-3.59-4.11c-.08-.1-.14-.21-.22-.32a3.53,3.53,0,0,1-.21.32,28.5,28.5,0,0,1-3.6,4.12c-6.26,6.25-18.23,14.57-24,19.34C646.59,832.54,657.38,854.23,664,859.17Z"/></g><g id="Red_Dashed_Dice" data-name="Red Dashed Dice"><rect class="cls-4" x="368.84" y="411.13" width="78.51" height="78.51" rx="10.9"/><rect class="cls-4" x="466.49" y="411.13" width="78.51" height="78.51" rx="10.9"/><rect class="cls-4" x="466.49" y="515.74" width="78.51" height="78.51" rx="10.9"/></g><g id="Red_Center" data-name="Red Center"><rect class="cls-5" x="271.41" y="515.74" width="78.51" height="78.51" rx="10.9" transform="translate(621.33 1110) rotate(180)"/><circle class="cls-3" cx="310.66" cy="555" r="9.98"/><rect class="cls-5" x="271.34" y="411.55" width="78.51" height="78.51" rx="10.9"/><circle class="cls-3" cx="331.19" cy="470.91" r="9.98"/><circle class="cls-3" cx="290.01" cy="429.73" r="9.98"/><circle class="cls-3" cx="310.66" cy="450.39" r="9.98"/><rect class="cls-5" x="368.71" y="619.94" width="78.51" height="78.51" rx="10.9" transform="translate(815.93 1318.39) rotate(180)"/><circle class="cls-3" cx="407.97" cy="659.2" r="9.98"/><rect class="cls-5" x="271.34" y="619.94" width="78.51" height="78.51" rx="10.9" transform="translate(621.2 1318.39) rotate(180)"/><circle class="cls-3" cx="310.6" cy="659.2" r="9.98"/><rect class="cls-5" x="466.15" y="619.94" width="78.51" height="78.51" rx="10.9" transform="translate(1010.8 1318.39) rotate(180)"/><circle class="cls-3" cx="505.4" cy="659.2" r="9.98"/><rect class="cls-5" x="368.71" y="515.74" width="78.51" height="78.51" rx="10.9"/><circle class="cls-3" cx="423.11" cy="569.76" r="9.98"/><circle class="cls-3" cx="392.82" cy="539.46" r="9.98"/></g></svg>