<svg xmlns="http://www.w3.org/2000/svg" viewBox="0 0 816 1110"><defs><style>.cls-1{fill:#fff;}.cls-2{font-size:161.53px;font-family:TimesNewRomanPSMT, Times New Roman;}.cls-2,.cls-3{fill:#ed1c24;}.cls-4,.cls-5,.cls-6,.cls-7{fill:none;stroke:#ed1c24;stroke-miterlimit:10;}.cls-4,.cls-5{stroke-width:1.26px;}.cls-4{stroke-dasharray:12.3 12.3;}.cls-6{stroke-width:1.25px;}.cls-7{stroke-width:0.39px;}</style></defs><g id="Card_Corners" data-name="Card Corners"><path class="cls-1" d="M740.2,1110H74.63A75.06,75.06,0,0,1-.43,1035L-.71,75.11A75.07,75.07,0,0,1,74.39,0L740.23.25a75.07,75.07,0,0,1,75,75.07v959.61A75.07,75.07,0,0,1,740.2,1110Z"/></g><g id="Red_s" data-name="Red #s"><text class="cls-2" transform="translate(72.78 189.49)">5</text><text class="cls-2" transform="translate(743.63 920.5) rotate(180)">5</text></g><g id="Hearts"><path class="cls-3" d="M152,250.83c-19.93-14.82-32.28,5-34.37,8.78-2.1-3.76-14.45-23.6-34.38-8.78-6.65,4.94-17.44,26.63,6.57,46.5,5.76,4.78,17.75,13.09,24,19.35a28.35,28.35,0,0,1,3.59,4.11c.08.1.14.21.22.32a3.53,3.53,0,0,1,.21-.32,28.5,28.5,0,0,1,3.6-4.12c6.26-6.25,18.23-14.57,24-19.34C169.41,277.46,158.62,255.77,152,250.83Z"/><path class="cls-3" d="M664,859.17c19.93,14.82,32.28-5,34.37-8.78,2.1,3.76,14.45,23.6,34.38,8.78,6.65-4.94,17.44-26.63-6.57-46.5-5.76-4.78-17.75-13.09-24-19.35a28.35,28.35,0,0,1-3.59-4.11c-.08-.1-.14-.21-.22-.32a3.53,3.53,0,0,1-.21.32,28.5,28.5,0,0,1-3.6,4.12c-6.26,6.25-18.23,14.57-24,19.34C646.59,832.54,657.38,854.23,664,859.17Z"/></g><g id="Red_Dashed_Dice" data-name="Red Dashed Dice"><rect class="cls-4" x="368.71" y="306.5" width="78.51" height="78.51" rx="10.9"/><rect class="cls-4" x="466.36" y="306.5" width="78.51" height="78.51" rx="10.9"/><rect class="cls-4" x="466.36" y="411.11" width="78.51" height="78.51" rx="10.9"/><rect class="cls-4" x="466.36" y="515.67" width="78.51" height="78.51" rx="10.9"/></g><g id="Red_Center" data-name="Red Center"><rect class="cls-5" x="271.41" y="515.28" width="78.51" height="78.51" rx="10.9" transform="translate(621.33 1109.07) rotate(180)"/><circle class="cls-3" cx="295.52" cy="539.78" r="9.98"/><circle class="cls-3" cx="325.81" cy="570.07" r="9.98"/><rect class="cls-5" x="466.08" y="620.31" width="78.51" height="78.51" rx="10.9"/><circle class="cls-3" cx="525.93" cy="679.67" r="9.98"/><circle class="cls-3" cx="484.75" cy="638.49" r="9.98"/><circle class="cls-3" cx="505.4" cy="659.15" r="9.98"/><rect class="cls-5" x="368.71" y="724.92" width="78.51" height="78.51" rx="10.9"/><circle class="cls-3" cx="423.11" cy="778.93" r="9.98"/><circle class="cls-3" cx="392.82" cy="748.64" r="9.98"/><rect class="cls-6" x="271.44" y="306.57" width="78.31" height="78.31" rx="10.87"/><circle class="cls-3" cx="331.14" cy="365.78" r="9.96"/><circle class="cls-3" cx="290.06" cy="324.71" r="9.96"/><circle class="cls-3" cx="310.66" cy="345.31" r="9.96"/><circle class="cls-3" cx="290.06" cy="365.78" r="9.96"/><circle class="cls-3" cx="331.14" cy="324.71" r="9.96"/><rect class="cls-5" x="368.71" y="515.69" width="78.51" height="78.51" rx="10.9"/><circle class="cls-3" cx="428.56" cy="575.06" r="9.98"/><circle class="cls-3" cx="387.38" cy="533.88" r="9.98"/><circle class="cls-3" cx="408.03" cy="554.53" r="9.98"/><rect class="cls-5" x="271.34" y="411.08" width="78.51" height="78.51" rx="10.9" transform="translate(621.2 900.68) rotate(180)"/><circle class="cls-3" cx="310.6" cy="450.34" r="9.98"/><rect class="cls-7" x="368.81" y="411.18" width="78.31" height="78.31" rx="10.87"/><circle class="cls-3" cx="390.49" cy="470.15" r="9.96"/><circle class="cls-3" cx="390.49" cy="431.3" r="9.96"/><circle class="cls-3" cx="425.45" cy="470.15" r="9.96"/><circle class="cls-3" cx="425.45" cy="431.3" r="9.96"/><rect class="cls-6" x="368.81" y="411.18" width="78.31" height="78.31" rx="10.87"/><circle class="cls-3" cx="390.49" cy="470.15" r="9.96"/><circle class="cls-3" cx="390.49" cy="431.3" r="9.96"/><circle class="cls-3" cx="425.45" cy="470.15" r="9.96"/><circle class="cls-3" cx="425.45" cy="431.3" r="9.96"/><rect class="cls-5" x="271.41" y="620.31" width="78.51" height="78.51" rx="10.9" transform="translate(621.33 1319.12) rotate(180)"/><circle class="cls-3" cx="310.66" cy="659.56" r="9.98"/><rect class="cls-5" x="368.71" y="619.89" width="78.51" height="78.51" rx="10.9" transform="translate(815.93 1318.29) rotate(180)"/><circle class="cls-3" cx="407.97" cy="659.15" r="9.98"/><rect class="cls-5" x="271.34" y="724.5" width="78.51" height="78.51" rx="10.9" transform="translate(621.2 1527.51) rotate(180)"/><circle class="cls-3" cx="310.6" cy="763.76" r="9.98"/><rect class="cls-5" x="466.15" y="724.92" width="78.51" height="78.51" rx="10.9"/><circle class="cls-3" cx="520.55" cy="778.93" r="9.98"/><circle class="cls-3" cx="490.25" cy="748.64" r="9.98"/></g></svg>