<svg xmlns="http://www.w3.org/2000/svg" viewBox="0 0 816 1110"><defs><style>.cls-1{fill:#fff;}.cls-2{font-size:161.53px;font-family:TimesNewRomanPSMT, Times New Roman;}.cls-2,.cls-3{fill:#ed1c24;}.cls-4,.cls-5,.cls-6,.cls-7{fill:none;stroke:#ed1c24;stroke-miterlimit:10;}.cls-4,.cls-5{stroke-width:1.26px;}.cls-4{stroke-dasharray:12.3 12.3;}.cls-6{stroke-width:1.25px;}.cls-7{stroke-width:0.39px;}</style></defs><g id="Card_Corners" data-name="Card Corners"><path class="cls-1" d="M740.93,1110H75.36a75.06,75.06,0,0,1-75.07-75L0,75.09A75.07,75.07,0,0,1,75.11,0L741,.23a75.06,75.06,0,0,1,75,75.06v959.62A75.06,75.06,0,0,1,740.93,1110Z"/></g><g id="Red_s" data-name="Red #s"><text class="cls-2" transform="translate(69.77 189.49)">6</text><text class="cls-2" transform="translate(746.63 920.5) rotate(180)">6</text></g><g id="Hearts"><path class="cls-3" d="M152,250.83c-19.93-14.82-32.28,5-34.37,8.78-2.1-3.76-14.45-23.6-34.38-8.78-6.65,4.94-17.44,26.63,6.57,46.5,5.76,4.78,17.75,13.09,24,19.35a28.35,28.35,0,0,1,3.59,4.11c.08.1.14.21.22.32a3.53,3.53,0,0,1,.21-.32,28.5,28.5,0,0,1,3.6-4.12c6.26-6.25,18.23-14.57,24-19.34C169.41,277.46,158.62,255.77,152,250.83Z"/><path class="cls-3" d="M664,859.17c19.93,14.82,32.28-5,34.37-8.78,2.1,3.76,14.45,23.6,34.38,8.78,6.65-4.94,17.44-26.63-6.57-46.5-5.76-4.78-17.75-13.09-24-19.35a28.35,28.35,0,0,1-3.59-4.11c-.08-.1-.14-.21-.22-.32a3.53,3.53,0,0,1-.21.32,28.5,28.5,0,0,1-3.6,4.12c-6.26,6.25-18.23,14.57-24,19.34C646.59,832.54,657.38,854.23,664,859.17Z"/></g><g id="Red_Dashed_Dice" data-name="Red Dashed Dice"><rect class="cls-4" x="368.71" y="202.12" width="78.51" height="78.51" rx="10.9"/><rect class="cls-4" x="466.36" y="202.12" width="78.51" height="78.51" rx="10.9"/><rect class="cls-4" x="466.36" y="306.01" width="78.51" height="78.51" rx="10.9"/><rect class="cls-4" x="466.36" y="409.9" width="78.51" height="78.51" rx="10.9"/><rect class="cls-4" x="466.36" y="513.78" width="78.51" height="78.51" rx="10.9"/></g><g id="Red_Center" data-name="Red Center"><rect class="cls-5" x="271.23" y="306.42" width="78.51" height="78.51" rx="10.9" transform="translate(620.98 691.36) rotate(180)"/><circle class="cls-3" cx="310.49" cy="345.68" r="9.98"/><rect class="cls-5" x="271.23" y="411.03" width="78.51" height="78.51" rx="10.9" transform="translate(620.98 900.58) rotate(180)"/><circle class="cls-3" cx="295.34" cy="435.53" r="9.98"/><circle class="cls-3" cx="325.64" cy="465.83" r="9.98"/><rect class="cls-5" x="368.6" y="829.48" width="78.51" height="78.51" rx="10.9"/><circle class="cls-3" cx="423.01" cy="883.49" r="9.98"/><circle class="cls-3" cx="392.71" cy="853.2" r="9.98"/><rect class="cls-5" x="368.6" y="724.87" width="78.51" height="78.51" rx="10.9"/><circle class="cls-3" cx="423.01" cy="778.88" r="9.98"/><circle class="cls-3" cx="392.71" cy="748.59" r="9.98"/><rect class="cls-5" x="465.97" y="724.87" width="78.51" height="78.51" rx="10.9"/><circle class="cls-3" cx="525.82" cy="784.23" r="9.98"/><circle class="cls-3" cx="484.64" cy="743.05" r="9.98"/><circle class="cls-3" cx="505.29" cy="763.71" r="9.98"/><rect class="cls-6" x="271.33" y="202.01" width="78.31" height="78.31" rx="10.87"/><circle class="cls-3" cx="295" cy="216.26" r="9.96"/><circle class="cls-3" cx="295" cy="265.11" r="9.96"/><circle class="cls-3" cx="295" cy="240.63" r="9.96"/><circle class="cls-3" cx="326.08" cy="216.26" r="9.96"/><circle class="cls-3" cx="326.08" cy="265.11" r="9.96"/><circle class="cls-3" cx="326.08" cy="240.63" r="9.96"/><rect class="cls-6" x="368.98" y="306.52" width="78.31" height="78.31" rx="10.87"/><circle class="cls-3" cx="428.68" cy="365.74" r="9.96"/><circle class="cls-3" cx="387.6" cy="324.66" r="9.96"/><circle class="cls-3" cx="408.2" cy="345.26" r="9.96"/><circle class="cls-3" cx="387.6" cy="365.74" r="9.96"/><circle class="cls-3" cx="428.68" cy="324.66" r="9.96"/><rect class="cls-7" x="368.7" y="411.08" width="78.31" height="78.31" rx="10.87"/><circle class="cls-3" cx="390.38" cy="470.05" r="9.96"/><circle class="cls-3" cx="390.38" cy="431.2" r="9.96"/><circle class="cls-3" cx="425.34" cy="470.05" r="9.96"/><circle class="cls-3" cx="425.34" cy="431.2" r="9.96"/><rect class="cls-6" x="368.7" y="411.08" width="78.31" height="78.31" rx="10.87"/><circle class="cls-3" cx="390.38" cy="470.05" r="9.96"/><circle class="cls-3" cx="390.38" cy="431.2" r="9.96"/><circle class="cls-3" cx="425.34" cy="470.05" r="9.96"/><circle class="cls-3" cx="425.34" cy="431.2" r="9.96"/><rect class="cls-5" x="271.23" y="515.65" width="78.51" height="78.51" rx="10.9"/><circle class="cls-3" cx="331.08" cy="575.01" r="9.98"/><circle class="cls-3" cx="289.9" cy="533.83" r="9.98"/><circle class="cls-3" cx="310.56" cy="554.48" r="9.98"/><rect class="cls-5" x="368.6" y="515.65" width="78.51" height="78.51" rx="10.9"/><circle class="cls-3" cx="428.45" cy="575.01" r="9.98"/><circle class="cls-3" cx="387.27" cy="533.83" r="9.98"/><circle class="cls-3" cx="407.93" cy="554.48" r="9.98"/><rect class="cls-5" x="271.3" y="620.26" width="78.51" height="78.51" rx="10.9" transform="translate(621.11 1319.03) rotate(180)"/><circle class="cls-3" cx="310.56" cy="659.51" r="9.98"/><rect class="cls-5" x="368.6" y="620.26" width="78.51" height="78.51" rx="10.9" transform="translate(815.72 1319.03) rotate(180)"/><circle class="cls-3" cx="407.86" cy="659.51" r="9.98"/><rect class="cls-7" x="466.07" y="620.45" width="78.31" height="78.31" rx="10.87"/><circle class="cls-3" cx="487.75" cy="679.43" r="9.96"/><circle class="cls-3" cx="487.75" cy="640.58" r="9.96"/><circle class="cls-3" cx="522.71" cy="679.43" r="9.96"/><circle class="cls-3" cx="522.71" cy="640.58" r="9.96"/><rect class="cls-6" x="466.07" y="620.45" width="78.31" height="78.31" rx="10.87"/><circle class="cls-3" cx="487.75" cy="679.43" r="9.96"/><circle class="cls-3" cx="487.75" cy="640.58" r="9.96"/><circle class="cls-3" cx="522.71" cy="679.43" r="9.96"/><circle class="cls-3" cx="522.71" cy="640.58" r="9.96"/><rect class="cls-5" x="271.3" y="724.45" width="78.51" height="78.51" rx="10.9" transform="translate(621.11 1527.42) rotate(180)"/><circle class="cls-3" cx="310.56" cy="763.71" r="9.98"/><rect class="cls-5" x="271.3" y="829.06" width="78.51" height="78.51" rx="10.9"/><circle class="cls-3" cx="325.7" cy="883.08" r="9.98"/><circle class="cls-3" cx="295.41" cy="852.78" r="9.98"/><rect class="cls-5" x="466.25" y="829.48" width="78.51" height="78.51" rx="10.9"/><circle class="cls-3" cx="520.66" cy="883.49" r="9.98"/><circle class="cls-3" cx="490.36" cy="853.2" r="9.98"/></g></svg>