<svg xmlns="http://www.w3.org/2000/svg" viewBox="0 0 816 1110"><defs><style>.cls-1{fill:#fff;}.cls-2{font-size:161.53px;font-family:TimesNewRomanPSMT, Times New Roman;}.cls-2,.cls-3{fill:#ed1c24;}.cls-4,.cls-5,.cls-6,.cls-7{fill:none;stroke:#ed1c24;stroke-miterlimit:10;}.cls-4,.cls-5{stroke-width:1.26px;}.cls-4{stroke-dasharray:12.3 12.3;}.cls-6{stroke-width:1.25px;}.cls-7{stroke-width:0.39px;}</style></defs><g id="Card_Corners" data-name="Card Corners"><path class="cls-1" d="M740.91,1110H75.34a75.06,75.06,0,0,1-75.07-75L0,75.09A75.07,75.07,0,0,1,75.09,0L740.94.23a75.06,75.06,0,0,1,75,75.06v959.62A75.06,75.06,0,0,1,740.91,1110Z"/></g><g id="Red_s" data-name="Red #s"><text class="cls-2" transform="translate(740.63 920.5) rotate(180)">8</text><text class="cls-2" transform="translate(75.78 189.49)">8</text></g><g id="Hearts"><path class="cls-3" d="M152,250.83c-19.93-14.82-32.28,5-34.37,8.78-2.1-3.76-14.45-23.6-34.38-8.78-6.65,4.94-17.44,26.63,6.57,46.5,5.76,4.78,17.75,13.09,24,19.35a28.35,28.35,0,0,1,3.59,4.11c.08.1.14.21.22.32a3.53,3.53,0,0,1,.21-.32,28.5,28.5,0,0,1,3.6-4.12c6.26-6.25,18.23-14.57,24-19.34C169.41,277.46,158.62,255.77,152,250.83Z"/><path class="cls-3" d="M664,859.17c19.93,14.82,32.28-5,34.37-8.78,2.1,3.76,14.45,23.6,34.38,8.78,6.65-4.94,17.44-26.63-6.57-46.5-5.76-4.78-17.75-13.09-24-19.35a28.35,28.35,0,0,1-3.59-4.11c-.08-.1-.14-.21-.22-.32a3.53,3.53,0,0,1-.21.32,28.5,28.5,0,0,1-3.6,4.12c-6.26,6.25-18.23,14.57-24,19.34C646.59,832.54,657.38,854.23,664,859.17Z"/></g><g id="Red_Dashed_Dice" data-name="Red Dashed Dice"><rect class="cls-4" x="466.34" y="148.35" width="78.51" height="78.51" rx="10.9"/><rect class="cls-4" x="466.34" y="252.24" width="78.51" height="78.51" rx="10.9"/><rect class="cls-4" x="466.34" y="356.12" width="78.51" height="78.51" rx="10.9"/></g><g id="Red_Center" data-name="Red Center"><rect class="cls-5" x="271.37" y="568.05" width="78.51" height="78.51" rx="10.9" transform="translate(621.26 1214.61) rotate(180)"/><circle class="cls-3" cx="310.63" cy="607.31" r="9.98"/><rect class="cls-5" x="466.11" y="881.88" width="78.51" height="78.51" rx="10.9"/><circle class="cls-3" cx="525.96" cy="941.25" r="9.98"/><circle class="cls-3" cx="484.78" cy="900.07" r="9.98"/><circle class="cls-3" cx="505.43" cy="920.72" r="9.98"/><rect class="cls-5" x="271.37" y="776.86" width="78.51" height="78.51" rx="10.9" transform="translate(621.26 1632.23) rotate(180)"/><circle class="cls-3" cx="295.48" cy="801.36" r="9.98"/><circle class="cls-3" cx="325.78" cy="831.65" r="9.98"/><rect class="cls-5" x="368.74" y="777.27" width="78.51" height="78.51" rx="10.9"/><circle class="cls-3" cx="423.15" cy="831.29" r="9.98"/><circle class="cls-3" cx="392.85" cy="800.99" r="9.98"/><rect class="cls-6" x="368.84" y="149.7" width="78.31" height="78.31" rx="10.87"/><circle class="cls-3" cx="392.51" cy="163.96" r="9.96"/><circle class="cls-3" cx="392.51" cy="212.8" r="9.96"/><circle class="cls-3" cx="392.51" cy="188.33" r="9.96"/><circle class="cls-3" cx="423.59" cy="163.96" r="9.96"/><circle class="cls-3" cx="423.59" cy="212.8" r="9.96"/><circle class="cls-3" cx="423.59" cy="188.33" r="9.96"/><rect class="cls-5" x="271.37" y="149.6" width="78.51" height="78.51" rx="10.9"/><circle class="cls-3" cx="325.78" cy="203.62" r="9.98"/><circle class="cls-3" cx="295.48" cy="173.32" r="9.98"/><rect class="cls-5" x="271.31" y="254.63" width="78.51" height="78.51" rx="10.9"/><circle class="cls-3" cx="331.16" cy="314" r="9.98"/><circle class="cls-3" cx="289.98" cy="272.82" r="9.98"/><circle class="cls-3" cx="310.63" cy="293.47" r="9.98"/><rect class="cls-6" x="368.84" y="254.26" width="78.31" height="78.31" rx="10.87"/><circle class="cls-3" cx="428.54" cy="313.48" r="9.96"/><circle class="cls-3" cx="387.46" cy="272.4" r="9.96"/><circle class="cls-3" cx="408.07" cy="293.01" r="9.96"/><circle class="cls-3" cx="387.46" cy="313.48" r="9.96"/><circle class="cls-3" cx="428.54" cy="272.4" r="9.96"/><rect class="cls-7" x="271.41" y="359.13" width="78.31" height="78.31" rx="10.87"/><circle class="cls-3" cx="293.08" cy="418.1" r="9.96"/><circle class="cls-3" cx="293.08" cy="379.25" r="9.96"/><circle class="cls-3" cx="328.05" cy="418.1" r="9.96"/><circle class="cls-3" cx="328.05" cy="379.25" r="9.96"/><rect class="cls-6" x="271.41" y="359.13" width="78.31" height="78.31" rx="10.87"/><circle class="cls-3" cx="293.08" cy="418.1" r="9.96"/><circle class="cls-3" cx="293.08" cy="379.25" r="9.96"/><circle class="cls-3" cx="328.05" cy="418.1" r="9.96"/><circle class="cls-3" cx="328.05" cy="379.25" r="9.96"/><rect class="cls-7" x="368.84" y="358.85" width="78.31" height="78.31" rx="10.87"/><circle class="cls-3" cx="390.52" cy="417.82" r="9.96"/><circle class="cls-3" cx="390.52" cy="378.97" r="9.96"/><circle class="cls-3" cx="425.48" cy="417.82" r="9.96"/><circle class="cls-3" cx="425.48" cy="378.97" r="9.96"/><rect class="cls-6" x="368.84" y="358.85" width="78.31" height="78.31" rx="10.87"/><circle class="cls-3" cx="390.52" cy="417.82" r="9.96"/><circle class="cls-3" cx="390.52" cy="378.97" r="9.96"/><circle class="cls-3" cx="425.48" cy="417.82" r="9.96"/><circle class="cls-3" cx="425.48" cy="378.97" r="9.96"/><rect class="cls-6" x="466.38" y="463.64" width="78.31" height="78.31" rx="10.87"/><circle class="cls-3" cx="490.05" cy="477.89" r="9.96"/><circle class="cls-3" cx="490.05" cy="526.74" r="9.96"/><circle class="cls-3" cx="490.05" cy="502.26" r="9.96"/><circle class="cls-3" cx="521.13" cy="477.89" r="9.96"/><circle class="cls-3" cx="521.13" cy="526.74" r="9.96"/><circle class="cls-3" cx="521.13" cy="502.26" r="9.96"/><rect class="cls-5" x="368.78" y="463" width="78.51" height="78.51" rx="10.9" transform="translate(816.07 1004.52) rotate(180)"/><circle class="cls-3" cx="408.03" cy="502.26" r="9.98"/><rect class="cls-5" x="271.41" y="463" width="78.51" height="78.51" rx="10.9" transform="translate(621.33 1004.52) rotate(180)"/><circle class="cls-3" cx="310.66" cy="502.26" r="9.98"/><rect class="cls-5" x="368.81" y="568.05" width="78.51" height="78.51" rx="10.9"/><circle class="cls-3" cx="423.21" cy="622.06" r="9.98"/><circle class="cls-3" cx="392.92" cy="591.77" r="9.98"/><rect class="cls-6" x="466.38" y="568.15" width="78.31" height="78.31" rx="10.87"/><circle class="cls-3" cx="526.07" cy="627.36" r="9.96"/><circle class="cls-3" cx="485" cy="586.29" r="9.96"/><circle class="cls-3" cx="505.6" cy="606.89" r="9.96"/><circle class="cls-3" cx="485" cy="627.36" r="9.96"/><circle class="cls-3" cx="526.07" cy="586.29" r="9.96"/><rect class="cls-5" x="271.31" y="672.25" width="78.51" height="78.51" rx="10.9" transform="translate(621.13 1423) rotate(180)"/><circle class="cls-3" cx="310.57" cy="711.5" r="9.98"/><rect class="cls-5" x="368.71" y="672.66" width="78.51" height="78.51" rx="10.9"/><circle class="cls-3" cx="428.56" cy="732.03" r="9.98"/><circle class="cls-3" cx="387.38" cy="690.85" r="9.98"/><circle class="cls-3" cx="408.03" cy="711.5" r="9.98"/><rect class="cls-7" x="466.21" y="672.76" width="78.31" height="78.31" rx="10.87"/><circle class="cls-3" cx="487.89" cy="731.73" r="9.96"/><circle class="cls-3" cx="487.89" cy="692.88" r="9.96"/><circle class="cls-3" cx="522.85" cy="731.73" r="9.96"/><circle class="cls-3" cx="522.85" cy="692.88" r="9.96"/><rect class="cls-6" x="466.21" y="672.76" width="78.31" height="78.31" rx="10.87"/><circle class="cls-3" cx="487.89" cy="731.73" r="9.96"/><circle class="cls-3" cx="487.89" cy="692.88" r="9.96"/><circle class="cls-3" cx="522.85" cy="731.73" r="9.96"/><circle class="cls-3" cx="522.85" cy="692.88" r="9.96"/><rect class="cls-5" x="368.78" y="881.88" width="78.51" height="78.51" rx="10.9"/><circle class="cls-3" cx="428.62" cy="941.25" r="9.98"/><circle class="cls-3" cx="387.44" cy="900.07" r="9.98"/><circle class="cls-3" cx="408.1" cy="920.72" r="9.98"/><rect class="cls-5" x="271.41" y="881.47" width="78.51" height="78.51" rx="10.9"/><circle class="cls-3" cx="325.81" cy="935.48" r="9.98"/><circle class="cls-3" cx="295.52" cy="905.19" r="9.98"/><rect class="cls-7" x="466.28" y="777.37" width="78.31" height="78.31" rx="10.87"/><circle class="cls-3" cx="487.95" cy="836.34" r="9.96"/><circle class="cls-3" cx="487.95" cy="797.49" r="9.96"/><circle class="cls-3" cx="522.92" cy="836.34" r="9.96"/><circle class="cls-3" cx="522.92" cy="797.49" r="9.96"/><rect class="cls-6" x="466.28" y="777.37" width="78.31" height="78.31" rx="10.87"/><circle class="cls-3" cx="487.95" cy="836.34" r="9.96"/><circle class="cls-3" cx="487.95" cy="797.49" r="9.96"/><circle class="cls-3" cx="522.92" cy="836.34" r="9.96"/><circle class="cls-3" cx="522.92" cy="797.49" r="9.96"/></g></svg>