<svg xmlns="http://www.w3.org/2000/svg" viewBox="0 0 816 1110"><defs><style>.cls-1{fill:#fff;}.cls-2{font-size:161.53px;font-family:TimesNewRomanPSMT, Times New Roman;letter-spacing:-0.06em;}.cls-2,.cls-3,.cls-5,.cls-7{fill:#ed1c24;}.cls-4{fill:none;stroke:#ed1c24;stroke-miterlimit:10;stroke-width:1.26px;}.cls-5{font-size:196.46px;}.cls-5,.cls-7{font-family:TimesNewRomanPS-ItalicMT, Times New Roman;font-style:italic;}.cls-6{letter-spacing:-0.07em;}.cls-7{font-size:78.58px;}</style></defs><g id="Card_Corners" data-name="Card Corners"><path class="cls-1" d="M740.23,1110H74.65A75.06,75.06,0,0,1-.41,1035L-.69,75.11A75.07,75.07,0,0,1,74.41,0L740.25.25a75.07,75.07,0,0,1,75,75.07v959.61A75.07,75.07,0,0,1,740.23,1110Z"/></g><g id="Red_s" data-name="Red #s"><text class="cls-2" transform="translate(80.78 189.49)">A</text><text class="cls-2" transform="translate(736.62 920.51) rotate(180)">A</text></g><g id="Hearts"><path class="cls-3" d="M172,250.83c-19.93-14.82-32.27,5-34.37,8.78-2.09-3.76-14.44-23.6-34.37-8.78-6.65,4.94-17.44,26.63,6.56,46.5,5.77,4.78,17.75,13.09,24,19.35a28.4,28.4,0,0,1,3.6,4.11l.21.32c.08-.11.14-.22.21-.32a29.17,29.17,0,0,1,3.61-4.12c6.25-6.25,18.23-14.57,24-19.34C189.42,277.46,178.64,255.77,172,250.83Z"/><path class="cls-3" d="M644,859.17c19.93,14.82,32.27-5,34.37-8.78,2.09,3.76,14.44,23.6,34.37,8.78,6.65-4.94,17.44-26.63-6.56-46.5-5.77-4.78-17.75-13.09-24-19.35a28.4,28.4,0,0,1-3.6-4.11l-.21-.32c-.08.11-.14.22-.21.32a29.17,29.17,0,0,1-3.61,4.12c-6.25,6.25-18.23,14.57-24,19.34C626.58,832.54,637.36,854.23,644,859.17Z"/></g><g id="Red_Center" data-name="Red Center"><rect class="cls-4" x="376.41" y="328.15" width="78.51" height="78.51" rx="10.9" transform="translate(831.33 734.82) rotate(180)"/><circle class="cls-3" cx="415.66" cy="367.41" r="9.98"/><text class="cls-5" transform="translate(308.9 724.45)"><tspan class="cls-6">1</tspan><tspan x="83.65" y="0">1</tspan></text><text class="cls-7" transform="translate(383.27 517.92)">or</text></g></svg>