<svg xmlns="http://www.w3.org/2000/svg" viewBox="0 0 816 1110"><defs><style>.cls-1{fill:#fff;}.cls-2{font-size:161.53px;font-family:TimesNewRomanPSMT, Times New Roman;}.cls-2,.cls-3,.cls-4,.cls-5{fill:#ed1c24;}.cls-4{font-size:196.46px;}.cls-4,.cls-5{font-family:TimesNewRomanPS-ItalicMT, Times New Roman;font-style:italic;}.cls-5{font-size:78.58px;}</style></defs><g id="Card_Corners" data-name="Card Corners"><path class="cls-1" d="M740.89,1110H75.32a75.06,75.06,0,0,1-75.07-75L0,75.09A75.07,75.07,0,0,1,75.07,0L740.92.23a75.06,75.06,0,0,1,75,75.06v959.62A75.06,75.06,0,0,1,740.89,1110Z"/></g><g id="Red_s" data-name="Red #s"><text class="cls-2" transform="translate(85.8 189.52)">J</text><text class="cls-2" transform="translate(730.63 920.53) rotate(180)">J</text></g><g id="Hearts"><path class="cls-3" d="M152,250.83c-19.93-14.82-32.28,5-34.37,8.78-2.1-3.76-14.45-23.6-34.38-8.78-6.65,4.94-17.44,26.63,6.57,46.5,5.76,4.78,17.75,13.09,24,19.35a28.35,28.35,0,0,1,3.59,4.11c.08.1.14.21.22.32a3.53,3.53,0,0,1,.21-.32,28.5,28.5,0,0,1,3.6-4.12c6.26-6.25,18.23-14.57,24-19.34C169.41,277.46,158.62,255.77,152,250.83Z"/><path class="cls-3" d="M664,859.17c19.93,14.82,32.28-5,34.37-8.78,2.1,3.76,14.45,23.6,34.38,8.78,6.65-4.94,17.44-26.63-6.57-46.5-5.76-4.78-17.75-13.09-24-19.35a28.35,28.35,0,0,1-3.59-4.11c-.08-.1-.14-.21-.22-.32a3.53,3.53,0,0,1-.21.32,28.5,28.5,0,0,1-3.6,4.12c-6.26,6.25-18.23,14.57-24,19.34C646.59,832.54,657.38,854.23,664,859.17Z"/></g><g id="Red_Center" data-name="Red Center"><text class="cls-4" transform="translate(297.73 802.45)">18</text><text class="cls-5" transform="translate(380.64 575.48)">to</text><text class="cls-4" transform="translate(302.1 436.56)">10</text></g></svg>