<svg xmlns="http://www.w3.org/2000/svg" viewBox="0 0 816 1110"><defs><style>.cls-1{fill:#fff;}.cls-2{font-size:161.53px;font-family:TimesNewRomanPSMT, Times New Roman;}.cls-2,.cls-3,.cls-4,.cls-5{fill:#ed1c24;}.cls-4{font-size:196.46px;}.cls-4,.cls-5{font-family:TimesNewRomanPS-ItalicMT, Times New Roman;font-style:italic;}.cls-5{font-size:78.58px;}</style></defs><g id="Card_Corners" data-name="Card Corners"><path class="cls-1" d="M740.2,1110H74.63A75.06,75.06,0,0,1-.43,1035L-.71,75.11A75.07,75.07,0,0,1,74.39,0L740.23.25a75.07,75.07,0,0,1,75,75.07v959.61A75.07,75.07,0,0,1,740.2,1110Z"/></g><g id="Red_s" data-name="Red #s"><text class="cls-2" transform="translate(82.79 189.52)">K</text><text class="cls-2" transform="translate(733.63 920.53) rotate(180)">K</text></g><g id="Hearts"><path class="cls-3" d="M172,250.83c-19.93-14.82-32.27,5-34.37,8.78-2.09-3.76-14.44-23.6-34.37-8.78-6.65,4.94-17.44,26.63,6.56,46.5,5.77,4.78,17.75,13.09,24,19.35a28.4,28.4,0,0,1,3.6,4.11l.21.32c.08-.11.14-.22.21-.32a29.17,29.17,0,0,1,3.61-4.12c6.25-6.25,18.23-14.57,24-19.34C189.42,277.46,178.64,255.77,172,250.83Z"/><path class="cls-3" d="M644,859.17c19.93,14.82,32.27-5,34.37-8.78,2.09,3.76,14.44,23.6,34.37,8.78,6.65-4.94,17.44-26.63-6.56-46.5-5.77-4.78-17.75-13.09-24-19.35a28.4,28.4,0,0,1-3.6-4.11l-.21-.32c-.08.11-.14.22-.21.32a29.17,29.17,0,0,1-3.61,4.12c-6.25,6.25-18.23,14.57-24,19.34C626.58,832.54,637.36,854.23,644,859.17Z"/></g><g id="Red_Center" data-name="Red Center"><text class="cls-4" transform="translate(297.73 802.45)">18</text><text class="cls-5" transform="translate(380.64 575.48)">to</text><text class="cls-4" transform="translate(302.1 436.56)">10</text></g></svg>