<svg xmlns="http://www.w3.org/2000/svg" viewBox="0 0 816 1110"><defs><style>.cls-1{fill:#fff;}.cls-2{font-size:161.53px;font-family:TimesNewRomanPSMT, Times New Roman;}.cls-2,.cls-3,.cls-4,.cls-5{fill:#ed1c24;}.cls-4{font-size:196.46px;}.cls-4,.cls-5{font-family:TimesNewRomanPS-ItalicMT, Times New Roman;font-style:italic;}.cls-5{font-size:78.58px;}</style></defs><g id="Card_Corners" data-name="Card Corners"><path class="cls-1" d="M740.89,1110H75.32A75.07,75.07,0,0,1,.25,1035L0,75.11A75.06,75.06,0,0,1,75.07,0L740.92.25a75.08,75.08,0,0,1,75,75.07v959.61A75.07,75.07,0,0,1,740.89,1110Z"/></g><g id="Red_s" data-name="Red #s"><text class="cls-2" transform="translate(740.64 920.53) rotate(180)">Q</text><text class="cls-2" transform="translate(75.79 189.52)">Q</text></g><g id="Hearts"><path class="cls-3" d="M172,270.84c-19.93-14.82-32.27,5-34.37,8.78-2.09-3.76-14.44-23.6-34.37-8.78-6.65,5-17.44,26.63,6.56,46.51,5.77,4.77,17.75,13.09,24,19.34a28.5,28.5,0,0,1,3.6,4.12l.21.31c.08-.1.14-.21.21-.31a29.27,29.27,0,0,1,3.61-4.13c6.25-6.25,18.23-14.56,24-19.33C189.42,297.47,178.64,275.79,172,270.84Z"/><path class="cls-3" d="M644,839.16c19.93,14.82,32.27-5,34.37-8.78,2.09,3.76,14.44,23.6,34.37,8.78,6.65-4.95,17.44-26.63-6.56-46.51-5.77-4.77-17.75-13.09-24-19.34a28.5,28.5,0,0,1-3.6-4.12l-.21-.31c-.08.1-.14.21-.21.31a29.27,29.27,0,0,1-3.61,4.13c-6.25,6.25-18.23,14.56-24,19.33C626.58,812.53,637.36,834.21,644,839.16Z"/></g><g id="Red_Center" data-name="Red Center"><text class="cls-4" transform="translate(297.73 802.45)">18</text><text class="cls-5" transform="translate(380.64 575.48)">to</text><text class="cls-4" transform="translate(302.1 436.56)">10</text></g></svg>