<svg xmlns="http://www.w3.org/2000/svg" viewBox="0 0 816 1110"><defs><style>.cls-1{fill:#fff;}.cls-2{font-size:161.53px;font-family:TimesNewRomanPSMT, Times New Roman;}.cls-2,.cls-5{fill:#231f20;}.cls-3,.cls-4,.cls-6,.cls-7{fill:none;stroke:#231f20;stroke-miterlimit:10;}.cls-3,.cls-4{stroke-width:1.26px;}.cls-3{stroke-dasharray:12.3 12.3;}.cls-6{stroke-width:1.25px;}.cls-7{stroke-width:0.39px;}</style></defs><g id="Card_Corners" data-name="Card Corners"><path class="cls-1" d="M740.2,1110H74.63A75.06,75.06,0,0,1-.43,1035L-.71,75.11A75.07,75.07,0,0,1,74.39,0L740.23.25a75.07,75.07,0,0,1,75,75.07v959.61A75.07,75.07,0,0,1,740.2,1110Z"/></g><g id="Black_s" data-name="Black #s"><text class="cls-2" transform="translate(72.78 189.49)">5</text><text class="cls-2" transform="translate(743.63 920.5) rotate(180)">5</text></g><g id="Spades"><path d="M121.2,297.34a5.09,5.09,0,0,0-.34,1.17c-.18,6.76,1.51,12.94,5.85,18.23a46.44,46.44,0,0,0,3.62,3.53,3.19,3.19,0,0,1,.68.75c.17.34.39.86.24,1.09s-.7.42-1.1.56a1.87,1.87,0,0,1-.67,0c-8,0-16,0-24,0a5.06,5.06,0,0,1-1.56-.53c.23-.55.31-1.25.71-1.62a30.09,30.09,0,0,0,6.65-8,28.42,28.42,0,0,0,3-13.93,5.2,5.2,0,0,0-.1-.78,3.45,3.45,0,0,0-.26-.5,5.27,5.27,0,0,0-.68,1,17.91,17.91,0,0,1-7.26,9,19.71,19.71,0,0,1-27.6-7.45,22.45,22.45,0,0,1-3-13.4,32.54,32.54,0,0,1,5-14.17,71.85,71.85,0,0,1,14.83-16.66,132.62,132.62,0,0,0,21.61-23.3,7.47,7.47,0,0,1,.62-.71,2.24,2.24,0,0,1,.54.41c7.13,10.1,16,18.58,25.22,26.69,6.13,5.36,11.26,11.64,14.34,19.25,3.37,8.34,3.3,16.61-2.38,24.12-3.95,5.23-9.25,8.31-15.92,8.1-8-.26-14-3.78-17.16-11.43-.16-.38-.34-.75-.52-1.12C121.6,297.59,121.51,297.56,121.2,297.34Z"/><path d="M694.8,812.66a5.09,5.09,0,0,0,.34-1.17c.18-6.76-1.51-12.94-5.85-18.23a46.44,46.44,0,0,0-3.62-3.53A3.19,3.19,0,0,1,685,789c-.17-.34-.39-.86-.24-1.09s.7-.42,1.1-.56a1.87,1.87,0,0,1,.67,0c8,0,16,0,24,0a5.06,5.06,0,0,1,1.56.53c-.23.55-.31,1.25-.71,1.62a30,30,0,0,0-6.65,8,28.36,28.36,0,0,0-3,13.92,5.2,5.2,0,0,0,.1.78,3.45,3.45,0,0,0,.26.5,5.27,5.27,0,0,0,.68-1,17.91,17.91,0,0,1,7.26-9,19.71,19.71,0,0,1,27.6,7.45,22.45,22.45,0,0,1,3,13.4,32.54,32.54,0,0,1-5,14.17,71.85,71.85,0,0,1-14.83,16.66,132.62,132.62,0,0,0-21.61,23.3,7.47,7.47,0,0,1-.62.71A2.24,2.24,0,0,1,698,878c-7.13-10.1-16-18.58-25.22-26.69-6.13-5.36-11.26-11.64-14.34-19.25-3.37-8.34-3.3-16.61,2.38-24.12,4-5.23,9.25-8.31,15.92-8.1,8,.26,14,3.78,17.16,11.43.16.38.34.75.52,1.12C694.4,812.41,694.49,812.44,694.8,812.66Z"/></g><g id="Black_Dashed_Dice" data-name="Black Dashed Dice"><rect class="cls-3" x="368.71" y="306.5" width="78.51" height="78.51" rx="10.9"/><rect class="cls-3" x="466.36" y="306.5" width="78.51" height="78.51" rx="10.9"/><rect class="cls-3" x="466.36" y="411.11" width="78.51" height="78.51" rx="10.9"/><rect class="cls-3" x="466.36" y="515.67" width="78.51" height="78.51" rx="10.9"/></g><g id="Black_Center" data-name="Black Center"><rect class="cls-4" x="271.41" y="515.28" width="78.51" height="78.51" rx="10.9" transform="translate(621.33 1109.07) rotate(180)"/><circle class="cls-5" cx="295.52" cy="539.78" r="9.98"/><circle class="cls-5" cx="325.81" cy="570.07" r="9.98"/><rect class="cls-4" x="466.08" y="620.31" width="78.51" height="78.51" rx="10.9"/><circle class="cls-5" cx="525.93" cy="679.67" r="9.98"/><circle class="cls-5" cx="484.75" cy="638.49" r="9.98"/><circle class="cls-5" cx="505.4" cy="659.15" r="9.98"/><rect class="cls-4" x="368.71" y="724.92" width="78.51" height="78.51" rx="10.9"/><circle class="cls-5" cx="423.11" cy="778.93" r="9.98"/><circle class="cls-5" cx="392.82" cy="748.64" r="9.98"/><rect class="cls-6" x="271.44" y="306.57" width="78.31" height="78.31" rx="10.87"/><circle class="cls-5" cx="331.14" cy="365.78" r="9.96"/><circle class="cls-5" cx="290.06" cy="324.71" r="9.96"/><circle class="cls-5" cx="310.66" cy="345.31" r="9.96"/><circle class="cls-5" cx="290.06" cy="365.78" r="9.96"/><circle class="cls-5" cx="331.14" cy="324.71" r="9.96"/><rect class="cls-4" x="368.71" y="515.69" width="78.51" height="78.51" rx="10.9"/><circle class="cls-5" cx="428.56" cy="575.06" r="9.98"/><circle class="cls-5" cx="387.38" cy="533.88" r="9.98"/><circle class="cls-5" cx="408.03" cy="554.53" r="9.98"/><rect class="cls-4" x="271.34" y="411.08" width="78.51" height="78.51" rx="10.9" transform="translate(621.2 900.68) rotate(180)"/><circle class="cls-5" cx="310.6" cy="450.34" r="9.98"/><rect class="cls-7" x="368.81" y="411.18" width="78.31" height="78.31" rx="10.87"/><circle class="cls-5" cx="390.49" cy="470.15" r="9.96"/><circle class="cls-5" cx="390.49" cy="431.3" r="9.96"/><circle class="cls-5" cx="425.45" cy="470.15" r="9.96"/><circle class="cls-5" cx="425.45" cy="431.3" r="9.96"/><rect class="cls-6" x="368.81" y="411.18" width="78.31" height="78.31" rx="10.87"/><circle class="cls-5" cx="390.49" cy="470.15" r="9.96"/><circle class="cls-5" cx="390.49" cy="431.3" r="9.96"/><circle class="cls-5" cx="425.45" cy="470.15" r="9.96"/><circle class="cls-5" cx="425.45" cy="431.3" r="9.96"/><rect class="cls-4" x="271.41" y="620.31" width="78.51" height="78.51" rx="10.9" transform="translate(621.33 1319.12) rotate(180)"/><circle class="cls-5" cx="310.66" cy="659.56" r="9.98"/><rect class="cls-4" x="368.71" y="619.89" width="78.51" height="78.51" rx="10.9" transform="translate(815.93 1318.29) rotate(180)"/><circle class="cls-5" cx="407.97" cy="659.15" r="9.98"/><rect class="cls-4" x="271.34" y="724.5" width="78.51" height="78.51" rx="10.9" transform="translate(621.2 1527.51) rotate(180)"/><circle class="cls-5" cx="310.6" cy="763.76" r="9.98"/><rect class="cls-4" x="466.15" y="724.92" width="78.51" height="78.51" rx="10.9"/><circle class="cls-5" cx="520.55" cy="778.93" r="9.98"/><circle class="cls-5" cx="490.25" cy="748.64" r="9.98"/></g></svg>