<svg xmlns="http://www.w3.org/2000/svg" viewBox="0 0 816 1110"><defs><style>.cls-1{fill:#fff;}.cls-2{font-size:161.53px;font-family:TimesNewRomanPSMT, Times New Roman;}.cls-2,.cls-5{fill:#231f20;}.cls-3,.cls-4{fill:none;stroke:#231f20;stroke-miterlimit:10;stroke-width:1.26px;}.cls-3{stroke-dasharray:12.3 12.3;}</style></defs><g id="Card_Corners" data-name="Card Corners"><path class="cls-1" d="M740.91,1110H75.34A75.07,75.07,0,0,1,.27,1035L0,75.11A75.06,75.06,0,0,1,75.09,0L740.94.25a75.07,75.07,0,0,1,75,75.07v959.61A75.07,75.07,0,0,1,740.91,1110Z"/></g><g id="Black_s" data-name="Black #s"><text class="cls-2" transform="translate(79.78 189.49)">2</text><text class="cls-2" transform="translate(736.62 920.5) rotate(180)">2</text></g><g id="Clubs"><path d="M102.3,269.77a21.77,21.77,0,0,1,1-31,21.49,21.49,0,0,1,28.43-.37,20.49,20.49,0,0,1,7.48,15.2,22.4,22.4,0,0,1-5.77,16.1l2.55-.52a20.74,20.74,0,0,1,22.82,12.15,13.87,13.87,0,0,1,1.32,6.71,11.23,11.23,0,0,0,0,1.74c.29,7.78-3.56,13.3-9.84,17.21a19.62,19.62,0,0,1-25.32-3.64c-1.3-1.43-2.05-3.36-3.05-5.06-.2-.33-.37-.67-.56-1H121a9,9,0,0,0-.29,1.68c.1,5.85,1.46,11.32,5.19,16a52.91,52.91,0,0,0,3.8,3.84,5,5,0,0,1,.77.9.85.85,0,0,1-.63,1.36,5,5,0,0,1-.87,0c-7.51,0-15,0-22.54,0a5.14,5.14,0,0,1-1.53-.52c.22-.53.31-1.21.69-1.56a24.4,24.4,0,0,0,9.06-20.83,2.33,2.33,0,0,0-.07-.53,3.12,3.12,0,0,0-.24-.49,9,9,0,0,0-.87,1.39c-1.81,4.83-5.43,7.87-10,9.85a20.16,20.16,0,0,1-22.59-4.72,20.57,20.57,0,0,1,20.22-34.12C101.42,269.63,101.73,269.67,102.3,269.77Z"/><path d="M714.39,840.23a21.75,21.75,0,0,1-1,31,21.49,21.49,0,0,1-28.43.37,20.56,20.56,0,0,1-7.48-15.2,22.4,22.4,0,0,1,5.77-16.1l-2.55.52a20.73,20.73,0,0,1-22.81-12.15,13.76,13.76,0,0,1-1.33-6.71,12.62,12.62,0,0,0,0-1.74c-.3-7.78,3.55-13.3,9.84-17.21a19.63,19.63,0,0,1,25.32,3.64c1.3,1.43,2.05,3.36,3.05,5.06.19.33.37.67.55,1h.33A9,9,0,0,0,696,811c-.09-5.85-1.46-11.32-5.19-16a52.91,52.91,0,0,0-3.8-3.84,5,5,0,0,1-.76-.9.84.84,0,0,1,.63-1.36,4.91,4.91,0,0,1,.86,0c7.52,0,15,0,22.55,0a5.08,5.08,0,0,1,1.52.52c-.22.53-.3,1.21-.69,1.56a24.4,24.4,0,0,0-9.06,20.83,4.51,4.51,0,0,0,.07.53,3.12,3.12,0,0,0,.24.49,8.39,8.39,0,0,0,.88-1.39c1.81-4.83,5.42-7.87,10-9.85a20.16,20.16,0,0,1,22.59,4.72,20.47,20.47,0,0,1-9.1,34,20.27,20.27,0,0,1-11.11.09C715.27,840.37,715,840.33,714.39,840.23Z"/></g><g id="Black_Dashed_Dice" data-name="Black Dashed Dice"><rect class="cls-3" x="380.23" y="463.44" width="78.51" height="78.51" rx="10.9"/><rect class="cls-3" x="477.88" y="463.44" width="78.51" height="78.51" rx="10.9"/><rect class="cls-3" x="477.88" y="568.05" width="78.51" height="78.51" rx="10.9"/></g><g id="Black_Center" data-name="Black Center"><rect class="cls-4" x="380.4" y="568.05" width="78.51" height="78.51" rx="10.9" transform="translate(839.31 1214.61) rotate(180)"/><circle class="cls-5" cx="419.66" cy="607.31" r="9.98"/><rect class="cls-4" x="283.03" y="463.44" width="78.51" height="78.51" rx="10.9" transform="translate(644.57 1005.39) rotate(180)"/><circle class="cls-5" cx="307.14" cy="487.94" r="9.98"/><circle class="cls-5" cx="337.43" cy="518.23" r="9.98"/><rect class="cls-4" x="283.03" y="568.05" width="78.51" height="78.51" rx="10.9" transform="translate(644.57 1214.61) rotate(180)"/><circle class="cls-5" cx="322.29" cy="607.31" r="9.98"/></g></svg>