<svg xmlns="http://www.w3.org/2000/svg" viewBox="0 0 816 1110"><defs><style>.cls-1{fill:#fff;}.cls-2{font-size:161.53px;font-family:TimesNewRomanPSMT, Times New Roman;}.cls-2,.cls-5{fill:#231f20;}.cls-3,.cls-4,.cls-6,.cls-7{fill:none;stroke:#231f20;stroke-miterlimit:10;}.cls-3,.cls-7{stroke-width:1.26px;}.cls-3{stroke-dasharray:12.3 12.3;}.cls-4{stroke-width:0.39px;}.cls-6{stroke-width:1.25px;}</style></defs><g id="Card_Corners" data-name="Card Corners"><path class="cls-1" d="M740.89,1110H75.32A75.07,75.07,0,0,1,.25,1035L0,75.11A75.06,75.06,0,0,1,75.07,0L740.92.25a75.08,75.08,0,0,1,75,75.07v959.61A75.07,75.07,0,0,1,740.89,1110Z"/></g><g id="Black_s" data-name="Black #s"><text class="cls-2" transform="translate(79.78 189.49)">4</text><text class="cls-2" transform="translate(736.62 920.5) rotate(180)">4</text></g><g id="Clubs"><path d="M102.3,269.77a21.77,21.77,0,0,1,1-31,21.49,21.49,0,0,1,28.43-.37,20.49,20.49,0,0,1,7.48,15.2,22.4,22.4,0,0,1-5.77,16.1l2.55-.52a20.74,20.74,0,0,1,22.82,12.15,13.87,13.87,0,0,1,1.32,6.71,11.23,11.23,0,0,0,0,1.74c.29,7.78-3.56,13.3-9.84,17.21a19.62,19.62,0,0,1-25.32-3.64c-1.3-1.43-2.05-3.36-3.05-5.06-.2-.33-.37-.67-.56-1H121a9,9,0,0,0-.29,1.68c.1,5.85,1.46,11.32,5.19,16a52.91,52.91,0,0,0,3.8,3.84,5,5,0,0,1,.77.9.85.85,0,0,1-.63,1.36,5,5,0,0,1-.87,0c-7.51,0-15,0-22.54,0a5.14,5.14,0,0,1-1.53-.52c.22-.53.31-1.21.69-1.56a24.4,24.4,0,0,0,9.06-20.83,2.33,2.33,0,0,0-.07-.53,3.12,3.12,0,0,0-.24-.49,9,9,0,0,0-.87,1.39c-1.81,4.83-5.43,7.87-10,9.85a20.16,20.16,0,0,1-22.59-4.72,20.57,20.57,0,0,1,20.22-34.12C101.42,269.63,101.73,269.67,102.3,269.77Z"/><path d="M714.39,840.23a21.75,21.75,0,0,1-1,31,21.49,21.49,0,0,1-28.43.37,20.56,20.56,0,0,1-7.48-15.2,22.4,22.4,0,0,1,5.77-16.1l-2.55.52a20.73,20.73,0,0,1-22.81-12.15,13.76,13.76,0,0,1-1.33-6.71,12.62,12.62,0,0,0,0-1.74c-.3-7.78,3.55-13.3,9.84-17.21a19.63,19.63,0,0,1,25.32,3.64c1.3,1.43,2.05,3.36,3.05,5.06.19.33.37.67.55,1h.33A9,9,0,0,0,696,811c-.09-5.85-1.46-11.32-5.19-16a52.91,52.91,0,0,0-3.8-3.84,5,5,0,0,1-.76-.9.84.84,0,0,1,.63-1.36,4.91,4.91,0,0,1,.86,0c7.52,0,15,0,22.55,0a5.08,5.08,0,0,1,1.52.52c-.22.53-.3,1.21-.69,1.56a24.4,24.4,0,0,0-9.06,20.83,4.51,4.51,0,0,0,.07.53,3.12,3.12,0,0,0,.24.49,8.39,8.39,0,0,0,.88-1.39c1.81-4.83,5.42-7.87,10-9.85a20.16,20.16,0,0,1,22.59,4.72,20.47,20.47,0,0,1-9.1,34,20.27,20.27,0,0,1-11.11.09C715.27,840.37,715,840.33,714.39,840.23Z"/></g><g id="Black_Dashed_Dice" data-name="Black Dashed Dice"><rect class="cls-3" x="369.55" y="358.78" width="78.51" height="78.51" rx="10.9"/><rect class="cls-3" x="467.2" y="358.78" width="78.51" height="78.51" rx="10.9"/><rect class="cls-3" x="467.2" y="463.39" width="78.51" height="78.51" rx="10.9"/><rect class="cls-3" x="467.2" y="567.95" width="78.51" height="78.51" rx="10.9"/></g><g id="Black_Center" data-name="Black Center"><rect class="cls-4" x="272.28" y="358.93" width="78.31" height="78.31" rx="10.87"/><circle class="cls-5" cx="293.96" cy="417.9" r="9.96"/><circle class="cls-5" cx="293.96" cy="379.05" r="9.96"/><circle class="cls-5" cx="328.92" cy="417.9" r="9.96"/><circle class="cls-5" cx="328.92" cy="379.05" r="9.96"/><rect class="cls-6" x="272.28" y="358.93" width="78.31" height="78.31" rx="10.87"/><circle class="cls-5" cx="293.96" cy="417.9" r="9.96"/><circle class="cls-5" cx="293.96" cy="379.05" r="9.96"/><circle class="cls-5" cx="328.92" cy="417.9" r="9.96"/><circle class="cls-5" cx="328.92" cy="379.05" r="9.96"/><rect class="cls-7" x="369.65" y="567.95" width="78.51" height="78.51" rx="10.9"/><circle class="cls-5" cx="424.05" cy="621.96" r="9.98"/><circle class="cls-5" cx="393.76" cy="591.67" r="9.98"/><rect class="cls-7" x="272.28" y="567.95" width="78.51" height="78.51" rx="10.9" transform="translate(623.08 1214.41) rotate(180)"/><circle class="cls-5" cx="296.39" cy="592.45" r="9.98"/><circle class="cls-5" cx="326.69" cy="622.74" r="9.98"/><rect class="cls-7" x="369.55" y="463.34" width="78.51" height="78.51" rx="10.9"/><circle class="cls-5" cx="429.4" cy="522.7" r="9.98"/><circle class="cls-5" cx="388.22" cy="481.52" r="9.98"/><circle class="cls-5" cx="408.87" cy="502.18" r="9.98"/><rect class="cls-7" x="272.28" y="462.92" width="78.51" height="78.51" rx="10.9" transform="translate(623.08 1004.36) rotate(180)"/><circle class="cls-5" cx="311.54" cy="502.18" r="9.98"/><rect class="cls-7" x="272.18" y="672.56" width="78.51" height="78.51" rx="10.9" transform="translate(622.88 1423.64) rotate(180)"/><circle class="cls-5" cx="311.44" cy="711.82" r="9.98"/><rect class="cls-7" x="465.3" y="670.85" width="78.51" height="78.51" rx="10.9"/><circle class="cls-5" cx="519.71" cy="724.87" r="9.98"/><circle class="cls-5" cx="489.41" cy="694.57" r="9.98"/><rect class="cls-7" x="369.65" y="672.56" width="78.51" height="78.51" rx="10.9" transform="translate(817.81 1423.64) rotate(180)"/><circle class="cls-5" cx="408.91" cy="711.82" r="9.98"/></g></svg>