<svg xmlns="http://www.w3.org/2000/svg" viewBox="0 0 816 1110"><defs><style>.cls-1{fill:#fff;}.cls-2{font-size:161.53px;font-family:TimesNewRomanPSMT, Times New Roman;}.cls-2,.cls-5{fill:#231f20;}.cls-3,.cls-4,.cls-6,.cls-7{fill:none;stroke:#231f20;stroke-miterlimit:10;}.cls-3,.cls-4{stroke-width:1.26px;}.cls-3{stroke-dasharray:12.3 12.3;}.cls-6{stroke-width:1.25px;}.cls-7{stroke-width:0.39px;}</style></defs><g id="Card_Corners" data-name="Card Corners"><path class="cls-1" d="M740.93,1110H75.36A75.07,75.07,0,0,1,.29,1035L0,75.11A75.06,75.06,0,0,1,75.11,0L741,.25a75.07,75.07,0,0,1,75,75.07v959.61A75.07,75.07,0,0,1,740.93,1110Z"/></g><g id="Black_s" data-name="Black #s"><text class="cls-2" transform="translate(69.77 189.49)">7</text><text class="cls-2" transform="translate(746.63 920.5) rotate(180)">7</text></g><g id="Clubs"><path d="M102.3,269.77a21.77,21.77,0,0,1,1-31,21.49,21.49,0,0,1,28.43-.37,20.49,20.49,0,0,1,7.48,15.2,22.4,22.4,0,0,1-5.77,16.1l2.55-.52a20.74,20.74,0,0,1,22.82,12.15,13.87,13.87,0,0,1,1.32,6.71,11.23,11.23,0,0,0,0,1.74c.29,7.78-3.56,13.3-9.84,17.21a19.62,19.62,0,0,1-25.32-3.64c-1.3-1.43-2.05-3.36-3.05-5.06-.2-.33-.37-.67-.56-1H121a9,9,0,0,0-.29,1.68c.1,5.85,1.46,11.32,5.19,16a52.91,52.91,0,0,0,3.8,3.84,5,5,0,0,1,.77.9.85.85,0,0,1-.63,1.36,5,5,0,0,1-.87,0c-7.51,0-15,0-22.54,0a5.14,5.14,0,0,1-1.53-.52c.22-.53.31-1.21.69-1.56a24.4,24.4,0,0,0,9.06-20.83,2.33,2.33,0,0,0-.07-.53,3.12,3.12,0,0,0-.24-.49,9,9,0,0,0-.87,1.39c-1.81,4.83-5.43,7.87-10,9.85a20.16,20.16,0,0,1-22.59-4.72,20.57,20.57,0,0,1,20.22-34.12C101.42,269.63,101.73,269.67,102.3,269.77Z"/><path d="M714.39,840.23a21.75,21.75,0,0,1-1,31,21.49,21.49,0,0,1-28.43.37,20.56,20.56,0,0,1-7.48-15.2,22.4,22.4,0,0,1,5.77-16.1l-2.55.52a20.73,20.73,0,0,1-22.81-12.15,13.76,13.76,0,0,1-1.33-6.71,12.62,12.62,0,0,0,0-1.74c-.3-7.78,3.55-13.3,9.84-17.21a19.63,19.63,0,0,1,25.32,3.64c1.3,1.43,2.05,3.36,3.05,5.06.19.33.37.67.55,1h.33A9,9,0,0,0,696,811c-.09-5.85-1.46-11.32-5.19-16a52.91,52.91,0,0,0-3.8-3.84,5,5,0,0,1-.76-.9.84.84,0,0,1,.63-1.36,4.91,4.91,0,0,1,.86,0c7.52,0,15,0,22.55,0a5.08,5.08,0,0,1,1.52.52c-.22.53-.3,1.21-.69,1.56a24.4,24.4,0,0,0-9.06,20.83,4.51,4.51,0,0,0,.07.53,3.12,3.12,0,0,0,.24.49,8.39,8.39,0,0,0,.88-1.39c1.81-4.83,5.42-7.87,10-9.85a20.16,20.16,0,0,1,22.59,4.72,20.47,20.47,0,0,1-9.1,34,20.27,20.27,0,0,1-11.11.09C715.27,840.37,715,840.33,714.39,840.23Z"/></g><g id="Black_Dashed_Dice" data-name="Black Dashed Dice"><rect class="cls-3" x="465.94" y="203.28" width="78.51" height="78.51" rx="10.9"/><rect class="cls-3" x="465.94" y="307.17" width="78.51" height="78.51" rx="10.9"/><rect class="cls-3" x="465.94" y="411.06" width="78.51" height="78.51" rx="10.9"/></g><g id="Black_Center" data-name="Black Center"><rect class="cls-4" x="271.2" y="202.55" width="78.51" height="78.51" rx="10.9" transform="translate(620.92 483.62) rotate(180)"/><circle class="cls-5" cx="310.46" cy="241.81" r="9.98"/><rect class="cls-4" x="271.2" y="307.17" width="78.51" height="78.51" rx="10.9" transform="translate(620.92 692.85) rotate(180)"/><circle class="cls-5" cx="295.31" cy="331.67" r="9.98"/><circle class="cls-5" cx="325.61" cy="361.96" r="9.98"/><rect class="cls-6" x="368.67" y="202.75" width="78.31" height="78.31" rx="10.87"/><circle class="cls-5" cx="392.34" cy="217.01" r="9.96"/><circle class="cls-5" cx="392.34" cy="265.85" r="9.96"/><circle class="cls-5" cx="392.34" cy="241.38" r="9.96"/><circle class="cls-5" cx="423.42" cy="217.01" r="9.96"/><circle class="cls-5" cx="423.42" cy="265.85" r="9.96"/><circle class="cls-5" cx="423.42" cy="241.38" r="9.96"/><rect class="cls-6" x="368.67" y="307.27" width="78.31" height="78.31" rx="10.87"/><circle class="cls-5" cx="428.37" cy="366.48" r="9.96"/><circle class="cls-5" cx="387.29" cy="325.4" r="9.96"/><circle class="cls-5" cx="407.89" cy="346.01" r="9.96"/><circle class="cls-5" cx="387.29" cy="366.48" r="9.96"/><circle class="cls-5" cx="428.37" cy="325.4" r="9.96"/><rect class="cls-4" x="271.2" y="411.78" width="78.51" height="78.51" rx="10.9"/><circle class="cls-5" cx="331.05" cy="471.14" r="9.98"/><circle class="cls-5" cx="289.87" cy="429.96" r="9.98"/><circle class="cls-5" cx="310.52" cy="450.62" r="9.98"/><rect class="cls-7" x="368.74" y="411.83" width="78.31" height="78.31" rx="10.87"/><circle class="cls-5" cx="390.41" cy="470.8" r="9.96"/><circle class="cls-5" cx="390.41" cy="431.95" r="9.96"/><circle class="cls-5" cx="425.38" cy="470.8" r="9.96"/><circle class="cls-5" cx="425.38" cy="431.95" r="9.96"/><rect class="cls-6" x="368.74" y="411.83" width="78.31" height="78.31" rx="10.87"/><circle class="cls-5" cx="390.41" cy="470.8" r="9.96"/><circle class="cls-5" cx="390.41" cy="431.95" r="9.96"/><circle class="cls-5" cx="425.38" cy="470.8" r="9.96"/><circle class="cls-5" cx="425.38" cy="431.95" r="9.96"/><rect class="cls-4" x="271.27" y="515.97" width="78.51" height="78.51" rx="10.9"/><circle class="cls-5" cx="310.52" cy="555.23" r="9.98"/><rect class="cls-4" x="368.57" y="516.39" width="78.51" height="78.51" rx="10.9"/><circle class="cls-5" cx="407.83" cy="555.65" r="9.98"/><rect class="cls-6" x="466.04" y="516.07" width="78.31" height="78.31" rx="10.87"/><circle class="cls-5" cx="525.74" cy="575.29" r="9.96"/><circle class="cls-5" cx="484.66" cy="534.21" r="9.96"/><circle class="cls-5" cx="505.26" cy="554.81" r="9.96"/><circle class="cls-5" cx="484.66" cy="575.29" r="9.96"/><circle class="cls-5" cx="525.74" cy="534.21" r="9.96"/><rect class="cls-4" x="271.55" y="618.67" width="78.51" height="78.51" rx="10.9"/><circle class="cls-5" cx="310.8" cy="657.93" r="9.98"/><rect class="cls-4" x="368.92" y="618.67" width="78.51" height="78.51" rx="10.9"/><circle class="cls-5" cx="423.32" cy="672.68" r="9.98"/><circle class="cls-5" cx="393.02" cy="642.39" r="9.98"/><rect class="cls-7" x="466.14" y="618.69" width="78.31" height="78.31" rx="10.87"/><circle class="cls-5" cx="487.81" cy="677.66" r="9.96"/><circle class="cls-5" cx="487.81" cy="638.81" r="9.96"/><circle class="cls-5" cx="522.78" cy="677.66" r="9.96"/><circle class="cls-5" cx="522.78" cy="638.81" r="9.96"/><rect class="cls-6" x="466.14" y="618.69" width="78.31" height="78.31" rx="10.87"/><circle class="cls-5" cx="487.81" cy="677.66" r="9.96"/><circle class="cls-5" cx="487.81" cy="638.81" r="9.96"/><circle class="cls-5" cx="522.78" cy="677.66" r="9.96"/><circle class="cls-5" cx="522.78" cy="638.81" r="9.96"/><rect class="cls-4" x="466.11" y="723.7" width="78.51" height="78.51" rx="10.9" transform="translate(1010.74 1525.91) rotate(180)"/><circle class="cls-5" cx="505.37" cy="762.95" r="9.98"/><rect class="cls-4" x="466.11" y="724.11" width="78.51" height="78.51" rx="10.9"/><circle class="cls-5" cx="525.96" cy="783.48" r="9.98"/><circle class="cls-5" cx="484.78" cy="742.3" r="9.98"/><circle class="cls-5" cx="505.43" cy="762.95" r="9.98"/><rect class="cls-4" x="271.37" y="723.7" width="78.51" height="78.51" rx="10.9" transform="translate(621.26 1525.91) rotate(180)"/><circle class="cls-5" cx="310.63" cy="762.95" r="9.98"/><rect class="cls-4" x="369.27" y="723.7" width="78.51" height="78.51" rx="10.9"/><circle class="cls-5" cx="429.11" cy="783.06" r="9.98"/><circle class="cls-5" cx="387.93" cy="741.88" r="9.98"/><circle class="cls-5" cx="408.59" cy="762.54" r="9.98"/><rect class="cls-4" x="271.55" y="828.52" width="78.51" height="78.51" rx="10.9" transform="translate(621.6 1735.55) rotate(180)"/><circle class="cls-5" cx="295.65" cy="853.01" r="9.98"/><circle class="cls-5" cx="325.95" cy="883.31" r="9.98"/><rect class="cls-4" x="368.92" y="828.93" width="78.51" height="78.51" rx="10.9"/><circle class="cls-5" cx="423.32" cy="882.95" r="9.98"/><circle class="cls-5" cx="393.02" cy="852.65" r="9.98"/><rect class="cls-4" x="466.28" y="828.93" width="78.51" height="78.51" rx="10.9"/><circle class="cls-5" cx="526.13" cy="888.3" r="9.98"/><circle class="cls-5" cx="484.95" cy="847.12" r="9.98"/><circle class="cls-5" cx="505.61" cy="867.77" r="9.98"/></g></svg>