<svg xmlns="http://www.w3.org/2000/svg" viewBox="0 0 816 1110"><defs><style>.cls-1{fill:#fff;}.cls-2{font-size:161.53px;font-family:TimesNewRomanPSMT, Times New Roman;}.cls-2,.cls-5{fill:#231f20;}.cls-3,.cls-4,.cls-6,.cls-7{fill:none;stroke:#231f20;stroke-miterlimit:10;}.cls-3,.cls-4{stroke-width:1.26px;}.cls-3{stroke-dasharray:12.3 12.3;}.cls-6{stroke-width:1.25px;}.cls-7{stroke-width:0.39px;}</style></defs><g id="Card_Corners" data-name="Card Corners"><path class="cls-1" d="M740.93,1110H75.36A75.07,75.07,0,0,1,.29,1035L0,75.11A75.06,75.06,0,0,1,75.11,0L741,.25a75.07,75.07,0,0,1,75,75.07v959.61A75.07,75.07,0,0,1,740.93,1110Z"/></g><g id="Black_s" data-name="Black #s"><text class="cls-2" transform="translate(71.78 189.49)">9</text><text class="cls-2" transform="translate(744.63 920.5) rotate(180)">9</text></g><g id="Clubs"><path d="M102.3,269.77a21.77,21.77,0,0,1,1-31,21.49,21.49,0,0,1,28.43-.37,20.49,20.49,0,0,1,7.48,15.2,22.4,22.4,0,0,1-5.77,16.1l2.55-.52a20.74,20.74,0,0,1,22.82,12.15,13.87,13.87,0,0,1,1.32,6.71,11.23,11.23,0,0,0,0,1.74c.29,7.78-3.56,13.3-9.84,17.21a19.62,19.62,0,0,1-25.32-3.64c-1.3-1.43-2.05-3.36-3.05-5.06-.2-.33-.37-.67-.56-1H121a9,9,0,0,0-.29,1.68c.1,5.85,1.46,11.32,5.19,16a52.91,52.91,0,0,0,3.8,3.84,5,5,0,0,1,.77.9.85.85,0,0,1-.63,1.36,5,5,0,0,1-.87,0c-7.51,0-15,0-22.54,0a5.14,5.14,0,0,1-1.53-.52c.22-.53.31-1.21.69-1.56a24.4,24.4,0,0,0,9.06-20.83,2.33,2.33,0,0,0-.07-.53,3.12,3.12,0,0,0-.24-.49,9,9,0,0,0-.87,1.39c-1.81,4.83-5.43,7.87-10,9.85a20.16,20.16,0,0,1-22.59-4.72,20.57,20.57,0,0,1,20.22-34.12C101.42,269.63,101.73,269.67,102.3,269.77Z"/><path d="M714.39,840.23a21.75,21.75,0,0,1-1,31,21.49,21.49,0,0,1-28.43.37,20.56,20.56,0,0,1-7.48-15.2,22.4,22.4,0,0,1,5.77-16.1l-2.55.52a20.73,20.73,0,0,1-22.81-12.15,13.76,13.76,0,0,1-1.33-6.71,12.62,12.62,0,0,0,0-1.74c-.3-7.78,3.55-13.3,9.84-17.21a19.63,19.63,0,0,1,25.32,3.64c1.3,1.43,2.05,3.36,3.05,5.06.19.33.37.67.55,1h.33A9,9,0,0,0,696,811c-.09-5.85-1.46-11.32-5.19-16a52.91,52.91,0,0,0-3.8-3.84,5,5,0,0,1-.76-.9.84.84,0,0,1,.63-1.36,4.91,4.91,0,0,1,.86,0c7.52,0,15,0,22.55,0a5.08,5.08,0,0,1,1.52.52c-.22.53-.3,1.21-.69,1.56a24.4,24.4,0,0,0-9.06,20.83,4.51,4.51,0,0,0,.07.53,3.12,3.12,0,0,0,.24.49,8.39,8.39,0,0,0,.88-1.39c1.81-4.83,5.42-7.87,10-9.85a20.16,20.16,0,0,1,22.59,4.72,20.47,20.47,0,0,1-9.1,34,20.27,20.27,0,0,1-11.11.09C715.27,840.37,715,840.33,714.39,840.23Z"/></g><g id="Black_Dashed_Dice" data-name="Black Dashed Dice"><rect class="cls-3" x="466.11" y="148.35" width="78.51" height="78.51" rx="10.9"/><rect class="cls-3" x="466.11" y="252.24" width="78.51" height="78.51" rx="10.9"/></g><g id="Black_Center" data-name="Black Center"><rect class="cls-4" x="368.74" y="359.03" width="78.51" height="78.51" rx="10.9"/><circle class="cls-5" cx="423.15" cy="413.05" r="9.98"/><circle class="cls-5" cx="392.85" cy="382.75" r="9.98"/><rect class="cls-4" x="271.37" y="463.65" width="78.51" height="78.51" rx="10.9" transform="translate(621.26 1005.8) rotate(180)"/><circle class="cls-5" cx="310.63" cy="502.9" r="9.98"/><rect class="cls-4" x="271.37" y="672.45" width="78.51" height="78.51" rx="10.9" transform="translate(621.26 1423.42) rotate(180)"/><circle class="cls-5" cx="295.48" cy="696.95" r="9.98"/><circle class="cls-5" cx="325.78" cy="727.25" r="9.98"/><rect class="cls-4" x="466.11" y="881.68" width="78.51" height="78.51" rx="10.9"/><circle class="cls-5" cx="525.96" cy="941.04" r="9.98"/><circle class="cls-5" cx="484.78" cy="899.86" r="9.98"/><circle class="cls-5" cx="505.43" cy="920.52" r="9.98"/><rect class="cls-4" x="368.74" y="672.87" width="78.51" height="78.51" rx="10.9"/><circle class="cls-5" cx="423.15" cy="726.88" r="9.98"/><circle class="cls-5" cx="392.85" cy="696.59" r="9.98"/><rect class="cls-4" x="271.37" y="149.81" width="78.51" height="78.51" rx="10.9"/><circle class="cls-5" cx="331.22" cy="209.18" r="9.98"/><circle class="cls-5" cx="290.04" cy="168" r="9.98"/><circle class="cls-5" cx="310.7" cy="188.65" r="9.98"/><rect class="cls-6" x="368.84" y="150.01" width="78.31" height="78.31" rx="10.87"/><circle class="cls-5" cx="392.51" cy="164.26" r="9.96"/><circle class="cls-5" cx="392.51" cy="213.11" r="9.96"/><circle class="cls-5" cx="392.51" cy="188.63" r="9.96"/><circle class="cls-5" cx="423.59" cy="164.26" r="9.96"/><circle class="cls-5" cx="423.59" cy="213.11" r="9.96"/><circle class="cls-5" cx="423.59" cy="188.63" r="9.96"/><rect class="cls-7" x="271.54" y="254.52" width="78.31" height="78.31" rx="10.87"/><circle class="cls-5" cx="293.21" cy="313.49" r="9.96"/><circle class="cls-5" cx="293.21" cy="274.64" r="9.96"/><circle class="cls-5" cx="328.18" cy="313.49" r="9.96"/><circle class="cls-5" cx="328.18" cy="274.64" r="9.96"/><rect class="cls-6" x="271.54" y="254.52" width="78.31" height="78.31" rx="10.87"/><circle class="cls-5" cx="293.21" cy="313.49" r="9.96"/><circle class="cls-5" cx="293.21" cy="274.64" r="9.96"/><circle class="cls-5" cx="328.18" cy="313.49" r="9.96"/><circle class="cls-5" cx="328.18" cy="274.64" r="9.96"/><rect class="cls-6" x="368.84" y="254.52" width="78.31" height="78.31" rx="10.87"/><circle class="cls-5" cx="428.54" cy="313.74" r="9.96"/><circle class="cls-5" cx="387.46" cy="272.66" r="9.96"/><circle class="cls-5" cx="408.07" cy="293.26" r="9.96"/><circle class="cls-5" cx="387.46" cy="313.74" r="9.96"/><circle class="cls-5" cx="428.54" cy="272.66" r="9.96"/><rect class="cls-4" x="271.37" y="359.03" width="78.51" height="78.51" rx="10.9" transform="translate(621.26 796.58) rotate(180)"/><circle class="cls-5" cx="310.63" cy="398.29" r="9.98"/><rect class="cls-4" x="271.37" y="568.26" width="78.51" height="78.51" rx="10.9" transform="translate(621.26 1215.03) rotate(180)"/><circle class="cls-5" cx="310.63" cy="607.51" r="9.98"/><rect class="cls-6" x="466.21" y="359.23" width="78.31" height="78.31" rx="10.87"/><circle class="cls-5" cx="489.88" cy="373.49" r="9.96"/><circle class="cls-5" cx="489.88" cy="422.33" r="9.96"/><circle class="cls-5" cx="489.88" cy="397.86" r="9.96"/><circle class="cls-5" cx="520.96" cy="373.49" r="9.96"/><circle class="cls-5" cx="520.96" cy="422.33" r="9.96"/><circle class="cls-5" cx="520.96" cy="397.86" r="9.96"/><rect class="cls-4" x="368.74" y="463.65" width="78.51" height="78.51" rx="10.9"/><circle class="cls-5" cx="428.59" cy="523.01" r="9.98"/><circle class="cls-5" cx="387.41" cy="481.83" r="9.98"/><circle class="cls-5" cx="408.07" cy="502.49" r="9.98"/><rect class="cls-6" x="466.28" y="463.75" width="78.31" height="78.31" rx="10.87"/><circle class="cls-5" cx="525.97" cy="522.96" r="9.96"/><circle class="cls-5" cx="484.9" cy="481.88" r="9.96"/><circle class="cls-5" cx="505.5" cy="502.49" r="9.96"/><circle class="cls-5" cx="484.9" cy="522.96" r="9.96"/><circle class="cls-5" cx="525.97" cy="481.88" r="9.96"/><rect class="cls-7" x="368.91" y="568.36" width="78.31" height="78.31" rx="10.87"/><circle class="cls-5" cx="390.58" cy="627.33" r="9.96"/><circle class="cls-5" cx="390.58" cy="588.48" r="9.96"/><circle class="cls-5" cx="425.55" cy="627.33" r="9.96"/><circle class="cls-5" cx="425.55" cy="588.48" r="9.96"/><rect class="cls-6" x="368.91" y="568.36" width="78.31" height="78.31" rx="10.87"/><circle class="cls-5" cx="390.58" cy="627.33" r="9.96"/><circle class="cls-5" cx="390.58" cy="588.48" r="9.96"/><circle class="cls-5" cx="425.55" cy="627.33" r="9.96"/><circle class="cls-5" cx="425.55" cy="588.48" r="9.96"/><rect class="cls-7" x="466.21" y="568.31" width="78.31" height="78.31" rx="10.87"/><circle class="cls-5" cx="487.89" cy="627.28" r="9.96"/><circle class="cls-5" cx="487.89" cy="588.43" r="9.96"/><circle class="cls-5" cx="522.85" cy="627.28" r="9.96"/><circle class="cls-5" cx="522.85" cy="588.43" r="9.96"/><rect class="cls-6" x="466.21" y="568.31" width="78.31" height="78.31" rx="10.87"/><circle class="cls-5" cx="487.89" cy="627.28" r="9.96"/><circle class="cls-5" cx="487.89" cy="588.43" r="9.96"/><circle class="cls-5" cx="522.85" cy="627.28" r="9.96"/><circle class="cls-5" cx="522.85" cy="588.43" r="9.96"/><rect class="cls-6" x="466.23" y="672.95" width="78.31" height="78.31" rx="10.87"/><circle class="cls-5" cx="525.93" cy="732.16" r="9.96"/><circle class="cls-5" cx="484.85" cy="691.09" r="9.96"/><circle class="cls-5" cx="505.45" cy="711.69" r="9.96"/><circle class="cls-5" cx="484.85" cy="732.16" r="9.96"/><circle class="cls-5" cx="525.93" cy="691.09" r="9.96"/><rect class="cls-4" x="271.37" y="777.07" width="78.51" height="78.51" rx="10.9"/><circle class="cls-5" cx="325.78" cy="831.08" r="9.98"/><circle class="cls-5" cx="295.48" cy="800.78" r="9.98"/><rect class="cls-4" x="368.74" y="777.07" width="78.51" height="78.51" rx="10.9"/><circle class="cls-5" cx="428.59" cy="836.43" r="9.98"/><circle class="cls-5" cx="387.41" cy="795.25" r="9.98"/><circle class="cls-5" cx="408.07" cy="815.9" r="9.98"/><rect class="cls-7" x="466.21" y="776.75" width="78.31" height="78.31" rx="10.87"/><circle class="cls-5" cx="487.89" cy="835.72" r="9.96"/><circle class="cls-5" cx="487.89" cy="796.87" r="9.96"/><circle class="cls-5" cx="522.85" cy="835.72" r="9.96"/><circle class="cls-5" cx="522.85" cy="796.87" r="9.96"/><rect class="cls-6" x="466.21" y="776.75" width="78.31" height="78.31" rx="10.87"/><circle class="cls-5" cx="487.89" cy="835.72" r="9.96"/><circle class="cls-5" cx="487.89" cy="796.87" r="9.96"/><circle class="cls-5" cx="522.85" cy="835.72" r="9.96"/><circle class="cls-5" cx="522.85" cy="796.87" r="9.96"/><rect class="cls-4" x="368.81" y="881.68" width="78.51" height="78.51" rx="10.9"/><circle class="cls-5" cx="428.66" cy="941.04" r="9.98"/><circle class="cls-5" cx="387.48" cy="899.86" r="9.98"/><circle class="cls-5" cx="408.13" cy="920.52" r="9.98"/><rect class="cls-4" x="271.37" y="881.26" width="78.51" height="78.51" rx="10.9"/><circle class="cls-5" cx="331.22" cy="940.62" r="9.98"/><circle class="cls-5" cx="290.04" cy="899.44" r="9.98"/><circle class="cls-5" cx="310.7" cy="920.1" r="9.98"/></g></svg>