<svg xmlns="http://www.w3.org/2000/svg" viewBox="0 0 816 1110"><defs><style>.cls-1{fill:#fff;}.cls-2{font-size:161.53px;font-family:TimesNewRomanPSMT, Times New Roman;}.cls-2,.cls-5{fill:#231f20;}.cls-3,.cls-4,.cls-6,.cls-7{fill:none;stroke:#231f20;stroke-miterlimit:10;}.cls-3,.cls-4{stroke-width:1.26px;}.cls-3{stroke-dasharray:12.3 12.3;}.cls-6{stroke-width:1.25px;}.cls-7{stroke-width:0.39px;}</style></defs><g id="Card_Corners" data-name="Card Corners"><path class="cls-1" d="M740.91,1110H75.34A75.07,75.07,0,0,1,.27,1035L0,75.11A75.06,75.06,0,0,1,75.09,0L740.94.25a75.07,75.07,0,0,1,75,75.07v959.61A75.07,75.07,0,0,1,740.91,1110Z"/></g><g id="Black_s" data-name="Black #s"><text class="cls-2" transform="translate(69.77 189.49)">10</text><text class="cls-2" transform="translate(746.63 920.5) rotate(180)">10</text></g><g id="Clubs"><path d="M136.33,268.88a21.76,21.76,0,0,1,1-31,21.5,21.5,0,0,1,28.43-.37,20.51,20.51,0,0,1,7.48,15.21,22.4,22.4,0,0,1-5.77,16.09l2.55-.52a20.74,20.74,0,0,1,22.81,12.15,13.76,13.76,0,0,1,1.33,6.71,12.63,12.63,0,0,0,0,1.74c.3,7.78-3.55,13.31-9.84,17.22A19.64,19.64,0,0,1,159,302.48c-1.29-1.43-2-3.36-3-5.06-.19-.33-.37-.67-.55-1H155a9.06,9.06,0,0,0-.29,1.69c.09,5.85,1.46,11.31,5.19,16a51,51,0,0,0,3.8,3.84,5,5,0,0,1,.76.9.85.85,0,0,1-.62,1.37,5.06,5.06,0,0,1-.87,0c-7.51,0-15,0-22.54,0a5.14,5.14,0,0,1-1.53-.52c.22-.53.3-1.21.69-1.56a24.4,24.4,0,0,0,9.06-20.82,5,5,0,0,0-.07-.54,3.12,3.12,0,0,0-.24-.49,8,8,0,0,0-.88,1.4c-1.8,4.82-5.42,7.86-10,9.84a20.14,20.14,0,0,1-22.59-4.71,20.58,20.58,0,0,1,20.22-34.13A11.78,11.78,0,0,0,136.33,268.88Z"/><path d="M680.36,839.34a21.76,21.76,0,0,1-1,31,21.48,21.48,0,0,1-28.43.37,20.53,20.53,0,0,1-7.49-15.2,22.41,22.41,0,0,1,5.77-16.09l-2.55.52a20.74,20.74,0,0,1-22.81-12.16,13.85,13.85,0,0,1-1.32-6.71,14.27,14.27,0,0,0,0-1.73c-.3-7.79,3.56-13.31,9.84-17.22a19.64,19.64,0,0,1,25.32,3.64c1.3,1.44,2,3.36,3,5.07.19.32.37.66.56,1h.33a9.17,9.17,0,0,0,.28-1.69c-.09-5.85-1.45-11.32-5.18-16a49.29,49.29,0,0,0-3.81-3.84,5.1,5.1,0,0,1-.76-.91.85.85,0,0,1,.63-1.36,5,5,0,0,1,.86,0c7.52,0,15,0,22.55,0a5.17,5.17,0,0,1,1.53.53c-.23.52-.31,1.2-.7,1.55A24.36,24.36,0,0,0,668,810.94a3.07,3.07,0,0,0,.06.53,4.59,4.59,0,0,0,.25.5,9.5,9.5,0,0,0,.87-1.4c1.81-4.82,5.42-7.86,10-9.84a20.16,20.16,0,0,1,22.6,4.71,20.57,20.57,0,0,1-20.22,34.12C681.25,839.48,680.93,839.45,680.36,839.34Z"/></g><g id="Black_Dashed_Dice" data-name="Black Dashed Dice"><rect class="cls-3" x="466.16" y="149.23" width="78.51" height="78.51" rx="10.9"/><rect class="cls-3" x="466.16" y="253.12" width="78.51" height="78.51" rx="10.9"/></g><g id="Black_Center" data-name="Black Center"><rect class="cls-4" x="271.36" y="463.6" width="78.51" height="78.51" rx="10.9" transform="translate(621.23 1005.71) rotate(180)"/><circle class="cls-5" cx="310.62" cy="502.85" r="9.98"/><rect class="cls-4" x="368.73" y="568.21" width="78.51" height="78.51" rx="10.9"/><circle class="cls-5" cx="423.13" cy="622.22" r="9.98"/><circle class="cls-5" cx="392.84" cy="591.93" r="9.98"/><rect class="cls-4" x="271.36" y="568.21" width="78.51" height="78.51" rx="10.9" transform="translate(621.23 1214.93) rotate(180)"/><circle class="cls-5" cx="295.47" cy="592.71" r="9.98"/><circle class="cls-5" cx="325.76" cy="623" r="9.98"/><rect class="cls-4" x="271.36" y="672.4" width="78.51" height="78.51" rx="10.9" transform="translate(621.23 1423.32) rotate(180)"/><circle class="cls-5" cx="295.47" cy="696.9" r="9.98"/><circle class="cls-5" cx="325.76" cy="727.2" r="9.98"/><rect class="cls-4" x="271.46" y="881.21" width="78.51" height="78.51" rx="10.9" transform="translate(621.43 1840.93) rotate(180)"/><circle class="cls-5" cx="290.12" cy="900.36" r="9.98"/><circle class="cls-5" cx="331.3" cy="941.54" r="9.98"/><circle class="cls-5" cx="310.65" cy="920.88" r="9.98"/><rect class="cls-6" x="368.83" y="149.86" width="78.31" height="78.31" rx="10.87"/><circle class="cls-5" cx="392.5" cy="164.11" r="9.96"/><circle class="cls-5" cx="392.5" cy="212.96" r="9.96"/><circle class="cls-5" cx="392.5" cy="188.49" r="9.96"/><circle class="cls-5" cx="423.58" cy="164.11" r="9.96"/><circle class="cls-5" cx="423.58" cy="212.96" r="9.96"/><circle class="cls-5" cx="423.58" cy="188.49" r="9.96"/><rect class="cls-7" x="271.74" y="149.96" width="78.31" height="78.31" rx="10.87"/><circle class="cls-5" cx="293.41" cy="208.93" r="9.96"/><circle class="cls-5" cx="293.41" cy="170.08" r="9.96"/><circle class="cls-5" cx="328.38" cy="208.93" r="9.96"/><circle class="cls-5" cx="328.38" cy="170.08" r="9.96"/><rect class="cls-6" x="271.74" y="149.96" width="78.31" height="78.31" rx="10.87"/><circle class="cls-5" cx="293.41" cy="208.93" r="9.96"/><circle class="cls-5" cx="293.41" cy="170.08" r="9.96"/><circle class="cls-5" cx="328.38" cy="208.93" r="9.96"/><circle class="cls-5" cx="328.38" cy="170.08" r="9.96"/><rect class="cls-6" x="271.74" y="254.47" width="78.31" height="78.31" rx="10.87"/><circle class="cls-5" cx="331.43" cy="313.69" r="9.96"/><circle class="cls-5" cx="290.36" cy="272.61" r="9.96"/><circle class="cls-5" cx="310.96" cy="293.21" r="9.96"/><circle class="cls-5" cx="290.36" cy="313.69" r="9.96"/><circle class="cls-5" cx="331.43" cy="272.61" r="9.96"/><rect class="cls-6" x="368.83" y="254.47" width="78.31" height="78.31" rx="10.87"/><circle class="cls-5" cx="428.52" cy="313.69" r="9.96"/><circle class="cls-5" cx="387.45" cy="272.61" r="9.96"/><circle class="cls-5" cx="408.05" cy="293.21" r="9.96"/><circle class="cls-5" cx="387.45" cy="313.69" r="9.96"/><circle class="cls-5" cx="428.52" cy="272.61" r="9.96"/><rect class="cls-4" x="271.36" y="358.94" width="78.51" height="78.51" rx="10.9" transform="translate(621.23 796.38) rotate(180)"/><circle class="cls-5" cx="310.62" cy="398.19" r="9.98"/><rect class="cls-4" x="368.79" y="358.99" width="78.51" height="78.51" rx="10.9"/><circle class="cls-5" cx="428.64" cy="418.35" r="9.98"/><circle class="cls-5" cx="387.46" cy="377.17" r="9.98"/><circle class="cls-5" cx="408.11" cy="397.82" r="9.98"/><rect class="cls-6" x="466.26" y="359.55" width="78.31" height="78.31" rx="10.87"/><circle class="cls-5" cx="489.93" cy="373.81" r="9.96"/><circle class="cls-5" cx="489.93" cy="422.65" r="9.96"/><circle class="cls-5" cx="489.93" cy="398.18" r="9.96"/><circle class="cls-5" cx="521.01" cy="373.81" r="9.96"/><circle class="cls-5" cx="521.01" cy="422.65" r="9.96"/><circle class="cls-5" cx="521.01" cy="398.18" r="9.96"/><rect class="cls-7" x="368.83" y="463.28" width="78.31" height="78.31" rx="10.87"/><circle class="cls-5" cx="390.5" cy="522.25" r="9.96"/><circle class="cls-5" cx="390.5" cy="483.4" r="9.96"/><circle class="cls-5" cx="425.47" cy="522.25" r="9.96"/><circle class="cls-5" cx="425.47" cy="483.4" r="9.96"/><rect class="cls-6" x="368.83" y="463.28" width="78.31" height="78.31" rx="10.87"/><circle class="cls-5" cx="390.5" cy="522.25" r="9.96"/><circle class="cls-5" cx="390.5" cy="483.4" r="9.96"/><circle class="cls-5" cx="425.47" cy="522.25" r="9.96"/><circle class="cls-5" cx="425.47" cy="483.4" r="9.96"/><rect class="cls-6" x="466.26" y="463.28" width="78.31" height="78.31" rx="10.87"/><circle class="cls-5" cx="525.96" cy="522.49" r="9.96"/><circle class="cls-5" cx="484.88" cy="481.42" r="9.96"/><circle class="cls-5" cx="505.48" cy="502.02" r="9.96"/><circle class="cls-5" cx="484.88" cy="522.49" r="9.96"/><circle class="cls-5" cx="525.96" cy="481.42" r="9.96"/><rect class="cls-6" x="466.33" y="567.89" width="78.31" height="78.31" rx="10.87"/><circle class="cls-5" cx="490" cy="582.14" r="9.96"/><circle class="cls-5" cx="490" cy="630.99" r="9.96"/><circle class="cls-5" cx="490" cy="606.52" r="9.96"/><circle class="cls-5" cx="521.08" cy="582.14" r="9.96"/><circle class="cls-5" cx="521.08" cy="630.99" r="9.96"/><circle class="cls-5" cx="521.08" cy="606.52" r="9.96"/><rect class="cls-4" x="368.73" y="672.82" width="78.51" height="78.51" rx="10.9"/><circle class="cls-5" cx="428.57" cy="732.18" r="9.98"/><circle class="cls-5" cx="387.39" cy="691" r="9.98"/><circle class="cls-5" cx="408.05" cy="711.66" r="9.98"/><rect class="cls-6" x="466.33" y="672.92" width="78.31" height="78.31" rx="10.87"/><circle class="cls-5" cx="526.02" cy="732.13" r="9.96"/><circle class="cls-5" cx="484.95" cy="691.06" r="9.96"/><circle class="cls-5" cx="505.55" cy="711.66" r="9.96"/><circle class="cls-5" cx="484.95" cy="732.13" r="9.96"/><circle class="cls-5" cx="526.02" cy="691.06" r="9.96"/><rect class="cls-4" x="271.36" y="777.43" width="78.51" height="78.51" rx="10.9"/><circle class="cls-5" cx="325.76" cy="831.45" r="9.98"/><circle class="cls-5" cx="295.47" cy="801.15" r="9.98"/><rect class="cls-7" x="368.89" y="777.11" width="78.31" height="78.31" rx="10.87"/><circle class="cls-5" cx="390.57" cy="836.08" r="9.96"/><circle class="cls-5" cx="390.57" cy="797.24" r="9.96"/><circle class="cls-5" cx="425.53" cy="836.08" r="9.96"/><circle class="cls-5" cx="425.53" cy="797.24" r="9.96"/><rect class="cls-6" x="368.89" y="777.11" width="78.31" height="78.31" rx="10.87"/><circle class="cls-5" cx="390.57" cy="836.08" r="9.96"/><circle class="cls-5" cx="390.57" cy="797.24" r="9.96"/><circle class="cls-5" cx="425.53" cy="836.08" r="9.96"/><circle class="cls-5" cx="425.53" cy="797.24" r="9.96"/><rect class="cls-7" x="466.2" y="777.11" width="78.31" height="78.31" rx="10.87"/><circle class="cls-5" cx="487.87" cy="836.08" r="9.96"/><circle class="cls-5" cx="487.87" cy="797.24" r="9.96"/><circle class="cls-5" cx="522.84" cy="836.08" r="9.96"/><circle class="cls-5" cx="522.84" cy="797.24" r="9.96"/><rect class="cls-6" x="466.2" y="777.11" width="78.31" height="78.31" rx="10.87"/><circle class="cls-5" cx="487.87" cy="836.08" r="9.96"/><circle class="cls-5" cx="487.87" cy="797.24" r="9.96"/><circle class="cls-5" cx="522.84" cy="836.08" r="9.96"/><circle class="cls-5" cx="522.84" cy="797.24" r="9.96"/><rect class="cls-4" x="368.83" y="881.63" width="78.51" height="78.51" rx="10.9" transform="translate(816.17 1841.77) rotate(180)"/><circle class="cls-5" cx="387.49" cy="900.77" r="9.98"/><circle class="cls-5" cx="428.67" cy="941.95" r="9.98"/><circle class="cls-5" cx="408.02" cy="921.3" r="9.98"/><rect class="cls-7" x="466.3" y="881.31" width="78.31" height="78.31" rx="10.87" transform="translate(1010.9 1840.93) rotate(180)"/><circle class="cls-5" cx="522.93" cy="900.65" r="9.96"/><circle class="cls-5" cx="522.93" cy="939.5" r="9.96"/><circle class="cls-5" cx="487.97" cy="900.65" r="9.96"/><circle class="cls-5" cx="487.97" cy="939.5" r="9.96"/><rect class="cls-6" x="466.3" y="881.31" width="78.31" height="78.31" rx="10.87" transform="translate(1010.9 1840.93) rotate(180)"/><circle class="cls-5" cx="522.93" cy="900.65" r="9.96"/><circle class="cls-5" cx="522.93" cy="939.5" r="9.96"/><circle class="cls-5" cx="487.97" cy="900.65" r="9.96"/><circle class="cls-5" cx="487.97" cy="939.5" r="9.96"/></g></svg>