<svg xmlns="http://www.w3.org/2000/svg" viewBox="0 0 816 1110"><defs><style>.cls-1{fill:#fff;}.cls-2{font-size:161.53px;font-family:TimesNewRomanPSMT, Times New Roman;letter-spacing:-0.06em;}.cls-2,.cls-4,.cls-5,.cls-7{fill:#231f20;}.cls-3{fill:none;stroke:#231f20;stroke-miterlimit:10;stroke-width:1.26px;}.cls-5{font-size:196.46px;}.cls-5,.cls-7{font-family:TimesNewRomanPS-ItalicMT, Times New Roman;font-style:italic;}.cls-6{letter-spacing:-0.07em;}.cls-7{font-size:78.58px;}</style></defs><g id="Card_Corners" data-name="Card Corners"><path class="cls-1" d="M740.23,1110H74.65A75.06,75.06,0,0,1-.41,1035L-.69,75.11A75.07,75.07,0,0,1,74.41,0L740.25.25a75.07,75.07,0,0,1,75,75.07v959.61A75.07,75.07,0,0,1,740.23,1110Z"/></g><g id="Black_s" data-name="Black #s"><text class="cls-2" transform="translate(80.78 189.49)">A</text><text class="cls-2" transform="translate(736.63 920.51) rotate(180)">A</text></g><g id="Clubs"><path d="M122.32,269.77a21.75,21.75,0,0,1,1-31,21.49,21.49,0,0,1,28.43-.37,20.52,20.52,0,0,1,7.48,15.2,22.4,22.4,0,0,1-5.77,16.1l2.55-.52a20.73,20.73,0,0,1,22.81,12.15,13.76,13.76,0,0,1,1.33,6.71,12.62,12.62,0,0,0,0,1.74c.3,7.78-3.55,13.3-9.84,17.21a19.63,19.63,0,0,1-25.32-3.64c-1.3-1.43-2.05-3.36-3.05-5.06-.19-.33-.37-.67-.55-1H141a9,9,0,0,0-.29,1.68c.09,5.85,1.46,11.32,5.19,16a52.91,52.91,0,0,0,3.8,3.84,5,5,0,0,1,.76.9.84.84,0,0,1-.63,1.36,4.91,4.91,0,0,1-.86,0c-7.52,0-15,0-22.54,0a5.14,5.14,0,0,1-1.53-.52c.22-.53.3-1.21.69-1.56a24.4,24.4,0,0,0,9.06-20.83,4.51,4.51,0,0,0-.07-.53,3.12,3.12,0,0,0-.24-.49,8.39,8.39,0,0,0-.88,1.39c-1.8,4.83-5.42,7.87-10,9.85a20.16,20.16,0,0,1-22.59-4.72,20.47,20.47,0,0,1,9.1-34,20.27,20.27,0,0,1,11.11-.09C121.44,269.63,121.75,269.67,122.32,269.77Z"/><path d="M694.37,840.23a21.76,21.76,0,0,1-1,31,21.49,21.49,0,0,1-28.43.37,20.53,20.53,0,0,1-7.49-15.2,22.45,22.45,0,0,1,5.77-16.1l-2.55.52a20.73,20.73,0,0,1-22.81-12.15,13.87,13.87,0,0,1-1.32-6.71,14.43,14.43,0,0,0,0-1.74c-.29-7.78,3.56-13.3,9.84-17.21a19.62,19.62,0,0,1,25.32,3.64c1.3,1.43,2,3.36,3,5.06.2.33.37.67.56,1h.33A9.85,9.85,0,0,0,676,811c-.1-5.85-1.46-11.32-5.19-16a52.91,52.91,0,0,0-3.8-3.84,5,5,0,0,1-.77-.9.84.84,0,0,1,.63-1.36,5,5,0,0,1,.87,0c7.51,0,15,0,22.54,0a5.14,5.14,0,0,1,1.53.52c-.23.53-.31,1.21-.69,1.56A24.4,24.4,0,0,0,682,811.83a3.07,3.07,0,0,0,.06.53c0,.07.07.13.25.49a9,9,0,0,0,.87-1.39c1.81-4.83,5.43-7.87,10-9.85a20.16,20.16,0,0,1,22.59,4.72,20.57,20.57,0,0,1-20.22,34.12C695.26,840.37,694.94,840.33,694.37,840.23Z"/></g><g id="Black_Center" data-name="Black Center"><rect class="cls-3" x="376.41" y="328.15" width="78.51" height="78.51" rx="10.9" transform="translate(831.33 734.82) rotate(180)"/><circle class="cls-4" cx="415.66" cy="367.41" r="9.98"/><text class="cls-5" transform="translate(308.9 724.45)"><tspan class="cls-6">1</tspan><tspan x="83.65" y="0">1</tspan></text><text class="cls-7" transform="translate(383.27 517.92)">or</text></g></svg>