<svg xmlns="http://www.w3.org/2000/svg" viewBox="0 0 816 1110"><defs><style>.cls-1{fill:#fff;}.cls-2{font-size:161.53px;font-family:TimesNewRomanPSMT, Times New Roman;}.cls-2,.cls-5{fill:#231f20;}.cls-3,.cls-4,.cls-6,.cls-7{fill:none;stroke:#231f20;stroke-miterlimit:10;}.cls-3,.cls-4{stroke-width:1.26px;}.cls-3{stroke-dasharray:12.3 12.3;}.cls-6{stroke-width:1.25px;}.cls-7{stroke-width:0.39px;}</style></defs><g id="Card_Corners" data-name="Card Corners"><path class="cls-1" d="M740.93,1110H75.36a75.06,75.06,0,0,1-75.07-75L0,75.09A75.07,75.07,0,0,1,75.11,0L741,.23a75.06,75.06,0,0,1,75,75.06v959.62A75.06,75.06,0,0,1,740.93,1110Z"/></g><g id="Black_s" data-name="Black #s"><text class="cls-2" transform="translate(69.77 189.49)">6</text><text class="cls-2" transform="translate(746.63 920.5) rotate(180)">6</text></g><g id="Spades"><path d="M121.2,297.34a5.09,5.09,0,0,0-.34,1.17c-.18,6.76,1.51,12.94,5.85,18.23a46.44,46.44,0,0,0,3.62,3.53,3.19,3.19,0,0,1,.68.75c.17.34.39.86.24,1.09s-.7.42-1.1.56a1.87,1.87,0,0,1-.67,0c-8,0-16,0-24,0a5.06,5.06,0,0,1-1.56-.53c.23-.55.31-1.25.71-1.62a30.09,30.09,0,0,0,6.65-8,28.42,28.42,0,0,0,3-13.93,5.2,5.2,0,0,0-.1-.78,3.45,3.45,0,0,0-.26-.5,5.27,5.27,0,0,0-.68,1,17.91,17.91,0,0,1-7.26,9,19.71,19.71,0,0,1-27.6-7.45,22.45,22.45,0,0,1-3-13.4,32.54,32.54,0,0,1,5-14.17,71.85,71.85,0,0,1,14.83-16.66,132.62,132.62,0,0,0,21.61-23.3,7.47,7.47,0,0,1,.62-.71,2.24,2.24,0,0,1,.54.41c7.13,10.1,16,18.58,25.22,26.69,6.13,5.36,11.26,11.64,14.34,19.25,3.37,8.34,3.3,16.61-2.38,24.12-3.95,5.23-9.25,8.31-15.92,8.1-8-.26-14-3.78-17.16-11.43-.16-.38-.34-.75-.52-1.12C121.6,297.59,121.51,297.56,121.2,297.34Z"/><path d="M694.8,812.66a5.09,5.09,0,0,0,.34-1.17c.18-6.76-1.51-12.94-5.85-18.23a46.44,46.44,0,0,0-3.62-3.53A3.19,3.19,0,0,1,685,789c-.17-.34-.39-.86-.24-1.09s.7-.42,1.1-.56a1.87,1.87,0,0,1,.67,0c8,0,16,0,24,0a5.06,5.06,0,0,1,1.56.53c-.23.55-.31,1.25-.71,1.62a30,30,0,0,0-6.65,8,28.36,28.36,0,0,0-3,13.92,5.2,5.2,0,0,0,.1.78,3.45,3.45,0,0,0,.26.5,5.27,5.27,0,0,0,.68-1,17.91,17.91,0,0,1,7.26-9,19.71,19.71,0,0,1,27.6,7.45,22.45,22.45,0,0,1,3,13.4,32.54,32.54,0,0,1-5,14.17,71.85,71.85,0,0,1-14.83,16.66,132.62,132.62,0,0,0-21.61,23.3,7.47,7.47,0,0,1-.62.71A2.24,2.24,0,0,1,698,878c-7.13-10.1-16-18.58-25.22-26.69-6.13-5.36-11.26-11.64-14.34-19.25-3.37-8.34-3.3-16.61,2.38-24.12,4-5.23,9.25-8.31,15.92-8.1,8,.26,14,3.78,17.16,11.43.16.38.34.75.52,1.12C694.4,812.41,694.49,812.44,694.8,812.66Z"/></g><g id="Black_Dashed_Dice" data-name="Black Dashed Dice"><rect class="cls-3" x="368.71" y="202.12" width="78.51" height="78.51" rx="10.9"/><rect class="cls-3" x="466.36" y="202.12" width="78.51" height="78.51" rx="10.9"/><rect class="cls-3" x="466.36" y="306.01" width="78.51" height="78.51" rx="10.9"/><rect class="cls-3" x="466.36" y="409.9" width="78.51" height="78.51" rx="10.9"/><rect class="cls-3" x="466.36" y="513.78" width="78.51" height="78.51" rx="10.9"/></g><g id="Black_Center" data-name="Black Center"><rect class="cls-4" x="271.23" y="306.42" width="78.51" height="78.51" rx="10.9" transform="translate(620.98 691.36) rotate(180)"/><circle class="cls-5" cx="310.49" cy="345.68" r="9.98"/><rect class="cls-4" x="271.23" y="411.03" width="78.51" height="78.51" rx="10.9" transform="translate(620.98 900.58) rotate(180)"/><circle class="cls-5" cx="295.34" cy="435.53" r="9.98"/><circle class="cls-5" cx="325.64" cy="465.83" r="9.98"/><rect class="cls-4" x="368.6" y="829.48" width="78.51" height="78.51" rx="10.9"/><circle class="cls-5" cx="423.01" cy="883.49" r="9.98"/><circle class="cls-5" cx="392.71" cy="853.2" r="9.98"/><rect class="cls-4" x="368.6" y="724.87" width="78.51" height="78.51" rx="10.9"/><circle class="cls-5" cx="423.01" cy="778.88" r="9.98"/><circle class="cls-5" cx="392.71" cy="748.59" r="9.98"/><rect class="cls-4" x="465.97" y="724.87" width="78.51" height="78.51" rx="10.9"/><circle class="cls-5" cx="525.82" cy="784.23" r="9.98"/><circle class="cls-5" cx="484.64" cy="743.05" r="9.98"/><circle class="cls-5" cx="505.29" cy="763.71" r="9.98"/><rect class="cls-6" x="271.33" y="202.01" width="78.31" height="78.31" rx="10.87"/><circle class="cls-5" cx="295" cy="216.26" r="9.96"/><circle class="cls-5" cx="295" cy="265.11" r="9.96"/><circle class="cls-5" cx="295" cy="240.63" r="9.96"/><circle class="cls-5" cx="326.08" cy="216.26" r="9.96"/><circle class="cls-5" cx="326.08" cy="265.11" r="9.96"/><circle class="cls-5" cx="326.08" cy="240.63" r="9.96"/><rect class="cls-6" x="368.98" y="306.52" width="78.31" height="78.31" rx="10.87"/><circle class="cls-5" cx="428.68" cy="365.74" r="9.96"/><circle class="cls-5" cx="387.6" cy="324.66" r="9.96"/><circle class="cls-5" cx="408.2" cy="345.26" r="9.96"/><circle class="cls-5" cx="387.6" cy="365.74" r="9.96"/><circle class="cls-5" cx="428.68" cy="324.66" r="9.96"/><rect class="cls-7" x="368.7" y="411.08" width="78.31" height="78.31" rx="10.87"/><circle class="cls-5" cx="390.38" cy="470.05" r="9.96"/><circle class="cls-5" cx="390.38" cy="431.2" r="9.96"/><circle class="cls-5" cx="425.34" cy="470.05" r="9.96"/><circle class="cls-5" cx="425.34" cy="431.2" r="9.96"/><rect class="cls-6" x="368.7" y="411.08" width="78.31" height="78.31" rx="10.87"/><circle class="cls-5" cx="390.38" cy="470.05" r="9.96"/><circle class="cls-5" cx="390.38" cy="431.2" r="9.96"/><circle class="cls-5" cx="425.34" cy="470.05" r="9.96"/><circle class="cls-5" cx="425.34" cy="431.2" r="9.96"/><rect class="cls-4" x="271.23" y="515.65" width="78.51" height="78.51" rx="10.9"/><circle class="cls-5" cx="331.08" cy="575.01" r="9.98"/><circle class="cls-5" cx="289.9" cy="533.83" r="9.98"/><circle class="cls-5" cx="310.56" cy="554.48" r="9.98"/><rect class="cls-4" x="368.6" y="515.65" width="78.51" height="78.51" rx="10.9"/><circle class="cls-5" cx="428.45" cy="575.01" r="9.98"/><circle class="cls-5" cx="387.27" cy="533.83" r="9.98"/><circle class="cls-5" cx="407.93" cy="554.48" r="9.98"/><rect class="cls-4" x="271.3" y="620.26" width="78.51" height="78.51" rx="10.9" transform="translate(621.11 1319.03) rotate(180)"/><circle class="cls-5" cx="310.56" cy="659.51" r="9.98"/><rect class="cls-4" x="368.6" y="620.26" width="78.51" height="78.51" rx="10.9" transform="translate(815.72 1319.03) rotate(180)"/><circle class="cls-5" cx="407.86" cy="659.51" r="9.98"/><rect class="cls-7" x="466.07" y="620.45" width="78.31" height="78.31" rx="10.87"/><circle class="cls-5" cx="487.75" cy="679.43" r="9.96"/><circle class="cls-5" cx="487.75" cy="640.58" r="9.96"/><circle class="cls-5" cx="522.71" cy="679.43" r="9.96"/><circle class="cls-5" cx="522.71" cy="640.58" r="9.96"/><rect class="cls-6" x="466.07" y="620.45" width="78.31" height="78.31" rx="10.87"/><circle class="cls-5" cx="487.75" cy="679.43" r="9.96"/><circle class="cls-5" cx="487.75" cy="640.58" r="9.96"/><circle class="cls-5" cx="522.71" cy="679.43" r="9.96"/><circle class="cls-5" cx="522.71" cy="640.58" r="9.96"/><rect class="cls-4" x="271.3" y="724.45" width="78.51" height="78.51" rx="10.9" transform="translate(621.11 1527.42) rotate(180)"/><circle class="cls-5" cx="310.56" cy="763.71" r="9.98"/><rect class="cls-4" x="271.3" y="829.06" width="78.51" height="78.51" rx="10.9"/><circle class="cls-5" cx="325.7" cy="883.08" r="9.98"/><circle class="cls-5" cx="295.41" cy="852.78" r="9.98"/><rect class="cls-4" x="466.25" y="829.48" width="78.51" height="78.51" rx="10.9"/><circle class="cls-5" cx="520.66" cy="883.49" r="9.98"/><circle class="cls-5" cx="490.36" cy="853.2" r="9.98"/></g></svg>