<svg xmlns="http://www.w3.org/2000/svg" viewBox="0 0 816 1110"><defs><style>.cls-1{fill:#fff;}.cls-2{font-size:161.53px;font-family:TimesNewRomanPSMT, Times New Roman;}.cls-2,.cls-3,.cls-4{fill:#231f20;}.cls-3{font-size:196.46px;}.cls-3,.cls-4{font-family:TimesNewRomanPS-ItalicMT, Times New Roman;font-style:italic;}.cls-4{font-size:78.58px;}</style></defs><g id="Card_Corners" data-name="Card Corners"><path class="cls-1" d="M740.2,1110H74.63A75.06,75.06,0,0,1-.43,1035L-.71,75.11A75.07,75.07,0,0,1,74.39,0L740.23.25a75.07,75.07,0,0,1,75,75.07v959.61A75.07,75.07,0,0,1,740.2,1110Z"/></g><g id="Black_s" data-name="Black #s"><text class="cls-2" transform="translate(82.79 189.52)">K</text><text class="cls-2" transform="translate(733.63 920.53) rotate(180)">K</text></g><g id="Clubs"><path d="M122.32,268.88a21.75,21.75,0,0,1,1-31,21.5,21.5,0,0,1,28.43-.37,20.54,20.54,0,0,1,7.48,15.21,22.4,22.4,0,0,1-5.77,16.09l2.55-.52a20.74,20.74,0,0,1,22.81,12.15,13.76,13.76,0,0,1,1.33,6.71,12.63,12.63,0,0,0,0,1.74c.3,7.78-3.55,13.31-9.84,17.22a19.64,19.64,0,0,1-25.32-3.65c-1.3-1.43-2.05-3.36-3.05-5.06-.19-.33-.37-.67-.55-1H141a9.06,9.06,0,0,0-.29,1.69c.09,5.85,1.46,11.31,5.19,16a51,51,0,0,0,3.8,3.84,5,5,0,0,1,.76.9.85.85,0,0,1-.63,1.37,4.92,4.92,0,0,1-.86,0c-7.52,0-15,0-22.54,0a5.14,5.14,0,0,1-1.53-.52c.22-.53.3-1.21.69-1.56a24.4,24.4,0,0,0,9.06-20.82,5,5,0,0,0-.07-.54,3.12,3.12,0,0,0-.24-.49,8,8,0,0,0-.88,1.4c-1.8,4.82-5.42,7.86-10,9.84a20.14,20.14,0,0,1-22.59-4.71,20.48,20.48,0,0,1,9.1-34,20.27,20.27,0,0,1,11.11-.09C121.44,268.75,121.75,268.78,122.32,268.88Z"/><path d="M694.37,839.34a21.76,21.76,0,0,1-1,31,21.48,21.48,0,0,1-28.43.37,20.53,20.53,0,0,1-7.49-15.2,22.41,22.41,0,0,1,5.77-16.09l-2.55.52a20.74,20.74,0,0,1-22.81-12.16,13.85,13.85,0,0,1-1.32-6.71,14.27,14.27,0,0,0,0-1.73c-.29-7.79,3.56-13.31,9.84-17.22a19.64,19.64,0,0,1,25.32,3.64c1.3,1.44,2,3.36,3,5.07.2.32.37.66.56,1h.33a10.13,10.13,0,0,0,.29-1.69c-.1-5.85-1.46-11.32-5.19-16a49.16,49.16,0,0,0-3.8-3.84,4.76,4.76,0,0,1-.77-.91.85.85,0,0,1,.63-1.36,5,5,0,0,1,.87,0c7.51,0,15,0,22.54,0a5.17,5.17,0,0,1,1.53.53c-.23.52-.31,1.2-.69,1.55A24.4,24.4,0,0,0,682,810.94a3.07,3.07,0,0,0,.06.53c0,.07.07.13.25.5a9.5,9.5,0,0,0,.87-1.4c1.81-4.82,5.43-7.86,10-9.84a20.14,20.14,0,0,1,22.59,4.71,20.57,20.57,0,0,1-20.22,34.12C695.26,839.48,694.94,839.45,694.37,839.34Z"/></g><g id="Black_Center" data-name="Black Center"><text class="cls-3" transform="translate(297.73 802.45)">18</text><text class="cls-4" transform="translate(380.64 575.48)">to</text><text class="cls-3" transform="translate(302.1 436.56)">10</text></g></svg>