<svg xmlns="http://www.w3.org/2000/svg" viewBox="0 0 816 1110"><defs><style>.cls-1{fill:#fff;}.cls-2{font-size:161.53px;font-family:TimesNewRomanPSMT, Times New Roman;}.cls-2,.cls-3,.cls-4{fill:#231f20;}.cls-3{font-size:196.46px;}.cls-3,.cls-4{font-family:TimesNewRomanPS-ItalicMT, Times New Roman;font-style:italic;}.cls-4{font-size:78.58px;}</style></defs><g id="Card_Corners" data-name="Card Corners"><path class="cls-1" d="M740.89,1110H75.32A75.07,75.07,0,0,1,.25,1035L0,75.11A75.06,75.06,0,0,1,75.07,0L740.92.25a75.08,75.08,0,0,1,75,75.07v959.61A75.07,75.07,0,0,1,740.89,1110Z"/></g><g id="Black_s" data-name="Black #s"><text class="cls-2" transform="translate(740.64 920.53) rotate(180)">Q</text><text class="cls-2" transform="translate(75.79 189.52)">Q</text></g><g id="Clubs"><path d="M122.32,288.9a21.75,21.75,0,0,1,1-31,21.47,21.47,0,0,1,28.43-.37,20.52,20.52,0,0,1,7.48,15.2,22.37,22.37,0,0,1-5.77,16.09l2.55-.52a20.73,20.73,0,0,1,22.81,12.16,13.74,13.74,0,0,1,1.33,6.71,12.49,12.49,0,0,0,0,1.73c.3,7.79-3.55,13.31-9.84,17.22a19.64,19.64,0,0,1-25.32-3.64c-1.3-1.44-2.05-3.36-3.05-5.07-.19-.32-.37-.66-.55-1H141a9.2,9.2,0,0,0-.29,1.69c.09,5.85,1.46,11.32,5.19,16a49.16,49.16,0,0,0,3.8,3.84,4.71,4.71,0,0,1,.76.91.85.85,0,0,1-.63,1.36,4.91,4.91,0,0,1-.86,0c-7.52,0-15,0-22.54,0a5.17,5.17,0,0,1-1.53-.53c.22-.52.3-1.2.69-1.55a24.4,24.4,0,0,0,9.06-20.83,4.51,4.51,0,0,0-.07-.53,3.43,3.43,0,0,0-.24-.5,8.86,8.86,0,0,0-.88,1.4c-1.8,4.82-5.42,7.86-10,9.84a20.14,20.14,0,0,1-22.59-4.71,20.56,20.56,0,0,1,20.21-34.12C121.44,288.76,121.75,288.79,122.32,288.9Z"/><path d="M694.37,819.33a21.75,21.75,0,0,1-1,31,21.48,21.48,0,0,1-28.43.37,20.51,20.51,0,0,1-7.49-15.2,22.42,22.42,0,0,1,5.77-16.09l-2.55.52a20.74,20.74,0,0,1-22.81-12.16,13.83,13.83,0,0,1-1.32-6.71,14.26,14.26,0,0,0,0-1.73c-.29-7.78,3.56-13.31,9.84-17.22a19.64,19.64,0,0,1,25.32,3.65c1.3,1.43,2,3.36,3,5.06.2.33.37.67.56,1h.33a10,10,0,0,0,.29-1.69c-.1-5.85-1.46-11.31-5.19-16a51,51,0,0,0-3.8-3.84,4.76,4.76,0,0,1-.77-.91.85.85,0,0,1,.63-1.36,5,5,0,0,1,.87,0c7.51,0,15,0,22.54,0a5.14,5.14,0,0,1,1.53.52c-.23.53-.31,1.21-.69,1.56a26.4,26.4,0,0,0-6.69,8.4A26.71,26.71,0,0,0,682,790.92a3.31,3.31,0,0,0,.06.54c0,.07.07.13.25.49a9,9,0,0,0,.87-1.4c1.81-4.82,5.43-7.86,10-9.84a20.14,20.14,0,0,1,22.59,4.71,20.57,20.57,0,0,1-20.22,34.12C695.26,819.46,694.94,819.43,694.37,819.33Z"/></g><g id="Black_Center" data-name="Black Center"><text class="cls-3" transform="translate(297.73 802.45)">18</text><text class="cls-4" transform="translate(380.64 575.48)">to</text><text class="cls-3" transform="translate(302.1 436.56)">10</text></g></svg>