<svg xmlns="http://www.w3.org/2000/svg" viewBox="0 0 816 1110"><defs><style>.cls-1{fill:#fff;}.cls-2{font-size:161.53px;font-family:TimesNewRomanPSMT, Times New Roman;}.cls-2,.cls-5{fill:#231f20;}.cls-3,.cls-4,.cls-6,.cls-7{fill:none;stroke:#231f20;stroke-miterlimit:10;}.cls-3,.cls-4{stroke-width:1.26px;}.cls-3{stroke-dasharray:12.3 12.3;}.cls-6{stroke-width:1.25px;}.cls-7{stroke-width:0.39px;}</style></defs><g id="Card_Corners" data-name="Card Corners"><path class="cls-1" d="M740.93,1110H75.36A75.07,75.07,0,0,1,.29,1035L0,75.11A75.06,75.06,0,0,1,75.11,0L741,.25a75.07,75.07,0,0,1,75,75.07v959.61A75.07,75.07,0,0,1,740.93,1110Z"/></g><g id="Black_s" data-name="Black #s"><text class="cls-2" transform="translate(69.77 189.49)">7</text><text class="cls-2" transform="translate(746.63 920.5) rotate(180)">7</text></g><g id="Spades"><path d="M121.2,297.34a5.09,5.09,0,0,0-.34,1.17c-.18,6.76,1.51,12.94,5.85,18.23a46.44,46.44,0,0,0,3.62,3.53,3.19,3.19,0,0,1,.68.75c.17.34.39.86.24,1.09s-.7.42-1.1.56a1.87,1.87,0,0,1-.67,0c-8,0-16,0-24,0a5.06,5.06,0,0,1-1.56-.53c.23-.55.31-1.25.71-1.62a30.09,30.09,0,0,0,6.65-8,28.42,28.42,0,0,0,3-13.93,5.2,5.2,0,0,0-.1-.78,3.45,3.45,0,0,0-.26-.5,5.27,5.27,0,0,0-.68,1,17.91,17.91,0,0,1-7.26,9,19.71,19.71,0,0,1-27.6-7.45,22.45,22.45,0,0,1-3-13.4,32.54,32.54,0,0,1,5-14.17,71.85,71.85,0,0,1,14.83-16.66,132.62,132.62,0,0,0,21.61-23.3,7.47,7.47,0,0,1,.62-.71,2.24,2.24,0,0,1,.54.41c7.13,10.1,16,18.58,25.22,26.69,6.13,5.36,11.26,11.64,14.34,19.25,3.37,8.34,3.3,16.61-2.38,24.12-3.95,5.23-9.25,8.31-15.92,8.1-8-.26-14-3.78-17.16-11.43-.16-.38-.34-.75-.52-1.12C121.6,297.59,121.51,297.56,121.2,297.34Z"/><path d="M694.8,812.66a5.09,5.09,0,0,0,.34-1.17c.18-6.76-1.51-12.94-5.85-18.23a46.44,46.44,0,0,0-3.62-3.53A3.19,3.19,0,0,1,685,789c-.17-.34-.39-.86-.24-1.09s.7-.42,1.1-.56a1.87,1.87,0,0,1,.67,0c8,0,16,0,24,0a5.06,5.06,0,0,1,1.56.53c-.23.55-.31,1.25-.71,1.62a30,30,0,0,0-6.65,8,28.36,28.36,0,0,0-3,13.92,5.2,5.2,0,0,0,.1.78,3.45,3.45,0,0,0,.26.5,5.27,5.27,0,0,0,.68-1,17.91,17.91,0,0,1,7.26-9,19.71,19.71,0,0,1,27.6,7.45,22.45,22.45,0,0,1,3,13.4,32.54,32.54,0,0,1-5,14.17,71.85,71.85,0,0,1-14.83,16.66,132.62,132.62,0,0,0-21.61,23.3,7.47,7.47,0,0,1-.62.71A2.24,2.24,0,0,1,698,878c-7.13-10.1-16-18.58-25.22-26.69-6.13-5.36-11.26-11.64-14.34-19.25-3.37-8.34-3.3-16.61,2.38-24.12,4-5.23,9.25-8.31,15.92-8.1,8,.26,14,3.78,17.16,11.43.16.38.34.75.52,1.12C694.4,812.41,694.49,812.44,694.8,812.66Z"/></g><g id="Black_Dashed_Dice" data-name="Black Dashed Dice"><rect class="cls-3" x="465.94" y="203.28" width="78.51" height="78.51" rx="10.9"/><rect class="cls-3" x="465.94" y="307.17" width="78.51" height="78.51" rx="10.9"/><rect class="cls-3" x="465.94" y="411.06" width="78.51" height="78.51" rx="10.9"/></g><g id="Black_Center" data-name="Black Center"><rect class="cls-4" x="271.2" y="202.55" width="78.51" height="78.51" rx="10.9" transform="translate(620.92 483.62) rotate(180)"/><circle class="cls-5" cx="310.46" cy="241.81" r="9.98"/><rect class="cls-4" x="271.2" y="307.17" width="78.51" height="78.51" rx="10.9" transform="translate(620.92 692.85) rotate(180)"/><circle class="cls-5" cx="295.31" cy="331.67" r="9.98"/><circle class="cls-5" cx="325.61" cy="361.96" r="9.98"/><rect class="cls-6" x="368.67" y="202.75" width="78.31" height="78.31" rx="10.87"/><circle class="cls-5" cx="392.34" cy="217.01" r="9.96"/><circle class="cls-5" cx="392.34" cy="265.85" r="9.96"/><circle class="cls-5" cx="392.34" cy="241.38" r="9.96"/><circle class="cls-5" cx="423.42" cy="217.01" r="9.96"/><circle class="cls-5" cx="423.42" cy="265.85" r="9.96"/><circle class="cls-5" cx="423.42" cy="241.38" r="9.96"/><rect class="cls-6" x="368.67" y="307.27" width="78.31" height="78.31" rx="10.87"/><circle class="cls-5" cx="428.37" cy="366.48" r="9.96"/><circle class="cls-5" cx="387.29" cy="325.4" r="9.96"/><circle class="cls-5" cx="407.89" cy="346.01" r="9.96"/><circle class="cls-5" cx="387.29" cy="366.48" r="9.96"/><circle class="cls-5" cx="428.37" cy="325.4" r="9.96"/><rect class="cls-4" x="271.2" y="411.78" width="78.51" height="78.51" rx="10.9"/><circle class="cls-5" cx="331.05" cy="471.14" r="9.98"/><circle class="cls-5" cx="289.87" cy="429.96" r="9.98"/><circle class="cls-5" cx="310.52" cy="450.62" r="9.98"/><rect class="cls-7" x="368.74" y="411.83" width="78.31" height="78.31" rx="10.87"/><circle class="cls-5" cx="390.41" cy="470.8" r="9.96"/><circle class="cls-5" cx="390.41" cy="431.95" r="9.96"/><circle class="cls-5" cx="425.38" cy="470.8" r="9.96"/><circle class="cls-5" cx="425.38" cy="431.95" r="9.96"/><rect class="cls-6" x="368.74" y="411.83" width="78.31" height="78.31" rx="10.87"/><circle class="cls-5" cx="390.41" cy="470.8" r="9.96"/><circle class="cls-5" cx="390.41" cy="431.95" r="9.96"/><circle class="cls-5" cx="425.38" cy="470.8" r="9.96"/><circle class="cls-5" cx="425.38" cy="431.95" r="9.96"/><rect class="cls-4" x="271.27" y="515.97" width="78.51" height="78.51" rx="10.9"/><circle class="cls-5" cx="310.52" cy="555.23" r="9.98"/><rect class="cls-4" x="368.57" y="516.39" width="78.51" height="78.51" rx="10.9"/><circle class="cls-5" cx="407.83" cy="555.65" r="9.98"/><rect class="cls-6" x="466.04" y="516.07" width="78.31" height="78.31" rx="10.87"/><circle class="cls-5" cx="525.74" cy="575.29" r="9.96"/><circle class="cls-5" cx="484.66" cy="534.21" r="9.96"/><circle class="cls-5" cx="505.26" cy="554.81" r="9.96"/><circle class="cls-5" cx="484.66" cy="575.29" r="9.96"/><circle class="cls-5" cx="525.74" cy="534.21" r="9.96"/><rect class="cls-4" x="271.55" y="618.67" width="78.51" height="78.51" rx="10.9"/><circle class="cls-5" cx="310.8" cy="657.93" r="9.98"/><rect class="cls-4" x="368.92" y="618.67" width="78.51" height="78.51" rx="10.9"/><circle class="cls-5" cx="423.32" cy="672.68" r="9.98"/><circle class="cls-5" cx="393.02" cy="642.39" r="9.98"/><rect class="cls-7" x="466.14" y="618.69" width="78.31" height="78.31" rx="10.87"/><circle class="cls-5" cx="487.81" cy="677.66" r="9.96"/><circle class="cls-5" cx="487.81" cy="638.81" r="9.96"/><circle class="cls-5" cx="522.78" cy="677.66" r="9.96"/><circle class="cls-5" cx="522.78" cy="638.81" r="9.96"/><rect class="cls-6" x="466.14" y="618.69" width="78.31" height="78.31" rx="10.87"/><circle class="cls-5" cx="487.81" cy="677.66" r="9.96"/><circle class="cls-5" cx="487.81" cy="638.81" r="9.96"/><circle class="cls-5" cx="522.78" cy="677.66" r="9.96"/><circle class="cls-5" cx="522.78" cy="638.81" r="9.96"/><rect class="cls-4" x="466.11" y="723.7" width="78.51" height="78.51" rx="10.9" transform="translate(1010.74 1525.91) rotate(180)"/><circle class="cls-5" cx="505.37" cy="762.95" r="9.98"/><rect class="cls-4" x="466.11" y="724.11" width="78.51" height="78.51" rx="10.9"/><circle class="cls-5" cx="525.96" cy="783.48" r="9.98"/><circle class="cls-5" cx="484.78" cy="742.3" r="9.98"/><circle class="cls-5" cx="505.43" cy="762.95" r="9.98"/><rect class="cls-4" x="271.37" y="723.7" width="78.51" height="78.51" rx="10.9" transform="translate(621.26 1525.91) rotate(180)"/><circle class="cls-5" cx="310.63" cy="762.95" r="9.98"/><rect class="cls-4" x="369.27" y="723.7" width="78.51" height="78.51" rx="10.9"/><circle class="cls-5" cx="429.11" cy="783.06" r="9.98"/><circle class="cls-5" cx="387.93" cy="741.88" r="9.98"/><circle class="cls-5" cx="408.59" cy="762.54" r="9.98"/><rect class="cls-4" x="271.55" y="828.52" width="78.51" height="78.51" rx="10.9" transform="translate(621.6 1735.55) rotate(180)"/><circle class="cls-5" cx="295.65" cy="853.01" r="9.98"/><circle class="cls-5" cx="325.95" cy="883.31" r="9.98"/><rect class="cls-4" x="368.92" y="828.93" width="78.51" height="78.51" rx="10.9"/><circle class="cls-5" cx="423.32" cy="882.95" r="9.98"/><circle class="cls-5" cx="393.02" cy="852.65" r="9.98"/><rect class="cls-4" x="466.28" y="828.93" width="78.51" height="78.51" rx="10.9"/><circle class="cls-5" cx="526.13" cy="888.3" r="9.98"/><circle class="cls-5" cx="484.95" cy="847.12" r="9.98"/><circle class="cls-5" cx="505.61" cy="867.77" r="9.98"/></g></svg>