<svg xmlns="http://www.w3.org/2000/svg" viewBox="0 0 816 1110"><defs><style>.cls-1{fill:#fff;}.cls-2{font-size:161.53px;font-family:TimesNewRomanPSMT, Times New Roman;}.cls-2,.cls-5{fill:#231f20;}.cls-3,.cls-4,.cls-6,.cls-7{fill:none;stroke:#231f20;stroke-miterlimit:10;}.cls-3,.cls-4{stroke-width:1.26px;}.cls-3{stroke-dasharray:12.3 12.3;}.cls-6{stroke-width:1.25px;}.cls-7{stroke-width:0.39px;}</style></defs><g id="Card_Corners" data-name="Card Corners"><path class="cls-1" d="M740.91,1110H75.34a75.06,75.06,0,0,1-75.07-75L0,75.09A75.07,75.07,0,0,1,75.09,0L740.94.23a75.06,75.06,0,0,1,75,75.06v959.62A75.06,75.06,0,0,1,740.91,1110Z"/></g><g id="Black_s" data-name="Black #s"><text class="cls-2" transform="translate(740.63 920.5) rotate(180)">8</text><text class="cls-2" transform="translate(75.78 189.49)">8</text></g><g id="Spades"><path d="M121.2,297.34a5.09,5.09,0,0,0-.34,1.17c-.18,6.76,1.51,12.94,5.85,18.23a46.44,46.44,0,0,0,3.62,3.53,3.19,3.19,0,0,1,.68.75c.17.34.39.86.24,1.09s-.7.42-1.1.56a1.87,1.87,0,0,1-.67,0c-8,0-16,0-24,0a5.06,5.06,0,0,1-1.56-.53c.23-.55.31-1.25.71-1.62a30.09,30.09,0,0,0,6.65-8,28.42,28.42,0,0,0,3-13.93,5.2,5.2,0,0,0-.1-.78,3.45,3.45,0,0,0-.26-.5,5.27,5.27,0,0,0-.68,1,17.91,17.91,0,0,1-7.26,9,19.71,19.71,0,0,1-27.6-7.45,22.45,22.45,0,0,1-3-13.4,32.54,32.54,0,0,1,5-14.17,71.85,71.85,0,0,1,14.83-16.66,132.62,132.62,0,0,0,21.61-23.3,7.47,7.47,0,0,1,.62-.71,2.24,2.24,0,0,1,.54.41c7.13,10.1,16,18.58,25.22,26.69,6.13,5.36,11.26,11.64,14.34,19.25,3.37,8.34,3.3,16.61-2.38,24.12-3.95,5.23-9.25,8.31-15.92,8.1-8-.26-14-3.78-17.16-11.43-.16-.38-.34-.75-.52-1.12C121.6,297.59,121.51,297.56,121.2,297.34Z"/><path d="M694.8,812.66a5.09,5.09,0,0,0,.34-1.17c.18-6.76-1.51-12.94-5.85-18.23a46.44,46.44,0,0,0-3.62-3.53A3.19,3.19,0,0,1,685,789c-.17-.34-.39-.86-.24-1.09s.7-.42,1.1-.56a1.87,1.87,0,0,1,.67,0c8,0,16,0,24,0a5.06,5.06,0,0,1,1.56.53c-.23.55-.31,1.25-.71,1.62a30,30,0,0,0-6.65,8,28.36,28.36,0,0,0-3,13.92,5.2,5.2,0,0,0,.1.78,3.45,3.45,0,0,0,.26.5,5.27,5.27,0,0,0,.68-1,17.91,17.91,0,0,1,7.26-9,19.71,19.71,0,0,1,27.6,7.45,22.45,22.45,0,0,1,3,13.4,32.54,32.54,0,0,1-5,14.17,71.85,71.85,0,0,1-14.83,16.66,132.62,132.62,0,0,0-21.61,23.3,7.47,7.47,0,0,1-.62.71A2.24,2.24,0,0,1,698,878c-7.13-10.1-16-18.58-25.22-26.69-6.13-5.36-11.26-11.64-14.34-19.25-3.37-8.34-3.3-16.61,2.38-24.12,4-5.23,9.25-8.31,15.92-8.1,8,.26,14,3.78,17.16,11.43.16.38.34.75.52,1.12C694.4,812.41,694.49,812.44,694.8,812.66Z"/></g><g id="Black_Dashed_Dice" data-name="Black Dashed Dice"><rect class="cls-3" x="466.34" y="148.35" width="78.51" height="78.51" rx="10.9"/><rect class="cls-3" x="466.34" y="252.24" width="78.51" height="78.51" rx="10.9"/><rect class="cls-3" x="466.34" y="356.12" width="78.51" height="78.51" rx="10.9"/></g><g id="Black_Center" data-name="Black Center"><rect class="cls-4" x="271.37" y="568.05" width="78.51" height="78.51" rx="10.9" transform="translate(621.26 1214.61) rotate(180)"/><circle class="cls-5" cx="310.63" cy="607.31" r="9.98"/><rect class="cls-4" x="466.11" y="881.88" width="78.51" height="78.51" rx="10.9"/><circle class="cls-5" cx="525.96" cy="941.25" r="9.98"/><circle class="cls-5" cx="484.78" cy="900.07" r="9.98"/><circle class="cls-5" cx="505.43" cy="920.72" r="9.98"/><rect class="cls-4" x="271.37" y="776.86" width="78.51" height="78.51" rx="10.9" transform="translate(621.26 1632.23) rotate(180)"/><circle class="cls-5" cx="295.48" cy="801.36" r="9.98"/><circle class="cls-5" cx="325.78" cy="831.65" r="9.98"/><rect class="cls-4" x="368.74" y="777.27" width="78.51" height="78.51" rx="10.9"/><circle class="cls-5" cx="423.15" cy="831.29" r="9.98"/><circle class="cls-5" cx="392.85" cy="800.99" r="9.98"/><rect class="cls-6" x="368.84" y="149.7" width="78.31" height="78.31" rx="10.87"/><circle class="cls-5" cx="392.51" cy="163.96" r="9.96"/><circle class="cls-5" cx="392.51" cy="212.8" r="9.96"/><circle class="cls-5" cx="392.51" cy="188.33" r="9.96"/><circle class="cls-5" cx="423.59" cy="163.96" r="9.96"/><circle class="cls-5" cx="423.59" cy="212.8" r="9.96"/><circle class="cls-5" cx="423.59" cy="188.33" r="9.96"/><rect class="cls-4" x="271.37" y="149.6" width="78.51" height="78.51" rx="10.9"/><circle class="cls-5" cx="325.78" cy="203.62" r="9.98"/><circle class="cls-5" cx="295.48" cy="173.32" r="9.98"/><rect class="cls-4" x="271.31" y="254.63" width="78.51" height="78.51" rx="10.9"/><circle class="cls-5" cx="331.16" cy="314" r="9.98"/><circle class="cls-5" cx="289.98" cy="272.82" r="9.98"/><circle class="cls-5" cx="310.63" cy="293.47" r="9.98"/><rect class="cls-6" x="368.84" y="254.26" width="78.31" height="78.31" rx="10.87"/><circle class="cls-5" cx="428.54" cy="313.48" r="9.96"/><circle class="cls-5" cx="387.46" cy="272.4" r="9.96"/><circle class="cls-5" cx="408.07" cy="293.01" r="9.96"/><circle class="cls-5" cx="387.46" cy="313.48" r="9.96"/><circle class="cls-5" cx="428.54" cy="272.4" r="9.96"/><rect class="cls-7" x="271.41" y="359.13" width="78.31" height="78.31" rx="10.87"/><circle class="cls-5" cx="293.08" cy="418.1" r="9.96"/><circle class="cls-5" cx="293.08" cy="379.25" r="9.96"/><circle class="cls-5" cx="328.05" cy="418.1" r="9.96"/><circle class="cls-5" cx="328.05" cy="379.25" r="9.96"/><rect class="cls-6" x="271.41" y="359.13" width="78.31" height="78.31" rx="10.87"/><circle class="cls-5" cx="293.08" cy="418.1" r="9.96"/><circle class="cls-5" cx="293.08" cy="379.25" r="9.96"/><circle class="cls-5" cx="328.05" cy="418.1" r="9.96"/><circle class="cls-5" cx="328.05" cy="379.25" r="9.96"/><rect class="cls-7" x="368.84" y="358.85" width="78.31" height="78.31" rx="10.87"/><circle class="cls-5" cx="390.52" cy="417.82" r="9.96"/><circle class="cls-5" cx="390.52" cy="378.97" r="9.96"/><circle class="cls-5" cx="425.48" cy="417.82" r="9.96"/><circle class="cls-5" cx="425.48" cy="378.97" r="9.96"/><rect class="cls-6" x="368.84" y="358.85" width="78.31" height="78.31" rx="10.87"/><circle class="cls-5" cx="390.52" cy="417.82" r="9.96"/><circle class="cls-5" cx="390.52" cy="378.97" r="9.96"/><circle class="cls-5" cx="425.48" cy="417.82" r="9.96"/><circle class="cls-5" cx="425.48" cy="378.97" r="9.96"/><rect class="cls-6" x="466.38" y="463.64" width="78.31" height="78.31" rx="10.87"/><circle class="cls-5" cx="490.05" cy="477.89" r="9.96"/><circle class="cls-5" cx="490.05" cy="526.74" r="9.96"/><circle class="cls-5" cx="490.05" cy="502.26" r="9.96"/><circle class="cls-5" cx="521.13" cy="477.89" r="9.96"/><circle class="cls-5" cx="521.13" cy="526.74" r="9.96"/><circle class="cls-5" cx="521.13" cy="502.26" r="9.96"/><rect class="cls-4" x="368.78" y="463" width="78.51" height="78.51" rx="10.9" transform="translate(816.07 1004.52) rotate(180)"/><circle class="cls-5" cx="408.03" cy="502.26" r="9.98"/><rect class="cls-4" x="271.41" y="463" width="78.51" height="78.51" rx="10.9" transform="translate(621.33 1004.52) rotate(180)"/><circle class="cls-5" cx="310.66" cy="502.26" r="9.98"/><rect class="cls-4" x="368.81" y="568.05" width="78.51" height="78.51" rx="10.9"/><circle class="cls-5" cx="423.21" cy="622.06" r="9.98"/><circle class="cls-5" cx="392.92" cy="591.77" r="9.98"/><rect class="cls-6" x="466.38" y="568.15" width="78.31" height="78.31" rx="10.87"/><circle class="cls-5" cx="526.07" cy="627.36" r="9.96"/><circle class="cls-5" cx="485" cy="586.29" r="9.96"/><circle class="cls-5" cx="505.6" cy="606.89" r="9.96"/><circle class="cls-5" cx="485" cy="627.36" r="9.96"/><circle class="cls-5" cx="526.07" cy="586.29" r="9.96"/><rect class="cls-4" x="271.31" y="672.25" width="78.51" height="78.51" rx="10.9" transform="translate(621.13 1423) rotate(180)"/><circle class="cls-5" cx="310.57" cy="711.5" r="9.98"/><rect class="cls-4" x="368.71" y="672.66" width="78.51" height="78.51" rx="10.9"/><circle class="cls-5" cx="428.56" cy="732.03" r="9.98"/><circle class="cls-5" cx="387.38" cy="690.85" r="9.98"/><circle class="cls-5" cx="408.03" cy="711.5" r="9.98"/><rect class="cls-7" x="466.21" y="672.76" width="78.31" height="78.31" rx="10.87"/><circle class="cls-5" cx="487.89" cy="731.73" r="9.96"/><circle class="cls-5" cx="487.89" cy="692.88" r="9.96"/><circle class="cls-5" cx="522.85" cy="731.73" r="9.96"/><circle class="cls-5" cx="522.85" cy="692.88" r="9.96"/><rect class="cls-6" x="466.21" y="672.76" width="78.31" height="78.31" rx="10.87"/><circle class="cls-5" cx="487.89" cy="731.73" r="9.96"/><circle class="cls-5" cx="487.89" cy="692.88" r="9.96"/><circle class="cls-5" cx="522.85" cy="731.73" r="9.96"/><circle class="cls-5" cx="522.85" cy="692.88" r="9.96"/><rect class="cls-4" x="368.78" y="881.88" width="78.51" height="78.51" rx="10.9"/><circle class="cls-5" cx="428.62" cy="941.25" r="9.98"/><circle class="cls-5" cx="387.44" cy="900.07" r="9.98"/><circle class="cls-5" cx="408.1" cy="920.72" r="9.98"/><rect class="cls-4" x="271.41" y="881.47" width="78.51" height="78.51" rx="10.9"/><circle class="cls-5" cx="325.81" cy="935.48" r="9.98"/><circle class="cls-5" cx="295.52" cy="905.19" r="9.98"/><rect class="cls-7" x="466.28" y="777.37" width="78.31" height="78.31" rx="10.87"/><circle class="cls-5" cx="487.95" cy="836.34" r="9.96"/><circle class="cls-5" cx="487.95" cy="797.49" r="9.96"/><circle class="cls-5" cx="522.92" cy="836.34" r="9.96"/><circle class="cls-5" cx="522.92" cy="797.49" r="9.96"/><rect class="cls-6" x="466.28" y="777.37" width="78.31" height="78.31" rx="10.87"/><circle class="cls-5" cx="487.95" cy="836.34" r="9.96"/><circle class="cls-5" cx="487.95" cy="797.49" r="9.96"/><circle class="cls-5" cx="522.92" cy="836.34" r="9.96"/><circle class="cls-5" cx="522.92" cy="797.49" r="9.96"/></g></svg>