<svg xmlns="http://www.w3.org/2000/svg" viewBox="0 0 816 1110"><defs><style>.cls-1{fill:#fff;}.cls-2{font-size:161.53px;font-family:TimesNewRomanPSMT, Times New Roman;}.cls-2,.cls-5{fill:#231f20;}.cls-3,.cls-4,.cls-6,.cls-7{fill:none;stroke:#231f20;stroke-miterlimit:10;}.cls-3,.cls-4{stroke-width:1.26px;}.cls-3{stroke-dasharray:12.3 12.3;}.cls-6{stroke-width:1.25px;}.cls-7{stroke-width:0.39px;}</style></defs><g id="Card_Corners" data-name="Card Corners"><path class="cls-1" d="M740.93,1110H75.36A75.07,75.07,0,0,1,.29,1035L0,75.11A75.06,75.06,0,0,1,75.11,0L741,.25a75.07,75.07,0,0,1,75,75.07v959.61A75.07,75.07,0,0,1,740.93,1110Z"/></g><g id="Black_s" data-name="Black #s"><text class="cls-2" transform="translate(71.78 189.49)">9</text><text class="cls-2" transform="translate(744.63 920.5) rotate(180)">9</text></g><g id="Spades"><path d="M121.2,297.34a5.09,5.09,0,0,0-.34,1.17c-.18,6.76,1.51,12.94,5.85,18.23a46.44,46.44,0,0,0,3.62,3.53,3.19,3.19,0,0,1,.68.75c.17.34.39.86.24,1.09s-.7.42-1.1.56a1.87,1.87,0,0,1-.67,0c-8,0-16,0-24,0a5.06,5.06,0,0,1-1.56-.53c.23-.55.31-1.25.71-1.62a30.09,30.09,0,0,0,6.65-8,28.42,28.42,0,0,0,3-13.93,5.2,5.2,0,0,0-.1-.78,3.45,3.45,0,0,0-.26-.5,5.27,5.27,0,0,0-.68,1,17.91,17.91,0,0,1-7.26,9,19.71,19.71,0,0,1-27.6-7.45,22.45,22.45,0,0,1-3-13.4,32.54,32.54,0,0,1,5-14.17,71.85,71.85,0,0,1,14.83-16.66,132.62,132.62,0,0,0,21.61-23.3,7.47,7.47,0,0,1,.62-.71,2.24,2.24,0,0,1,.54.41c7.13,10.1,16,18.58,25.22,26.69,6.13,5.36,11.26,11.64,14.34,19.25,3.37,8.34,3.3,16.61-2.38,24.12-3.95,5.23-9.25,8.31-15.92,8.1-8-.26-14-3.78-17.16-11.43-.16-.38-.34-.75-.52-1.12C121.6,297.59,121.51,297.56,121.2,297.34Z"/><path d="M694.8,812.66a5.09,5.09,0,0,0,.34-1.17c.18-6.76-1.51-12.94-5.85-18.23a46.44,46.44,0,0,0-3.62-3.53A3.19,3.19,0,0,1,685,789c-.17-.34-.39-.86-.24-1.09s.7-.42,1.1-.56a1.87,1.87,0,0,1,.67,0c8,0,16,0,24,0a5.06,5.06,0,0,1,1.56.53c-.23.55-.31,1.25-.71,1.62a30,30,0,0,0-6.65,8,28.36,28.36,0,0,0-3,13.92,5.2,5.2,0,0,0,.1.78,3.45,3.45,0,0,0,.26.5,5.27,5.27,0,0,0,.68-1,17.91,17.91,0,0,1,7.26-9,19.71,19.71,0,0,1,27.6,7.45,22.45,22.45,0,0,1,3,13.4,32.54,32.54,0,0,1-5,14.17,71.85,71.85,0,0,1-14.83,16.66,132.62,132.62,0,0,0-21.61,23.3,7.47,7.47,0,0,1-.62.71A2.24,2.24,0,0,1,698,878c-7.13-10.1-16-18.58-25.22-26.69-6.13-5.36-11.26-11.64-14.34-19.25-3.37-8.34-3.3-16.61,2.38-24.12,4-5.23,9.25-8.31,15.92-8.1,8,.26,14,3.78,17.16,11.43.16.38.34.75.52,1.12C694.4,812.41,694.49,812.44,694.8,812.66Z"/></g><g id="Black_Dashed_Dice" data-name="Black Dashed Dice"><rect class="cls-3" x="466.11" y="148.35" width="78.51" height="78.51" rx="10.9"/><rect class="cls-3" x="466.11" y="252.24" width="78.51" height="78.51" rx="10.9"/></g><g id="Black_Center" data-name="Black Center"><rect class="cls-4" x="368.74" y="359.03" width="78.51" height="78.51" rx="10.9"/><circle class="cls-5" cx="423.15" cy="413.05" r="9.98"/><circle class="cls-5" cx="392.85" cy="382.75" r="9.98"/><rect class="cls-4" x="271.37" y="463.65" width="78.51" height="78.51" rx="10.9" transform="translate(621.26 1005.8) rotate(180)"/><circle class="cls-5" cx="310.63" cy="502.9" r="9.98"/><rect class="cls-4" x="271.37" y="672.45" width="78.51" height="78.51" rx="10.9" transform="translate(621.26 1423.42) rotate(180)"/><circle class="cls-5" cx="295.48" cy="696.95" r="9.98"/><circle class="cls-5" cx="325.78" cy="727.25" r="9.98"/><rect class="cls-4" x="466.11" y="881.68" width="78.51" height="78.51" rx="10.9"/><circle class="cls-5" cx="525.96" cy="941.04" r="9.98"/><circle class="cls-5" cx="484.78" cy="899.86" r="9.98"/><circle class="cls-5" cx="505.43" cy="920.52" r="9.98"/><rect class="cls-4" x="368.74" y="672.87" width="78.51" height="78.51" rx="10.9"/><circle class="cls-5" cx="423.15" cy="726.88" r="9.98"/><circle class="cls-5" cx="392.85" cy="696.59" r="9.98"/><rect class="cls-4" x="271.37" y="149.81" width="78.51" height="78.51" rx="10.9"/><circle class="cls-5" cx="331.22" cy="209.18" r="9.98"/><circle class="cls-5" cx="290.04" cy="168" r="9.98"/><circle class="cls-5" cx="310.7" cy="188.65" r="9.98"/><rect class="cls-6" x="368.84" y="150.01" width="78.31" height="78.31" rx="10.87"/><circle class="cls-5" cx="392.51" cy="164.26" r="9.96"/><circle class="cls-5" cx="392.51" cy="213.11" r="9.96"/><circle class="cls-5" cx="392.51" cy="188.63" r="9.96"/><circle class="cls-5" cx="423.59" cy="164.26" r="9.96"/><circle class="cls-5" cx="423.59" cy="213.11" r="9.96"/><circle class="cls-5" cx="423.59" cy="188.63" r="9.96"/><rect class="cls-7" x="271.54" y="254.52" width="78.31" height="78.31" rx="10.87"/><circle class="cls-5" cx="293.21" cy="313.49" r="9.96"/><circle class="cls-5" cx="293.21" cy="274.64" r="9.96"/><circle class="cls-5" cx="328.18" cy="313.49" r="9.96"/><circle class="cls-5" cx="328.18" cy="274.64" r="9.96"/><rect class="cls-6" x="271.54" y="254.52" width="78.31" height="78.31" rx="10.87"/><circle class="cls-5" cx="293.21" cy="313.49" r="9.96"/><circle class="cls-5" cx="293.21" cy="274.64" r="9.96"/><circle class="cls-5" cx="328.18" cy="313.49" r="9.96"/><circle class="cls-5" cx="328.18" cy="274.64" r="9.96"/><rect class="cls-6" x="368.84" y="254.52" width="78.31" height="78.31" rx="10.87"/><circle class="cls-5" cx="428.54" cy="313.74" r="9.96"/><circle class="cls-5" cx="387.46" cy="272.66" r="9.96"/><circle class="cls-5" cx="408.07" cy="293.26" r="9.96"/><circle class="cls-5" cx="387.46" cy="313.74" r="9.96"/><circle class="cls-5" cx="428.54" cy="272.66" r="9.96"/><rect class="cls-4" x="271.37" y="359.03" width="78.51" height="78.51" rx="10.9" transform="translate(621.26 796.58) rotate(180)"/><circle class="cls-5" cx="310.63" cy="398.29" r="9.98"/><rect class="cls-4" x="271.37" y="568.26" width="78.51" height="78.51" rx="10.9" transform="translate(621.26 1215.03) rotate(180)"/><circle class="cls-5" cx="310.63" cy="607.51" r="9.98"/><rect class="cls-6" x="466.21" y="359.23" width="78.31" height="78.31" rx="10.87"/><circle class="cls-5" cx="489.88" cy="373.49" r="9.96"/><circle class="cls-5" cx="489.88" cy="422.33" r="9.96"/><circle class="cls-5" cx="489.88" cy="397.86" r="9.96"/><circle class="cls-5" cx="520.96" cy="373.49" r="9.96"/><circle class="cls-5" cx="520.96" cy="422.33" r="9.96"/><circle class="cls-5" cx="520.96" cy="397.86" r="9.96"/><rect class="cls-4" x="368.74" y="463.65" width="78.51" height="78.51" rx="10.9"/><circle class="cls-5" cx="428.59" cy="523.01" r="9.98"/><circle class="cls-5" cx="387.41" cy="481.83" r="9.98"/><circle class="cls-5" cx="408.07" cy="502.49" r="9.98"/><rect class="cls-6" x="466.28" y="463.75" width="78.31" height="78.31" rx="10.87"/><circle class="cls-5" cx="525.97" cy="522.96" r="9.96"/><circle class="cls-5" cx="484.9" cy="481.88" r="9.96"/><circle class="cls-5" cx="505.5" cy="502.49" r="9.96"/><circle class="cls-5" cx="484.9" cy="522.96" r="9.96"/><circle class="cls-5" cx="525.97" cy="481.88" r="9.96"/><rect class="cls-7" x="368.91" y="568.36" width="78.31" height="78.31" rx="10.87"/><circle class="cls-5" cx="390.58" cy="627.33" r="9.96"/><circle class="cls-5" cx="390.58" cy="588.48" r="9.96"/><circle class="cls-5" cx="425.55" cy="627.33" r="9.96"/><circle class="cls-5" cx="425.55" cy="588.48" r="9.96"/><rect class="cls-6" x="368.91" y="568.36" width="78.31" height="78.31" rx="10.87"/><circle class="cls-5" cx="390.58" cy="627.33" r="9.96"/><circle class="cls-5" cx="390.58" cy="588.48" r="9.96"/><circle class="cls-5" cx="425.55" cy="627.33" r="9.96"/><circle class="cls-5" cx="425.55" cy="588.48" r="9.96"/><rect class="cls-7" x="466.21" y="568.31" width="78.31" height="78.31" rx="10.87"/><circle class="cls-5" cx="487.89" cy="627.28" r="9.96"/><circle class="cls-5" cx="487.89" cy="588.43" r="9.96"/><circle class="cls-5" cx="522.85" cy="627.28" r="9.96"/><circle class="cls-5" cx="522.85" cy="588.43" r="9.96"/><rect class="cls-6" x="466.21" y="568.31" width="78.31" height="78.31" rx="10.87"/><circle class="cls-5" cx="487.89" cy="627.28" r="9.96"/><circle class="cls-5" cx="487.89" cy="588.43" r="9.96"/><circle class="cls-5" cx="522.85" cy="627.28" r="9.96"/><circle class="cls-5" cx="522.85" cy="588.43" r="9.96"/><rect class="cls-6" x="466.23" y="672.95" width="78.31" height="78.31" rx="10.87"/><circle class="cls-5" cx="525.93" cy="732.16" r="9.96"/><circle class="cls-5" cx="484.85" cy="691.09" r="9.96"/><circle class="cls-5" cx="505.45" cy="711.69" r="9.96"/><circle class="cls-5" cx="484.85" cy="732.16" r="9.96"/><circle class="cls-5" cx="525.93" cy="691.09" r="9.96"/><rect class="cls-4" x="271.37" y="777.07" width="78.51" height="78.51" rx="10.9"/><circle class="cls-5" cx="325.78" cy="831.08" r="9.98"/><circle class="cls-5" cx="295.48" cy="800.78" r="9.98"/><rect class="cls-4" x="368.74" y="777.07" width="78.51" height="78.51" rx="10.9"/><circle class="cls-5" cx="428.59" cy="836.43" r="9.98"/><circle class="cls-5" cx="387.41" cy="795.25" r="9.98"/><circle class="cls-5" cx="408.07" cy="815.9" r="9.98"/><rect class="cls-7" x="466.21" y="776.75" width="78.31" height="78.31" rx="10.87"/><circle class="cls-5" cx="487.89" cy="835.72" r="9.96"/><circle class="cls-5" cx="487.89" cy="796.87" r="9.96"/><circle class="cls-5" cx="522.85" cy="835.72" r="9.96"/><circle class="cls-5" cx="522.85" cy="796.87" r="9.96"/><rect class="cls-6" x="466.21" y="776.75" width="78.31" height="78.31" rx="10.87"/><circle class="cls-5" cx="487.89" cy="835.72" r="9.96"/><circle class="cls-5" cx="487.89" cy="796.87" r="9.96"/><circle class="cls-5" cx="522.85" cy="835.72" r="9.96"/><circle class="cls-5" cx="522.85" cy="796.87" r="9.96"/><rect class="cls-4" x="368.81" y="881.68" width="78.51" height="78.51" rx="10.9"/><circle class="cls-5" cx="428.66" cy="941.04" r="9.98"/><circle class="cls-5" cx="387.48" cy="899.86" r="9.98"/><circle class="cls-5" cx="408.13" cy="920.52" r="9.98"/><rect class="cls-4" x="271.37" y="881.26" width="78.51" height="78.51" rx="10.9"/><circle class="cls-5" cx="331.22" cy="940.62" r="9.98"/><circle class="cls-5" cx="290.04" cy="899.44" r="9.98"/><circle class="cls-5" cx="310.7" cy="920.1" r="9.98"/></g></svg>