<svg xmlns="http://www.w3.org/2000/svg" viewBox="0 0 816 1110"><defs><style>.cls-1{fill:#fff;}.cls-2{font-size:161.53px;font-family:TimesNewRomanPSMT, Times New Roman;}.cls-2,.cls-5{fill:#231f20;}.cls-3,.cls-4,.cls-6,.cls-7{fill:none;stroke:#231f20;stroke-miterlimit:10;}.cls-3,.cls-4{stroke-width:1.26px;}.cls-3{stroke-dasharray:12.3 12.3;}.cls-6{stroke-width:1.25px;}.cls-7{stroke-width:0.39px;}</style></defs><g id="Card_Corners" data-name="Card Corners"><path class="cls-1" d="M740.91,1110H75.34A75.07,75.07,0,0,1,.27,1035L0,75.11A75.06,75.06,0,0,1,75.09,0L740.94.25a75.07,75.07,0,0,1,75,75.07v959.61A75.07,75.07,0,0,1,740.91,1110Z"/></g><g id="Black_s" data-name="Black #s"><text class="cls-2" transform="translate(69.77 189.49)">10</text><text class="cls-2" transform="translate(746.63 920.5) rotate(180)">10</text></g><g id="Spades"><path d="M155.23,297.34a5.09,5.09,0,0,0-.34,1.17c-.19,6.76,1.5,12.94,5.85,18.23a44.74,44.74,0,0,0,3.62,3.53,3.43,3.43,0,0,1,.68.75c.16.34.38.86.24,1.09s-.7.42-1.1.56a1.87,1.87,0,0,1-.67,0c-8,0-16,0-24,0a5,5,0,0,1-1.55-.53c.23-.55.31-1.25.71-1.62a30.28,30.28,0,0,0,6.65-8,28.3,28.3,0,0,0,3-13.93,5.18,5.18,0,0,0-.09-.78,3,3,0,0,0-.27-.5,5.69,5.69,0,0,0-.67,1,18,18,0,0,1-7.26,9,19.73,19.73,0,0,1-27.61-7.45,22.44,22.44,0,0,1-3-13.4,32.52,32.52,0,0,1,5-14.17,71.89,71.89,0,0,1,14.84-16.66,133.38,133.38,0,0,0,21.61-23.3,9,9,0,0,1,.61-.71,2.54,2.54,0,0,1,.55.41c7.13,10.1,16,18.58,25.22,26.69,6.13,5.36,11.26,11.64,14.33,19.25,3.38,8.34,3.31,16.61-2.37,24.12-4,5.23-9.25,8.31-15.92,8.1-8-.26-14-3.78-17.16-11.43-.16-.38-.34-.75-.52-1.12C155.63,297.59,155.54,297.56,155.23,297.34Z"/><path d="M660.77,812.66a5.09,5.09,0,0,0,.34-1.17c.19-6.76-1.5-12.94-5.85-18.23a44.74,44.74,0,0,0-3.62-3.53A3.43,3.43,0,0,1,651,789c-.16-.34-.38-.86-.24-1.09s.7-.42,1.1-.56a1.87,1.87,0,0,1,.67,0c8,0,16,0,24,0a5,5,0,0,1,1.55.53c-.23.55-.31,1.25-.71,1.62a30.17,30.17,0,0,0-6.65,8,28.24,28.24,0,0,0-3,13.92,5.18,5.18,0,0,0,.09.78,3,3,0,0,0,.27.5,5.69,5.69,0,0,0,.67-1,18,18,0,0,1,7.26-9,19.73,19.73,0,0,1,27.61,7.45,22.44,22.44,0,0,1,3,13.4,32.52,32.52,0,0,1-5,14.17,71.89,71.89,0,0,1-14.84,16.66,133.38,133.38,0,0,0-21.61,23.3,9,9,0,0,1-.61.71,2.54,2.54,0,0,1-.55-.41c-7.13-10.1-16-18.58-25.22-26.69-6.13-5.36-11.26-11.64-14.33-19.25-3.38-8.34-3.31-16.61,2.37-24.12,4-5.23,9.25-8.31,15.92-8.1,8,.26,14,3.78,17.16,11.43.16.38.34.75.52,1.12C660.37,812.41,660.46,812.44,660.77,812.66Z"/></g><g id="Black_Dashed_Dice" data-name="Black Dashed Dice"><rect class="cls-3" x="466.16" y="149.23" width="78.51" height="78.51" rx="10.9"/><rect class="cls-3" x="466.16" y="253.12" width="78.51" height="78.51" rx="10.9"/></g><g id="Black_Center" data-name="Black Center"><rect class="cls-4" x="271.36" y="463.6" width="78.51" height="78.51" rx="10.9" transform="translate(621.23 1005.71) rotate(180)"/><circle class="cls-5" cx="310.62" cy="502.85" r="9.98"/><rect class="cls-4" x="368.73" y="568.21" width="78.51" height="78.51" rx="10.9"/><circle class="cls-5" cx="423.13" cy="622.22" r="9.98"/><circle class="cls-5" cx="392.84" cy="591.93" r="9.98"/><rect class="cls-4" x="271.36" y="568.21" width="78.51" height="78.51" rx="10.9" transform="translate(621.23 1214.93) rotate(180)"/><circle class="cls-5" cx="295.47" cy="592.71" r="9.98"/><circle class="cls-5" cx="325.76" cy="623" r="9.98"/><rect class="cls-4" x="271.36" y="672.4" width="78.51" height="78.51" rx="10.9" transform="translate(621.23 1423.32) rotate(180)"/><circle class="cls-5" cx="295.47" cy="696.9" r="9.98"/><circle class="cls-5" cx="325.76" cy="727.2" r="9.98"/><rect class="cls-4" x="271.46" y="881.21" width="78.51" height="78.51" rx="10.9" transform="translate(621.43 1840.93) rotate(180)"/><circle class="cls-5" cx="290.12" cy="900.36" r="9.98"/><circle class="cls-5" cx="331.3" cy="941.54" r="9.98"/><circle class="cls-5" cx="310.65" cy="920.88" r="9.98"/><rect class="cls-6" x="368.83" y="149.86" width="78.31" height="78.31" rx="10.87"/><circle class="cls-5" cx="392.5" cy="164.11" r="9.96"/><circle class="cls-5" cx="392.5" cy="212.96" r="9.96"/><circle class="cls-5" cx="392.5" cy="188.49" r="9.96"/><circle class="cls-5" cx="423.58" cy="164.11" r="9.96"/><circle class="cls-5" cx="423.58" cy="212.96" r="9.96"/><circle class="cls-5" cx="423.58" cy="188.49" r="9.96"/><rect class="cls-7" x="271.74" y="149.96" width="78.31" height="78.31" rx="10.87"/><circle class="cls-5" cx="293.41" cy="208.93" r="9.96"/><circle class="cls-5" cx="293.41" cy="170.08" r="9.96"/><circle class="cls-5" cx="328.38" cy="208.93" r="9.96"/><circle class="cls-5" cx="328.38" cy="170.08" r="9.96"/><rect class="cls-6" x="271.74" y="149.96" width="78.31" height="78.31" rx="10.87"/><circle class="cls-5" cx="293.41" cy="208.93" r="9.96"/><circle class="cls-5" cx="293.41" cy="170.08" r="9.96"/><circle class="cls-5" cx="328.38" cy="208.93" r="9.96"/><circle class="cls-5" cx="328.38" cy="170.08" r="9.96"/><rect class="cls-6" x="271.74" y="254.47" width="78.31" height="78.31" rx="10.87"/><circle class="cls-5" cx="331.43" cy="313.69" r="9.96"/><circle class="cls-5" cx="290.36" cy="272.61" r="9.96"/><circle class="cls-5" cx="310.96" cy="293.21" r="9.96"/><circle class="cls-5" cx="290.36" cy="313.69" r="9.96"/><circle class="cls-5" cx="331.43" cy="272.61" r="9.96"/><rect class="cls-6" x="368.83" y="254.47" width="78.31" height="78.31" rx="10.87"/><circle class="cls-5" cx="428.52" cy="313.69" r="9.96"/><circle class="cls-5" cx="387.45" cy="272.61" r="9.96"/><circle class="cls-5" cx="408.05" cy="293.21" r="9.96"/><circle class="cls-5" cx="387.45" cy="313.69" r="9.96"/><circle class="cls-5" cx="428.52" cy="272.61" r="9.96"/><rect class="cls-4" x="271.36" y="358.94" width="78.51" height="78.51" rx="10.9" transform="translate(621.23 796.38) rotate(180)"/><circle class="cls-5" cx="310.62" cy="398.19" r="9.98"/><rect class="cls-4" x="368.79" y="358.99" width="78.51" height="78.51" rx="10.9"/><circle class="cls-5" cx="428.64" cy="418.35" r="9.98"/><circle class="cls-5" cx="387.46" cy="377.17" r="9.98"/><circle class="cls-5" cx="408.11" cy="397.82" r="9.98"/><rect class="cls-6" x="466.26" y="359.55" width="78.31" height="78.31" rx="10.87"/><circle class="cls-5" cx="489.93" cy="373.81" r="9.96"/><circle class="cls-5" cx="489.93" cy="422.65" r="9.96"/><circle class="cls-5" cx="489.93" cy="398.18" r="9.96"/><circle class="cls-5" cx="521.01" cy="373.81" r="9.96"/><circle class="cls-5" cx="521.01" cy="422.65" r="9.96"/><circle class="cls-5" cx="521.01" cy="398.18" r="9.96"/><rect class="cls-7" x="368.83" y="463.28" width="78.31" height="78.31" rx="10.87"/><circle class="cls-5" cx="390.5" cy="522.25" r="9.96"/><circle class="cls-5" cx="390.5" cy="483.4" r="9.96"/><circle class="cls-5" cx="425.47" cy="522.25" r="9.96"/><circle class="cls-5" cx="425.47" cy="483.4" r="9.96"/><rect class="cls-6" x="368.83" y="463.28" width="78.31" height="78.31" rx="10.87"/><circle class="cls-5" cx="390.5" cy="522.25" r="9.96"/><circle class="cls-5" cx="390.5" cy="483.4" r="9.96"/><circle class="cls-5" cx="425.47" cy="522.25" r="9.96"/><circle class="cls-5" cx="425.47" cy="483.4" r="9.96"/><rect class="cls-6" x="466.26" y="463.28" width="78.31" height="78.31" rx="10.87"/><circle class="cls-5" cx="525.96" cy="522.49" r="9.96"/><circle class="cls-5" cx="484.88" cy="481.42" r="9.96"/><circle class="cls-5" cx="505.48" cy="502.02" r="9.96"/><circle class="cls-5" cx="484.88" cy="522.49" r="9.96"/><circle class="cls-5" cx="525.96" cy="481.42" r="9.96"/><rect class="cls-6" x="466.33" y="567.89" width="78.31" height="78.31" rx="10.87"/><circle class="cls-5" cx="490" cy="582.14" r="9.96"/><circle class="cls-5" cx="490" cy="630.99" r="9.96"/><circle class="cls-5" cx="490" cy="606.52" r="9.96"/><circle class="cls-5" cx="521.08" cy="582.14" r="9.96"/><circle class="cls-5" cx="521.08" cy="630.99" r="9.96"/><circle class="cls-5" cx="521.08" cy="606.52" r="9.96"/><rect class="cls-4" x="368.73" y="672.82" width="78.51" height="78.51" rx="10.9"/><circle class="cls-5" cx="428.57" cy="732.18" r="9.98"/><circle class="cls-5" cx="387.39" cy="691" r="9.98"/><circle class="cls-5" cx="408.05" cy="711.66" r="9.98"/><rect class="cls-6" x="466.33" y="672.92" width="78.31" height="78.31" rx="10.87"/><circle class="cls-5" cx="526.02" cy="732.13" r="9.96"/><circle class="cls-5" cx="484.95" cy="691.06" r="9.96"/><circle class="cls-5" cx="505.55" cy="711.66" r="9.96"/><circle class="cls-5" cx="484.95" cy="732.13" r="9.96"/><circle class="cls-5" cx="526.02" cy="691.06" r="9.96"/><rect class="cls-4" x="271.36" y="777.43" width="78.51" height="78.51" rx="10.9"/><circle class="cls-5" cx="325.76" cy="831.45" r="9.98"/><circle class="cls-5" cx="295.47" cy="801.15" r="9.98"/><rect class="cls-7" x="368.89" y="777.11" width="78.31" height="78.31" rx="10.87"/><circle class="cls-5" cx="390.57" cy="836.08" r="9.96"/><circle class="cls-5" cx="390.57" cy="797.24" r="9.96"/><circle class="cls-5" cx="425.53" cy="836.08" r="9.96"/><circle class="cls-5" cx="425.53" cy="797.24" r="9.96"/><rect class="cls-6" x="368.89" y="777.11" width="78.31" height="78.31" rx="10.87"/><circle class="cls-5" cx="390.57" cy="836.08" r="9.96"/><circle class="cls-5" cx="390.57" cy="797.24" r="9.96"/><circle class="cls-5" cx="425.53" cy="836.08" r="9.96"/><circle class="cls-5" cx="425.53" cy="797.24" r="9.96"/><rect class="cls-7" x="466.2" y="777.11" width="78.31" height="78.31" rx="10.87"/><circle class="cls-5" cx="487.87" cy="836.08" r="9.96"/><circle class="cls-5" cx="487.87" cy="797.24" r="9.96"/><circle class="cls-5" cx="522.84" cy="836.08" r="9.96"/><circle class="cls-5" cx="522.84" cy="797.24" r="9.96"/><rect class="cls-6" x="466.2" y="777.11" width="78.31" height="78.31" rx="10.87"/><circle class="cls-5" cx="487.87" cy="836.08" r="9.96"/><circle class="cls-5" cx="487.87" cy="797.24" r="9.96"/><circle class="cls-5" cx="522.84" cy="836.08" r="9.96"/><circle class="cls-5" cx="522.84" cy="797.24" r="9.96"/><rect class="cls-4" x="368.83" y="881.63" width="78.51" height="78.51" rx="10.9" transform="translate(816.17 1841.77) rotate(180)"/><circle class="cls-5" cx="387.49" cy="900.77" r="9.98"/><circle class="cls-5" cx="428.67" cy="941.95" r="9.98"/><circle class="cls-5" cx="408.02" cy="921.3" r="9.98"/><rect class="cls-7" x="466.3" y="881.31" width="78.31" height="78.31" rx="10.87" transform="translate(1010.9 1840.93) rotate(180)"/><circle class="cls-5" cx="522.93" cy="900.65" r="9.96"/><circle class="cls-5" cx="522.93" cy="939.5" r="9.96"/><circle class="cls-5" cx="487.97" cy="900.65" r="9.96"/><circle class="cls-5" cx="487.97" cy="939.5" r="9.96"/><rect class="cls-6" x="466.3" y="881.31" width="78.31" height="78.31" rx="10.87" transform="translate(1010.9 1840.93) rotate(180)"/><circle class="cls-5" cx="522.93" cy="900.65" r="9.96"/><circle class="cls-5" cx="522.93" cy="939.5" r="9.96"/><circle class="cls-5" cx="487.97" cy="900.65" r="9.96"/><circle class="cls-5" cx="487.97" cy="939.5" r="9.96"/></g></svg>