<svg xmlns="http://www.w3.org/2000/svg" xmlns:xlink="http://www.w3.org/1999/xlink" viewBox="0 0 816 1110"><defs><style>.cls-1{fill:#231f20;}.cls-2{fill:#fff;}</style></defs><g id="Card_Corners" data-name="Card Corners"><path class="cls-1" d="M740.93,1110H75.36A75.07,75.07,0,0,1,.29,1035L0,75.11A75.06,75.06,0,0,1,75.11,0L741,.25a75.07,75.07,0,0,1,75,75.07v959.61A75.07,75.07,0,0,1,740.93,1110Z"/></g><g id="_1-3" data-name="1-3"><rect class="cls-2" x="292.67" y="153.61" width="230.66" height="230.66" rx="32.01" transform="translate(676.94 -139.06) rotate(90)"/><circle class="cls-1" cx="408" cy="268.94" r="29.33"/><rect class="cls-2" x="292.67" y="439.67" width="230.66" height="230.66" rx="32.01" transform="translate(963 147) rotate(90)"/><circle class="cls-1" cx="364.64" cy="599.5" r="29.33"/><circle class="cls-1" cx="453.64" cy="510.5" r="29.33"/><rect class="cls-2" x="292.67" y="725.73" width="230.66" height="230.66" rx="32.01" transform="translate(1249.06 433.06) rotate(90)"/><circle class="cls-1" cx="348.92" cy="901.55" r="29.33"/><circle class="cls-1" cx="469.91" cy="780.57" r="29.33"/><circle class="cls-1" cx="409.22" cy="841.25" r="29.33"/><image width="2925" height="1104" transform="translate(662.66 1027.12) rotate(-90) scale(0.07)" xlink:href="../../../../../BObTO%20Designs/Logos/BObTO%20Designs%20Logo.jpg"/></g></svg>