<?xml version="1.0" encoding="utf-8"?>
<!-- Generator: Adobe Illustrator 26.0.3, SVG Export Plug-In . SVG Version: 6.00 Build 0)  -->
<svg version="1.1" id="Layer_1" xmlns="http://www.w3.org/2000/svg" xmlns:xlink="http://www.w3.org/1999/xlink" x="0px" y="0px"
	 viewBox="0 0 278 768" style="enable-background:new 0 0 278 768;" xml:space="preserve">
<style type="text/css">
	.st0{fill:#FFFFFF;}
	.st1{fill:#231F20;}
</style>
<g>
	<path class="st0" d="M27.9,206.3V44.9c0-17.1,14-31,31-31h161.4c17.1,0,31,14,31,31v161.4c0,17.1-14,31-31,31H58.9
		C41.8,237.3,27.9,223.4,27.9,206.3z"/>
	<circle class="st1" cx="139.6" cy="125.6" r="28.4"/>
</g>
<g>
	<path class="st0" d="M27.9,462.1V300.7c0-17.1,14-31,31-31h161.4c17.1,0,31,14,31,31v161.4c0,17.1-14,31-31,31H58.9
		C41.8,493.2,27.9,479.2,27.9,462.1z"/>
	<circle class="st1" cx="97.6" cy="424.5" r="28.4"/>
	<circle class="st1" cx="183.8" cy="338.3" r="28.4"/>
</g>
<g>
	<path class="st0" d="M27.9,718V556.6c0-17.1,14-31,31-31h161.4c17.1,0,31,14,31,31V718c0,17.1-14,31-31,31H58.9
		C41.8,749,27.9,735,27.9,718z"/>
	<circle class="st1" cx="82.4" cy="695.9" r="28.4"/>
	<circle class="st1" cx="199.6" cy="578.7" r="28.4"/>
	<circle class="st1" cx="140.8" cy="637.5" r="28.4"/>
</g>
</svg>
